%TF.GenerationSoftware,KiCad,Pcbnew,(5.1.6)-1*%
%TF.CreationDate,2020-06-24T11:27:28-04:00*%
%TF.ProjectId,southpaw6.35,736f7574-6870-4617-9736-2e33352e6b69,rev?*%
%TF.SameCoordinates,Original*%
%TF.FileFunction,Soldermask,Bot*%
%TF.FilePolarity,Negative*%
%FSLAX46Y46*%
G04 Gerber Fmt 4.6, Leading zero omitted, Abs format (unit mm)*
G04 Created by KiCad (PCBNEW (5.1.6)-1) date 2020-06-24 11:27:28*
%MOMM*%
%LPD*%
G01*
G04 APERTURE LIST*
%ADD10C,1.700000*%
%ADD11R,1.700000X1.700000*%
G04 APERTURE END LIST*
D10*
%TO.C,U1*%
X71755000Y-88582000D03*
X71755000Y-91122000D03*
X71755000Y-93662000D03*
X71755000Y-96202000D03*
X71755000Y-98742000D03*
X71755000Y-101282000D03*
X71755000Y-103822000D03*
X71755000Y-106362000D03*
X71755000Y-108902000D03*
X71755000Y-111442000D03*
X71755000Y-113982000D03*
X71755000Y-116522000D03*
X71755000Y-119062000D03*
X71755000Y-121602000D03*
X71755000Y-124142000D03*
X71755000Y-126682000D03*
X71755000Y-129222000D03*
X71755000Y-131762000D03*
X71755000Y-134302000D03*
X71755000Y-136842000D03*
X86995000Y-136842000D03*
X86995000Y-134302000D03*
X86995000Y-131762000D03*
X86995000Y-129222000D03*
X86995000Y-126682000D03*
X86995000Y-124142000D03*
X86995000Y-121602000D03*
X86995000Y-119062000D03*
X86995000Y-116522000D03*
D11*
X86995000Y-88582000D03*
D10*
X86995000Y-91122000D03*
X86995000Y-93662000D03*
X86995000Y-96202000D03*
X86995000Y-98742000D03*
X86995000Y-101282000D03*
X86995000Y-103822000D03*
X86995000Y-106362000D03*
X86995000Y-113982000D03*
X86995000Y-111442000D03*
X86995000Y-108902000D03*
%TD*%
%TO.C,KP1*%
G36*
G01*
X299653286Y-111298909D02*
X299692734Y-110720252D01*
G75*
G02*
X301078144Y-109511682I1296990J-88420D01*
G01*
X301078144Y-109511682D01*
G75*
G02*
X302286714Y-110897092I-88420J-1296990D01*
G01*
X302247266Y-111475748D01*
G75*
G02*
X300861856Y-112684318I-1296990J88420D01*
G01*
X300861856Y-112684318D01*
G75*
G02*
X299653286Y-111298908I88420J1296990D01*
G01*
G37*
G36*
G01*
X293494129Y-112618326D02*
X294703053Y-110720696D01*
G75*
G02*
X296497951Y-110322776I1096409J-698489D01*
G01*
X296497951Y-110322776D01*
G75*
G02*
X296895871Y-112117674I-698489J-1096409D01*
G01*
X295686947Y-114015304D01*
G75*
G02*
X293892049Y-114413224I-1096409J698489D01*
G01*
X293892049Y-114413224D01*
G75*
G02*
X293494129Y-112618326I698489J1096409D01*
G01*
G37*
%TD*%
%TO.C,KRFn1*%
G36*
G01*
X366328286Y-149398909D02*
X366367734Y-148820252D01*
G75*
G02*
X367753144Y-147611682I1296990J-88420D01*
G01*
X367753144Y-147611682D01*
G75*
G02*
X368961714Y-148997092I-88420J-1296990D01*
G01*
X368922266Y-149575748D01*
G75*
G02*
X367536856Y-150784318I-1296990J88420D01*
G01*
X367536856Y-150784318D01*
G75*
G02*
X366328286Y-149398908I88420J1296990D01*
G01*
G37*
G36*
G01*
X360169129Y-150718326D02*
X361378053Y-148820696D01*
G75*
G02*
X363172951Y-148422776I1096409J-698489D01*
G01*
X363172951Y-148422776D01*
G75*
G02*
X363570871Y-150217674I-698489J-1096409D01*
G01*
X362361947Y-152115304D01*
G75*
G02*
X360567049Y-152513224I-1096409J698489D01*
G01*
X360567049Y-152513224D01*
G75*
G02*
X360169129Y-150718326I698489J1096409D01*
G01*
G37*
%TD*%
%TO.C,KLFn1*%
G36*
G01*
X166303286Y-168448909D02*
X166342734Y-167870252D01*
G75*
G02*
X167728144Y-166661682I1296990J-88420D01*
G01*
X167728144Y-166661682D01*
G75*
G02*
X168936714Y-168047092I-88420J-1296990D01*
G01*
X168897266Y-168625748D01*
G75*
G02*
X167511856Y-169834318I-1296990J88420D01*
G01*
X167511856Y-169834318D01*
G75*
G02*
X166303286Y-168448908I88420J1296990D01*
G01*
G37*
G36*
G01*
X160144129Y-169768326D02*
X161353053Y-167870696D01*
G75*
G02*
X163147951Y-167472776I1096409J-698489D01*
G01*
X163147951Y-167472776D01*
G75*
G02*
X163545871Y-169267674I-698489J-1096409D01*
G01*
X162336947Y-171165304D01*
G75*
G02*
X160542049Y-171563224I-1096409J698489D01*
G01*
X160542049Y-171563224D01*
G75*
G02*
X160144129Y-169768326I698489J1096409D01*
G01*
G37*
%TD*%
%TO.C,DRFn1*%
X369025000Y-163512000D03*
D11*
X361225000Y-163512000D03*
%TD*%
D10*
%TO.C,DLFn1*%
X169000000Y-182562000D03*
D11*
X161200000Y-182562000D03*
%TD*%
%TO.C,KW1*%
G36*
G01*
X147253286Y-111298909D02*
X147292734Y-110720252D01*
G75*
G02*
X148678144Y-109511682I1296990J-88420D01*
G01*
X148678144Y-109511682D01*
G75*
G02*
X149886714Y-110897092I-88420J-1296990D01*
G01*
X149847266Y-111475748D01*
G75*
G02*
X148461856Y-112684318I-1296990J88420D01*
G01*
X148461856Y-112684318D01*
G75*
G02*
X147253286Y-111298908I88420J1296990D01*
G01*
G37*
G36*
G01*
X141094129Y-112618326D02*
X142303053Y-110720696D01*
G75*
G02*
X144097951Y-110322776I1096409J-698489D01*
G01*
X144097951Y-110322776D01*
G75*
G02*
X144495871Y-112117674I-698489J-1096409D01*
G01*
X143286947Y-114015304D01*
G75*
G02*
X141492049Y-114413224I-1096409J698489D01*
G01*
X141492049Y-114413224D01*
G75*
G02*
X141094129Y-112618326I698489J1096409D01*
G01*
G37*
%TD*%
%TO.C,KZ1*%
G36*
G01*
X142491286Y-149398909D02*
X142530734Y-148820252D01*
G75*
G02*
X143916144Y-147611682I1296990J-88420D01*
G01*
X143916144Y-147611682D01*
G75*
G02*
X145124714Y-148997092I-88420J-1296990D01*
G01*
X145085266Y-149575748D01*
G75*
G02*
X143699856Y-150784318I-1296990J88420D01*
G01*
X143699856Y-150784318D01*
G75*
G02*
X142491286Y-149398908I88420J1296990D01*
G01*
G37*
G36*
G01*
X136332129Y-150718326D02*
X137541053Y-148820696D01*
G75*
G02*
X139335951Y-148422776I1096409J-698489D01*
G01*
X139335951Y-148422776D01*
G75*
G02*
X139733871Y-150217674I-698489J-1096409D01*
G01*
X138524947Y-152115304D01*
G75*
G02*
X136730049Y-152513224I-1096409J698489D01*
G01*
X136730049Y-152513224D01*
G75*
G02*
X136332129Y-150718326I698489J1096409D01*
G01*
G37*
%TD*%
%TO.C,KY1*%
G36*
G01*
X223453286Y-111298909D02*
X223492734Y-110720252D01*
G75*
G02*
X224878144Y-109511682I1296990J-88420D01*
G01*
X224878144Y-109511682D01*
G75*
G02*
X226086714Y-110897092I-88420J-1296990D01*
G01*
X226047266Y-111475748D01*
G75*
G02*
X224661856Y-112684318I-1296990J88420D01*
G01*
X224661856Y-112684318D01*
G75*
G02*
X223453286Y-111298908I88420J1296990D01*
G01*
G37*
G36*
G01*
X217294129Y-112618326D02*
X218503053Y-110720696D01*
G75*
G02*
X220297951Y-110322776I1096409J-698489D01*
G01*
X220297951Y-110322776D01*
G75*
G02*
X220695871Y-112117674I-698489J-1096409D01*
G01*
X219486947Y-114015304D01*
G75*
G02*
X217692049Y-114413224I-1096409J698489D01*
G01*
X217692049Y-114413224D01*
G75*
G02*
X217294129Y-112618326I698489J1096409D01*
G01*
G37*
%TD*%
%TO.C,KX1*%
G36*
G01*
X161541286Y-149398909D02*
X161580734Y-148820252D01*
G75*
G02*
X162966144Y-147611682I1296990J-88420D01*
G01*
X162966144Y-147611682D01*
G75*
G02*
X164174714Y-148997092I-88420J-1296990D01*
G01*
X164135266Y-149575748D01*
G75*
G02*
X162749856Y-150784318I-1296990J88420D01*
G01*
X162749856Y-150784318D01*
G75*
G02*
X161541286Y-149398908I88420J1296990D01*
G01*
G37*
G36*
G01*
X155382129Y-150718326D02*
X156591053Y-148820696D01*
G75*
G02*
X158385951Y-148422776I1096409J-698489D01*
G01*
X158385951Y-148422776D01*
G75*
G02*
X158783871Y-150217674I-698489J-1096409D01*
G01*
X157574947Y-152115304D01*
G75*
G02*
X155780049Y-152513224I-1096409J698489D01*
G01*
X155780049Y-152513224D01*
G75*
G02*
X155382129Y-150718326I698489J1096409D01*
G01*
G37*
%TD*%
%TO.C,KV1*%
G36*
G01*
X199641286Y-149398909D02*
X199680734Y-148820252D01*
G75*
G02*
X201066144Y-147611682I1296990J-88420D01*
G01*
X201066144Y-147611682D01*
G75*
G02*
X202274714Y-148997092I-88420J-1296990D01*
G01*
X202235266Y-149575748D01*
G75*
G02*
X200849856Y-150784318I-1296990J88420D01*
G01*
X200849856Y-150784318D01*
G75*
G02*
X199641286Y-149398908I88420J1296990D01*
G01*
G37*
G36*
G01*
X193482129Y-150718326D02*
X194691053Y-148820696D01*
G75*
G02*
X196485951Y-148422776I1096409J-698489D01*
G01*
X196485951Y-148422776D01*
G75*
G02*
X196883871Y-150217674I-698489J-1096409D01*
G01*
X195674947Y-152115304D01*
G75*
G02*
X193880049Y-152513224I-1096409J698489D01*
G01*
X193880049Y-152513224D01*
G75*
G02*
X193482129Y-150718326I698489J1096409D01*
G01*
G37*
%TD*%
%TO.C,KUp1*%
G36*
G01*
X318703286Y-168448909D02*
X318742734Y-167870252D01*
G75*
G02*
X320128144Y-166661682I1296990J-88420D01*
G01*
X320128144Y-166661682D01*
G75*
G02*
X321336714Y-168047092I-88420J-1296990D01*
G01*
X321297266Y-168625748D01*
G75*
G02*
X319911856Y-169834318I-1296990J88420D01*
G01*
X319911856Y-169834318D01*
G75*
G02*
X318703286Y-168448908I88420J1296990D01*
G01*
G37*
G36*
G01*
X312544129Y-169768326D02*
X313753053Y-167870696D01*
G75*
G02*
X315547951Y-167472776I1096409J-698489D01*
G01*
X315547951Y-167472776D01*
G75*
G02*
X315945871Y-169267674I-698489J-1096409D01*
G01*
X314736947Y-171165304D01*
G75*
G02*
X312942049Y-171563224I-1096409J698489D01*
G01*
X312942049Y-171563224D01*
G75*
G02*
X312544129Y-169768326I698489J1096409D01*
G01*
G37*
%TD*%
%TO.C,KU1*%
G36*
G01*
X242503286Y-111298909D02*
X242542734Y-110720252D01*
G75*
G02*
X243928144Y-109511682I1296990J-88420D01*
G01*
X243928144Y-109511682D01*
G75*
G02*
X245136714Y-110897092I-88420J-1296990D01*
G01*
X245097266Y-111475748D01*
G75*
G02*
X243711856Y-112684318I-1296990J88420D01*
G01*
X243711856Y-112684318D01*
G75*
G02*
X242503286Y-111298908I88420J1296990D01*
G01*
G37*
G36*
G01*
X236344129Y-112618326D02*
X237553053Y-110720696D01*
G75*
G02*
X239347951Y-110322776I1096409J-698489D01*
G01*
X239347951Y-110322776D01*
G75*
G02*
X239745871Y-112117674I-698489J-1096409D01*
G01*
X238536947Y-114015304D01*
G75*
G02*
X236742049Y-114413224I-1096409J698489D01*
G01*
X236742049Y-114413224D01*
G75*
G02*
X236344129Y-112618326I698489J1096409D01*
G01*
G37*
%TD*%
%TO.C,Ktil1*%
G36*
G01*
X366328286Y-92248409D02*
X366367734Y-91669752D01*
G75*
G02*
X367753144Y-90461182I1296990J-88420D01*
G01*
X367753144Y-90461182D01*
G75*
G02*
X368961714Y-91846592I-88420J-1296990D01*
G01*
X368922266Y-92425248D01*
G75*
G02*
X367536856Y-93633818I-1296990J88420D01*
G01*
X367536856Y-93633818D01*
G75*
G02*
X366328286Y-92248408I88420J1296990D01*
G01*
G37*
G36*
G01*
X360169129Y-93567826D02*
X361378053Y-91670196D01*
G75*
G02*
X363172951Y-91272276I1096409J-698489D01*
G01*
X363172951Y-91272276D01*
G75*
G02*
X363570871Y-93067174I-698489J-1096409D01*
G01*
X362361947Y-94964804D01*
G75*
G02*
X360567049Y-95362724I-1096409J698489D01*
G01*
X360567049Y-95362724D01*
G75*
G02*
X360169129Y-93567826I698489J1096409D01*
G01*
G37*
%TD*%
%TO.C,KTab1*%
G36*
G01*
X104391286Y-111298909D02*
X104430734Y-110720252D01*
G75*
G02*
X105816144Y-109511682I1296990J-88420D01*
G01*
X105816144Y-109511682D01*
G75*
G02*
X107024714Y-110897092I-88420J-1296990D01*
G01*
X106985266Y-111475748D01*
G75*
G02*
X105599856Y-112684318I-1296990J88420D01*
G01*
X105599856Y-112684318D01*
G75*
G02*
X104391286Y-111298908I88420J1296990D01*
G01*
G37*
G36*
G01*
X98232129Y-112618326D02*
X99441053Y-110720696D01*
G75*
G02*
X101235951Y-110322776I1096409J-698489D01*
G01*
X101235951Y-110322776D01*
G75*
G02*
X101633871Y-112117674I-698489J-1096409D01*
G01*
X100424947Y-114015304D01*
G75*
G02*
X98630049Y-114413224I-1096409J698489D01*
G01*
X98630049Y-114413224D01*
G75*
G02*
X98232129Y-112618326I698489J1096409D01*
G01*
G37*
%TD*%
%TO.C,KT1*%
G36*
G01*
X204403286Y-111298909D02*
X204442734Y-110720252D01*
G75*
G02*
X205828144Y-109511682I1296990J-88420D01*
G01*
X205828144Y-109511682D01*
G75*
G02*
X207036714Y-110897092I-88420J-1296990D01*
G01*
X206997266Y-111475748D01*
G75*
G02*
X205611856Y-112684318I-1296990J88420D01*
G01*
X205611856Y-112684318D01*
G75*
G02*
X204403286Y-111298908I88420J1296990D01*
G01*
G37*
G36*
G01*
X198244129Y-112618326D02*
X199453053Y-110720696D01*
G75*
G02*
X201247951Y-110322776I1096409J-698489D01*
G01*
X201247951Y-110322776D01*
G75*
G02*
X201645871Y-112117674I-698489J-1096409D01*
G01*
X200436947Y-114015304D01*
G75*
G02*
X198642049Y-114413224I-1096409J698489D01*
G01*
X198642049Y-114413224D01*
G75*
G02*
X198244129Y-112618326I698489J1096409D01*
G01*
G37*
%TD*%
%TO.C,KSu1*%
G36*
G01*
X147253286Y-168448909D02*
X147292734Y-167870252D01*
G75*
G02*
X148678144Y-166661682I1296990J-88420D01*
G01*
X148678144Y-166661682D01*
G75*
G02*
X149886714Y-168047092I-88420J-1296990D01*
G01*
X149847266Y-168625748D01*
G75*
G02*
X148461856Y-169834318I-1296990J88420D01*
G01*
X148461856Y-169834318D01*
G75*
G02*
X147253286Y-168448908I88420J1296990D01*
G01*
G37*
G36*
G01*
X141094129Y-169768326D02*
X142303053Y-167870696D01*
G75*
G02*
X144097951Y-167472776I1096409J-698489D01*
G01*
X144097951Y-167472776D01*
G75*
G02*
X144495871Y-169267674I-698489J-1096409D01*
G01*
X143286947Y-171165304D01*
G75*
G02*
X141492049Y-171563224I-1096409J698489D01*
G01*
X141492049Y-171563224D01*
G75*
G02*
X141094129Y-169768326I698489J1096409D01*
G01*
G37*
%TD*%
%TO.C,KS1*%
G36*
G01*
X152015286Y-130348909D02*
X152054734Y-129770252D01*
G75*
G02*
X153440144Y-128561682I1296990J-88420D01*
G01*
X153440144Y-128561682D01*
G75*
G02*
X154648714Y-129947092I-88420J-1296990D01*
G01*
X154609266Y-130525748D01*
G75*
G02*
X153223856Y-131734318I-1296990J88420D01*
G01*
X153223856Y-131734318D01*
G75*
G02*
X152015286Y-130348908I88420J1296990D01*
G01*
G37*
G36*
G01*
X145856129Y-131668326D02*
X147065053Y-129770696D01*
G75*
G02*
X148859951Y-129372776I1096409J-698489D01*
G01*
X148859951Y-129372776D01*
G75*
G02*
X149257871Y-131167674I-698489J-1096409D01*
G01*
X148048947Y-133065304D01*
G75*
G02*
X146254049Y-133463224I-1096409J698489D01*
G01*
X146254049Y-133463224D01*
G75*
G02*
X145856129Y-131668326I698489J1096409D01*
G01*
G37*
%TD*%
%TO.C,KRSu1*%
G36*
G01*
X361565286Y-168448909D02*
X361604734Y-167870252D01*
G75*
G02*
X362990144Y-166661682I1296990J-88420D01*
G01*
X362990144Y-166661682D01*
G75*
G02*
X364198714Y-168047092I-88420J-1296990D01*
G01*
X364159266Y-168625748D01*
G75*
G02*
X362773856Y-169834318I-1296990J88420D01*
G01*
X362773856Y-169834318D01*
G75*
G02*
X361565286Y-168448908I88420J1296990D01*
G01*
G37*
G36*
G01*
X355406129Y-169768326D02*
X356615053Y-167870696D01*
G75*
G02*
X358409951Y-167472776I1096409J-698489D01*
G01*
X358409951Y-167472776D01*
G75*
G02*
X358807871Y-169267674I-698489J-1096409D01*
G01*
X357598947Y-171165304D01*
G75*
G02*
X355804049Y-171563224I-1096409J698489D01*
G01*
X355804049Y-171563224D01*
G75*
G02*
X355406129Y-169768326I698489J1096409D01*
G01*
G37*
%TD*%
%TO.C,KRSpace1*%
G36*
G01*
X249647286Y-168448909D02*
X249686734Y-167870252D01*
G75*
G02*
X251072144Y-166661682I1296990J-88420D01*
G01*
X251072144Y-166661682D01*
G75*
G02*
X252280714Y-168047092I-88420J-1296990D01*
G01*
X252241266Y-168625748D01*
G75*
G02*
X250855856Y-169834318I-1296990J88420D01*
G01*
X250855856Y-169834318D01*
G75*
G02*
X249647286Y-168448908I88420J1296990D01*
G01*
G37*
G36*
G01*
X243488129Y-169768326D02*
X244697053Y-167870696D01*
G75*
G02*
X246491951Y-167472776I1096409J-698489D01*
G01*
X246491951Y-167472776D01*
G75*
G02*
X246889871Y-169267674I-698489J-1096409D01*
G01*
X245680947Y-171165304D01*
G75*
G02*
X243886049Y-171563224I-1096409J698489D01*
G01*
X243886049Y-171563224D01*
G75*
G02*
X243488129Y-169768326I698489J1096409D01*
G01*
G37*
%TD*%
%TO.C,KRShift1*%
G36*
G01*
X340134286Y-149398909D02*
X340173734Y-148820252D01*
G75*
G02*
X341559144Y-147611682I1296990J-88420D01*
G01*
X341559144Y-147611682D01*
G75*
G02*
X342767714Y-148997092I-88420J-1296990D01*
G01*
X342728266Y-149575748D01*
G75*
G02*
X341342856Y-150784318I-1296990J88420D01*
G01*
X341342856Y-150784318D01*
G75*
G02*
X340134286Y-149398908I88420J1296990D01*
G01*
G37*
G36*
G01*
X333975129Y-150718326D02*
X335184053Y-148820696D01*
G75*
G02*
X336978951Y-148422776I1096409J-698489D01*
G01*
X336978951Y-148422776D01*
G75*
G02*
X337376871Y-150217674I-698489J-1096409D01*
G01*
X336167947Y-152115304D01*
G75*
G02*
X334373049Y-152513224I-1096409J698489D01*
G01*
X334373049Y-152513224D01*
G75*
G02*
X333975129Y-150718326I698489J1096409D01*
G01*
G37*
%TD*%
%TO.C,KRight1*%
G36*
G01*
X337753286Y-168448909D02*
X337792734Y-167870252D01*
G75*
G02*
X339178144Y-166661682I1296990J-88420D01*
G01*
X339178144Y-166661682D01*
G75*
G02*
X340386714Y-168047092I-88420J-1296990D01*
G01*
X340347266Y-168625748D01*
G75*
G02*
X338961856Y-169834318I-1296990J88420D01*
G01*
X338961856Y-169834318D01*
G75*
G02*
X337753286Y-168448908I88420J1296990D01*
G01*
G37*
G36*
G01*
X331594129Y-169768326D02*
X332803053Y-167870696D01*
G75*
G02*
X334597951Y-167472776I1096409J-698489D01*
G01*
X334597951Y-167472776D01*
G75*
G02*
X334995871Y-169267674I-698489J-1096409D01*
G01*
X333786947Y-171165304D01*
G75*
G02*
X331992049Y-171563224I-1096409J698489D01*
G01*
X331992049Y-171563224D01*
G75*
G02*
X331594129Y-169768326I698489J1096409D01*
G01*
G37*
%TD*%
%TO.C,KREnter1*%
G36*
G01*
X354422286Y-130348909D02*
X354461734Y-129770252D01*
G75*
G02*
X355847144Y-128561682I1296990J-88420D01*
G01*
X355847144Y-128561682D01*
G75*
G02*
X357055714Y-129947092I-88420J-1296990D01*
G01*
X357016266Y-130525748D01*
G75*
G02*
X355630856Y-131734318I-1296990J88420D01*
G01*
X355630856Y-131734318D01*
G75*
G02*
X354422286Y-130348908I88420J1296990D01*
G01*
G37*
G36*
G01*
X348263129Y-131668326D02*
X349472053Y-129770696D01*
G75*
G02*
X351266951Y-129372776I1096409J-698489D01*
G01*
X351266951Y-129372776D01*
G75*
G02*
X351664871Y-131167674I-698489J-1096409D01*
G01*
X350455947Y-133065304D01*
G75*
G02*
X348661049Y-133463224I-1096409J698489D01*
G01*
X348661049Y-133463224D01*
G75*
G02*
X348263129Y-131668326I698489J1096409D01*
G01*
G37*
%TD*%
%TO.C,KR1*%
G36*
G01*
X185353286Y-111298909D02*
X185392734Y-110720252D01*
G75*
G02*
X186778144Y-109511682I1296990J-88420D01*
G01*
X186778144Y-109511682D01*
G75*
G02*
X187986714Y-110897092I-88420J-1296990D01*
G01*
X187947266Y-111475748D01*
G75*
G02*
X186561856Y-112684318I-1296990J88420D01*
G01*
X186561856Y-112684318D01*
G75*
G02*
X185353286Y-111298908I88420J1296990D01*
G01*
G37*
G36*
G01*
X179194129Y-112618326D02*
X180403053Y-110720696D01*
G75*
G02*
X182197951Y-110322776I1096409J-698489D01*
G01*
X182197951Y-110322776D01*
G75*
G02*
X182595871Y-112117674I-698489J-1096409D01*
G01*
X181386947Y-114015304D01*
G75*
G02*
X179592049Y-114413224I-1096409J698489D01*
G01*
X179592049Y-114413224D01*
G75*
G02*
X179194129Y-112618326I698489J1096409D01*
G01*
G37*
%TD*%
%TO.C,KQ1*%
G36*
G01*
X128203286Y-111298909D02*
X128242734Y-110720252D01*
G75*
G02*
X129628144Y-109511682I1296990J-88420D01*
G01*
X129628144Y-109511682D01*
G75*
G02*
X130836714Y-110897092I-88420J-1296990D01*
G01*
X130797266Y-111475748D01*
G75*
G02*
X129411856Y-112684318I-1296990J88420D01*
G01*
X129411856Y-112684318D01*
G75*
G02*
X128203286Y-111298908I88420J1296990D01*
G01*
G37*
G36*
G01*
X122044129Y-112618326D02*
X123253053Y-110720696D01*
G75*
G02*
X125047951Y-110322776I1096409J-698489D01*
G01*
X125047951Y-110322776D01*
G75*
G02*
X125445871Y-112117674I-698489J-1096409D01*
G01*
X124236947Y-114015304D01*
G75*
G02*
X122442049Y-114413224I-1096409J698489D01*
G01*
X122442049Y-114413224D01*
G75*
G02*
X122044129Y-112618326I698489J1096409D01*
G01*
G37*
%TD*%
%TO.C,KO1*%
G36*
G01*
X280603286Y-111298909D02*
X280642734Y-110720252D01*
G75*
G02*
X282028144Y-109511682I1296990J-88420D01*
G01*
X282028144Y-109511682D01*
G75*
G02*
X283236714Y-110897092I-88420J-1296990D01*
G01*
X283197266Y-111475748D01*
G75*
G02*
X281811856Y-112684318I-1296990J88420D01*
G01*
X281811856Y-112684318D01*
G75*
G02*
X280603286Y-111298908I88420J1296990D01*
G01*
G37*
G36*
G01*
X274444129Y-112618326D02*
X275653053Y-110720696D01*
G75*
G02*
X277447951Y-110322776I1096409J-698489D01*
G01*
X277447951Y-110322776D01*
G75*
G02*
X277845871Y-112117674I-698489J-1096409D01*
G01*
X276636947Y-114015304D01*
G75*
G02*
X274842049Y-114413224I-1096409J698489D01*
G01*
X274842049Y-114413224D01*
G75*
G02*
X274444129Y-112618326I698489J1096409D01*
G01*
G37*
%TD*%
%TO.C,KNumEnter1*%
G36*
G01*
X80578286Y-168448909D02*
X80617734Y-167870252D01*
G75*
G02*
X82003144Y-166661682I1296990J-88420D01*
G01*
X82003144Y-166661682D01*
G75*
G02*
X83211714Y-168047092I-88420J-1296990D01*
G01*
X83172266Y-168625748D01*
G75*
G02*
X81786856Y-169834318I-1296990J88420D01*
G01*
X81786856Y-169834318D01*
G75*
G02*
X80578286Y-168448908I88420J1296990D01*
G01*
G37*
G36*
G01*
X74419129Y-169768326D02*
X75628053Y-167870696D01*
G75*
G02*
X77422951Y-167472776I1096409J-698489D01*
G01*
X77422951Y-167472776D01*
G75*
G02*
X77820871Y-169267674I-698489J-1096409D01*
G01*
X76611947Y-171165304D01*
G75*
G02*
X74817049Y-171563224I-1096409J698489D01*
G01*
X74817049Y-171563224D01*
G75*
G02*
X74419129Y-169768326I698489J1096409D01*
G01*
G37*
%TD*%
%TO.C,KNum/1*%
G36*
G01*
X42478286Y-92248409D02*
X42517734Y-91669752D01*
G75*
G02*
X43903144Y-90461182I1296990J-88420D01*
G01*
X43903144Y-90461182D01*
G75*
G02*
X45111714Y-91846592I-88420J-1296990D01*
G01*
X45072266Y-92425248D01*
G75*
G02*
X43686856Y-93633818I-1296990J88420D01*
G01*
X43686856Y-93633818D01*
G75*
G02*
X42478286Y-92248408I88420J1296990D01*
G01*
G37*
G36*
G01*
X36319129Y-93567826D02*
X37528053Y-91670196D01*
G75*
G02*
X39322951Y-91272276I1096409J-698489D01*
G01*
X39322951Y-91272276D01*
G75*
G02*
X39720871Y-93067174I-698489J-1096409D01*
G01*
X38511947Y-94964804D01*
G75*
G02*
X36717049Y-95362724I-1096409J698489D01*
G01*
X36717049Y-95362724D01*
G75*
G02*
X36319129Y-93567826I698489J1096409D01*
G01*
G37*
%TD*%
%TO.C,KNum-1*%
G36*
G01*
X80578286Y-92248409D02*
X80617734Y-91669752D01*
G75*
G02*
X82003144Y-90461182I1296990J-88420D01*
G01*
X82003144Y-90461182D01*
G75*
G02*
X83211714Y-91846592I-88420J-1296990D01*
G01*
X83172266Y-92425248D01*
G75*
G02*
X81786856Y-93633818I-1296990J88420D01*
G01*
X81786856Y-93633818D01*
G75*
G02*
X80578286Y-92248408I88420J1296990D01*
G01*
G37*
G36*
G01*
X74419129Y-93567826D02*
X75628053Y-91670196D01*
G75*
G02*
X77422951Y-91272276I1096409J-698489D01*
G01*
X77422951Y-91272276D01*
G75*
G02*
X77820871Y-93067174I-698489J-1096409D01*
G01*
X76611947Y-94964804D01*
G75*
G02*
X74817049Y-95362724I-1096409J698489D01*
G01*
X74817049Y-95362724D01*
G75*
G02*
X74419129Y-93567826I698489J1096409D01*
G01*
G37*
%TD*%
%TO.C,KNum\u002A1*%
G36*
G01*
X61528286Y-92248409D02*
X61567734Y-91669752D01*
G75*
G02*
X62953144Y-90461182I1296990J-88420D01*
G01*
X62953144Y-90461182D01*
G75*
G02*
X64161714Y-91846592I-88420J-1296990D01*
G01*
X64122266Y-92425248D01*
G75*
G02*
X62736856Y-93633818I-1296990J88420D01*
G01*
X62736856Y-93633818D01*
G75*
G02*
X61528286Y-92248408I88420J1296990D01*
G01*
G37*
G36*
G01*
X55369129Y-93567826D02*
X56578053Y-91670196D01*
G75*
G02*
X58372951Y-91272276I1096409J-698489D01*
G01*
X58372951Y-91272276D01*
G75*
G02*
X58770871Y-93067174I-698489J-1096409D01*
G01*
X57561947Y-94964804D01*
G75*
G02*
X55767049Y-95362724I-1096409J698489D01*
G01*
X55767049Y-95362724D01*
G75*
G02*
X55369129Y-93567826I698489J1096409D01*
G01*
G37*
%TD*%
%TO.C,KNum9*%
G36*
G01*
X80578286Y-111298909D02*
X80617734Y-110720252D01*
G75*
G02*
X82003144Y-109511682I1296990J-88420D01*
G01*
X82003144Y-109511682D01*
G75*
G02*
X83211714Y-110897092I-88420J-1296990D01*
G01*
X83172266Y-111475748D01*
G75*
G02*
X81786856Y-112684318I-1296990J88420D01*
G01*
X81786856Y-112684318D01*
G75*
G02*
X80578286Y-111298908I88420J1296990D01*
G01*
G37*
G36*
G01*
X74419129Y-112618326D02*
X75628053Y-110720696D01*
G75*
G02*
X77422951Y-110322776I1096409J-698489D01*
G01*
X77422951Y-110322776D01*
G75*
G02*
X77820871Y-112117674I-698489J-1096409D01*
G01*
X76611947Y-114015304D01*
G75*
G02*
X74817049Y-114413224I-1096409J698489D01*
G01*
X74817049Y-114413224D01*
G75*
G02*
X74419129Y-112618326I698489J1096409D01*
G01*
G37*
%TD*%
%TO.C,KNum8*%
G36*
G01*
X61528286Y-111298909D02*
X61567734Y-110720252D01*
G75*
G02*
X62953144Y-109511682I1296990J-88420D01*
G01*
X62953144Y-109511682D01*
G75*
G02*
X64161714Y-110897092I-88420J-1296990D01*
G01*
X64122266Y-111475748D01*
G75*
G02*
X62736856Y-112684318I-1296990J88420D01*
G01*
X62736856Y-112684318D01*
G75*
G02*
X61528286Y-111298908I88420J1296990D01*
G01*
G37*
G36*
G01*
X55369129Y-112618326D02*
X56578053Y-110720696D01*
G75*
G02*
X58372951Y-110322776I1096409J-698489D01*
G01*
X58372951Y-110322776D01*
G75*
G02*
X58770871Y-112117674I-698489J-1096409D01*
G01*
X57561947Y-114015304D01*
G75*
G02*
X55767049Y-114413224I-1096409J698489D01*
G01*
X55767049Y-114413224D01*
G75*
G02*
X55369129Y-112618326I698489J1096409D01*
G01*
G37*
%TD*%
%TO.C,KNum7*%
G36*
G01*
X42478286Y-111298909D02*
X42517734Y-110720252D01*
G75*
G02*
X43903144Y-109511682I1296990J-88420D01*
G01*
X43903144Y-109511682D01*
G75*
G02*
X45111714Y-110897092I-88420J-1296990D01*
G01*
X45072266Y-111475748D01*
G75*
G02*
X43686856Y-112684318I-1296990J88420D01*
G01*
X43686856Y-112684318D01*
G75*
G02*
X42478286Y-111298908I88420J1296990D01*
G01*
G37*
G36*
G01*
X36319129Y-112618326D02*
X37528053Y-110720696D01*
G75*
G02*
X39322951Y-110322776I1096409J-698489D01*
G01*
X39322951Y-110322776D01*
G75*
G02*
X39720871Y-112117674I-698489J-1096409D01*
G01*
X38511947Y-114015304D01*
G75*
G02*
X36717049Y-114413224I-1096409J698489D01*
G01*
X36717049Y-114413224D01*
G75*
G02*
X36319129Y-112618326I698489J1096409D01*
G01*
G37*
%TD*%
%TO.C,KNum6*%
G36*
G01*
X80578286Y-130348909D02*
X80617734Y-129770252D01*
G75*
G02*
X82003144Y-128561682I1296990J-88420D01*
G01*
X82003144Y-128561682D01*
G75*
G02*
X83211714Y-129947092I-88420J-1296990D01*
G01*
X83172266Y-130525748D01*
G75*
G02*
X81786856Y-131734318I-1296990J88420D01*
G01*
X81786856Y-131734318D01*
G75*
G02*
X80578286Y-130348908I88420J1296990D01*
G01*
G37*
G36*
G01*
X74419129Y-131668326D02*
X75628053Y-129770696D01*
G75*
G02*
X77422951Y-129372776I1096409J-698489D01*
G01*
X77422951Y-129372776D01*
G75*
G02*
X77820871Y-131167674I-698489J-1096409D01*
G01*
X76611947Y-133065304D01*
G75*
G02*
X74817049Y-133463224I-1096409J698489D01*
G01*
X74817049Y-133463224D01*
G75*
G02*
X74419129Y-131668326I698489J1096409D01*
G01*
G37*
%TD*%
%TO.C,KNum5*%
G36*
G01*
X61528286Y-130348909D02*
X61567734Y-129770252D01*
G75*
G02*
X62953144Y-128561682I1296990J-88420D01*
G01*
X62953144Y-128561682D01*
G75*
G02*
X64161714Y-129947092I-88420J-1296990D01*
G01*
X64122266Y-130525748D01*
G75*
G02*
X62736856Y-131734318I-1296990J88420D01*
G01*
X62736856Y-131734318D01*
G75*
G02*
X61528286Y-130348908I88420J1296990D01*
G01*
G37*
G36*
G01*
X55369129Y-131668326D02*
X56578053Y-129770696D01*
G75*
G02*
X58372951Y-129372776I1096409J-698489D01*
G01*
X58372951Y-129372776D01*
G75*
G02*
X58770871Y-131167674I-698489J-1096409D01*
G01*
X57561947Y-133065304D01*
G75*
G02*
X55767049Y-133463224I-1096409J698489D01*
G01*
X55767049Y-133463224D01*
G75*
G02*
X55369129Y-131668326I698489J1096409D01*
G01*
G37*
%TD*%
%TO.C,KNum4*%
G36*
G01*
X42478286Y-130348909D02*
X42517734Y-129770252D01*
G75*
G02*
X43903144Y-128561682I1296990J-88420D01*
G01*
X43903144Y-128561682D01*
G75*
G02*
X45111714Y-129947092I-88420J-1296990D01*
G01*
X45072266Y-130525748D01*
G75*
G02*
X43686856Y-131734318I-1296990J88420D01*
G01*
X43686856Y-131734318D01*
G75*
G02*
X42478286Y-130348908I88420J1296990D01*
G01*
G37*
G36*
G01*
X36319129Y-131668326D02*
X37528053Y-129770696D01*
G75*
G02*
X39322951Y-129372776I1096409J-698489D01*
G01*
X39322951Y-129372776D01*
G75*
G02*
X39720871Y-131167674I-698489J-1096409D01*
G01*
X38511947Y-133065304D01*
G75*
G02*
X36717049Y-133463224I-1096409J698489D01*
G01*
X36717049Y-133463224D01*
G75*
G02*
X36319129Y-131668326I698489J1096409D01*
G01*
G37*
%TD*%
%TO.C,KNum3*%
G36*
G01*
X80578286Y-149398909D02*
X80617734Y-148820252D01*
G75*
G02*
X82003144Y-147611682I1296990J-88420D01*
G01*
X82003144Y-147611682D01*
G75*
G02*
X83211714Y-148997092I-88420J-1296990D01*
G01*
X83172266Y-149575748D01*
G75*
G02*
X81786856Y-150784318I-1296990J88420D01*
G01*
X81786856Y-150784318D01*
G75*
G02*
X80578286Y-149398908I88420J1296990D01*
G01*
G37*
G36*
G01*
X74419129Y-150718326D02*
X75628053Y-148820696D01*
G75*
G02*
X77422951Y-148422776I1096409J-698489D01*
G01*
X77422951Y-148422776D01*
G75*
G02*
X77820871Y-150217674I-698489J-1096409D01*
G01*
X76611947Y-152115304D01*
G75*
G02*
X74817049Y-152513224I-1096409J698489D01*
G01*
X74817049Y-152513224D01*
G75*
G02*
X74419129Y-150718326I698489J1096409D01*
G01*
G37*
%TD*%
%TO.C,KNum2*%
G36*
G01*
X61528286Y-149398909D02*
X61567734Y-148820252D01*
G75*
G02*
X62953144Y-147611682I1296990J-88420D01*
G01*
X62953144Y-147611682D01*
G75*
G02*
X64161714Y-148997092I-88420J-1296990D01*
G01*
X64122266Y-149575748D01*
G75*
G02*
X62736856Y-150784318I-1296990J88420D01*
G01*
X62736856Y-150784318D01*
G75*
G02*
X61528286Y-149398908I88420J1296990D01*
G01*
G37*
G36*
G01*
X55369129Y-150718326D02*
X56578053Y-148820696D01*
G75*
G02*
X58372951Y-148422776I1096409J-698489D01*
G01*
X58372951Y-148422776D01*
G75*
G02*
X58770871Y-150217674I-698489J-1096409D01*
G01*
X57561947Y-152115304D01*
G75*
G02*
X55767049Y-152513224I-1096409J698489D01*
G01*
X55767049Y-152513224D01*
G75*
G02*
X55369129Y-150718326I698489J1096409D01*
G01*
G37*
%TD*%
%TO.C,KNum1*%
G36*
G01*
X42478286Y-149398909D02*
X42517734Y-148820252D01*
G75*
G02*
X43903144Y-147611682I1296990J-88420D01*
G01*
X43903144Y-147611682D01*
G75*
G02*
X45111714Y-148997092I-88420J-1296990D01*
G01*
X45072266Y-149575748D01*
G75*
G02*
X43686856Y-150784318I-1296990J88420D01*
G01*
X43686856Y-150784318D01*
G75*
G02*
X42478286Y-149398908I88420J1296990D01*
G01*
G37*
G36*
G01*
X36319129Y-150718326D02*
X37528053Y-148820696D01*
G75*
G02*
X39322951Y-148422776I1096409J-698489D01*
G01*
X39322951Y-148422776D01*
G75*
G02*
X39720871Y-150217674I-698489J-1096409D01*
G01*
X38511947Y-152115304D01*
G75*
G02*
X36717049Y-152513224I-1096409J698489D01*
G01*
X36717049Y-152513224D01*
G75*
G02*
X36319129Y-150718326I698489J1096409D01*
G01*
G37*
%TD*%
%TO.C,KNum0*%
G36*
G01*
X42478286Y-168448909D02*
X42517734Y-167870252D01*
G75*
G02*
X43903144Y-166661682I1296990J-88420D01*
G01*
X43903144Y-166661682D01*
G75*
G02*
X45111714Y-168047092I-88420J-1296990D01*
G01*
X45072266Y-168625748D01*
G75*
G02*
X43686856Y-169834318I-1296990J88420D01*
G01*
X43686856Y-169834318D01*
G75*
G02*
X42478286Y-168448908I88420J1296990D01*
G01*
G37*
G36*
G01*
X36319129Y-169768326D02*
X37528053Y-167870696D01*
G75*
G02*
X39322951Y-167472776I1096409J-698489D01*
G01*
X39322951Y-167472776D01*
G75*
G02*
X39720871Y-169267674I-698489J-1096409D01*
G01*
X38511947Y-171165304D01*
G75*
G02*
X36717049Y-171563224I-1096409J698489D01*
G01*
X36717049Y-171563224D01*
G75*
G02*
X36319129Y-169768326I698489J1096409D01*
G01*
G37*
%TD*%
%TO.C,KNum.1*%
G36*
G01*
X61528286Y-168448909D02*
X61567734Y-167870252D01*
G75*
G02*
X62953144Y-166661682I1296990J-88420D01*
G01*
X62953144Y-166661682D01*
G75*
G02*
X64161714Y-168047092I-88420J-1296990D01*
G01*
X64122266Y-168625748D01*
G75*
G02*
X62736856Y-169834318I-1296990J88420D01*
G01*
X62736856Y-169834318D01*
G75*
G02*
X61528286Y-168448908I88420J1296990D01*
G01*
G37*
G36*
G01*
X55369129Y-169768326D02*
X56578053Y-167870696D01*
G75*
G02*
X58372951Y-167472776I1096409J-698489D01*
G01*
X58372951Y-167472776D01*
G75*
G02*
X58770871Y-169267674I-698489J-1096409D01*
G01*
X57561947Y-171165304D01*
G75*
G02*
X55767049Y-171563224I-1096409J698489D01*
G01*
X55767049Y-171563224D01*
G75*
G02*
X55369129Y-169768326I698489J1096409D01*
G01*
G37*
%TD*%
%TO.C,KN1*%
G36*
G01*
X237741286Y-149398909D02*
X237780734Y-148820252D01*
G75*
G02*
X239166144Y-147611682I1296990J-88420D01*
G01*
X239166144Y-147611682D01*
G75*
G02*
X240374714Y-148997092I-88420J-1296990D01*
G01*
X240335266Y-149575748D01*
G75*
G02*
X238949856Y-150784318I-1296990J88420D01*
G01*
X238949856Y-150784318D01*
G75*
G02*
X237741286Y-149398908I88420J1296990D01*
G01*
G37*
G36*
G01*
X231582129Y-150718326D02*
X232791053Y-148820696D01*
G75*
G02*
X234585951Y-148422776I1096409J-698489D01*
G01*
X234585951Y-148422776D01*
G75*
G02*
X234983871Y-150217674I-698489J-1096409D01*
G01*
X233774947Y-152115304D01*
G75*
G02*
X231980049Y-152513224I-1096409J698489D01*
G01*
X231980049Y-152513224D01*
G75*
G02*
X231582129Y-150718326I698489J1096409D01*
G01*
G37*
%TD*%
%TO.C,KM1*%
G36*
G01*
X256791286Y-149398909D02*
X256830734Y-148820252D01*
G75*
G02*
X258216144Y-147611682I1296990J-88420D01*
G01*
X258216144Y-147611682D01*
G75*
G02*
X259424714Y-148997092I-88420J-1296990D01*
G01*
X259385266Y-149575748D01*
G75*
G02*
X257999856Y-150784318I-1296990J88420D01*
G01*
X257999856Y-150784318D01*
G75*
G02*
X256791286Y-149398908I88420J1296990D01*
G01*
G37*
G36*
G01*
X250632129Y-150718326D02*
X251841053Y-148820696D01*
G75*
G02*
X253635951Y-148422776I1096409J-698489D01*
G01*
X253635951Y-148422776D01*
G75*
G02*
X254033871Y-150217674I-698489J-1096409D01*
G01*
X252824947Y-152115304D01*
G75*
G02*
X251030049Y-152513224I-1096409J698489D01*
G01*
X251030049Y-152513224D01*
G75*
G02*
X250632129Y-150718326I698489J1096409D01*
G01*
G37*
%TD*%
%TO.C,KLSpace1*%
G36*
G01*
X202022286Y-168448909D02*
X202061734Y-167870252D01*
G75*
G02*
X203447144Y-166661682I1296990J-88420D01*
G01*
X203447144Y-166661682D01*
G75*
G02*
X204655714Y-168047092I-88420J-1296990D01*
G01*
X204616266Y-168625748D01*
G75*
G02*
X203230856Y-169834318I-1296990J88420D01*
G01*
X203230856Y-169834318D01*
G75*
G02*
X202022286Y-168448908I88420J1296990D01*
G01*
G37*
G36*
G01*
X195863129Y-169768326D02*
X197072053Y-167870696D01*
G75*
G02*
X198866951Y-167472776I1096409J-698489D01*
G01*
X198866951Y-167472776D01*
G75*
G02*
X199264871Y-169267674I-698489J-1096409D01*
G01*
X198055947Y-171165304D01*
G75*
G02*
X196261049Y-171563224I-1096409J698489D01*
G01*
X196261049Y-171563224D01*
G75*
G02*
X195863129Y-169768326I698489J1096409D01*
G01*
G37*
%TD*%
%TO.C,KLShift1*%
G36*
G01*
X111534286Y-149398909D02*
X111573734Y-148820252D01*
G75*
G02*
X112959144Y-147611682I1296990J-88420D01*
G01*
X112959144Y-147611682D01*
G75*
G02*
X114167714Y-148997092I-88420J-1296990D01*
G01*
X114128266Y-149575748D01*
G75*
G02*
X112742856Y-150784318I-1296990J88420D01*
G01*
X112742856Y-150784318D01*
G75*
G02*
X111534286Y-149398908I88420J1296990D01*
G01*
G37*
G36*
G01*
X105375129Y-150718326D02*
X106584053Y-148820696D01*
G75*
G02*
X108378951Y-148422776I1096409J-698489D01*
G01*
X108378951Y-148422776D01*
G75*
G02*
X108776871Y-150217674I-698489J-1096409D01*
G01*
X107567947Y-152115304D01*
G75*
G02*
X105773049Y-152513224I-1096409J698489D01*
G01*
X105773049Y-152513224D01*
G75*
G02*
X105375129Y-150718326I698489J1096409D01*
G01*
G37*
%TD*%
%TO.C,KLOpt1*%
G36*
G01*
X102009286Y-168448909D02*
X102048734Y-167870252D01*
G75*
G02*
X103434144Y-166661682I1296990J-88420D01*
G01*
X103434144Y-166661682D01*
G75*
G02*
X104642714Y-168047092I-88420J-1296990D01*
G01*
X104603266Y-168625748D01*
G75*
G02*
X103217856Y-169834318I-1296990J88420D01*
G01*
X103217856Y-169834318D01*
G75*
G02*
X102009286Y-168448908I88420J1296990D01*
G01*
G37*
G36*
G01*
X95850129Y-169768326D02*
X97059053Y-167870696D01*
G75*
G02*
X98853951Y-167472776I1096409J-698489D01*
G01*
X98853951Y-167472776D01*
G75*
G02*
X99251871Y-169267674I-698489J-1096409D01*
G01*
X98042947Y-171165304D01*
G75*
G02*
X96248049Y-171563224I-1096409J698489D01*
G01*
X96248049Y-171563224D01*
G75*
G02*
X95850129Y-169768326I698489J1096409D01*
G01*
G37*
%TD*%
%TO.C,KLeft1*%
G36*
G01*
X280603286Y-168448909D02*
X280642734Y-167870252D01*
G75*
G02*
X282028144Y-166661682I1296990J-88420D01*
G01*
X282028144Y-166661682D01*
G75*
G02*
X283236714Y-168047092I-88420J-1296990D01*
G01*
X283197266Y-168625748D01*
G75*
G02*
X281811856Y-169834318I-1296990J88420D01*
G01*
X281811856Y-169834318D01*
G75*
G02*
X280603286Y-168448908I88420J1296990D01*
G01*
G37*
G36*
G01*
X274444129Y-169768326D02*
X275653053Y-167870696D01*
G75*
G02*
X277447951Y-167472776I1096409J-698489D01*
G01*
X277447951Y-167472776D01*
G75*
G02*
X277845871Y-169267674I-698489J-1096409D01*
G01*
X276636947Y-171165304D01*
G75*
G02*
X274842049Y-171563224I-1096409J698489D01*
G01*
X274842049Y-171563224D01*
G75*
G02*
X274444129Y-169768326I698489J1096409D01*
G01*
G37*
%TD*%
%TO.C,KLAlt1*%
G36*
G01*
X125822286Y-168448909D02*
X125861734Y-167870252D01*
G75*
G02*
X127247144Y-166661682I1296990J-88420D01*
G01*
X127247144Y-166661682D01*
G75*
G02*
X128455714Y-168047092I-88420J-1296990D01*
G01*
X128416266Y-168625748D01*
G75*
G02*
X127030856Y-169834318I-1296990J88420D01*
G01*
X127030856Y-169834318D01*
G75*
G02*
X125822286Y-168448908I88420J1296990D01*
G01*
G37*
G36*
G01*
X119663129Y-169768326D02*
X120872053Y-167870696D01*
G75*
G02*
X122666951Y-167472776I1096409J-698489D01*
G01*
X122666951Y-167472776D01*
G75*
G02*
X123064871Y-169267674I-698489J-1096409D01*
G01*
X121855947Y-171165304D01*
G75*
G02*
X120061049Y-171563224I-1096409J698489D01*
G01*
X120061049Y-171563224D01*
G75*
G02*
X119663129Y-169768326I698489J1096409D01*
G01*
G37*
%TD*%
%TO.C,KL1*%
G36*
G01*
X285365286Y-130348909D02*
X285404734Y-129770252D01*
G75*
G02*
X286790144Y-128561682I1296990J-88420D01*
G01*
X286790144Y-128561682D01*
G75*
G02*
X287998714Y-129947092I-88420J-1296990D01*
G01*
X287959266Y-130525748D01*
G75*
G02*
X286573856Y-131734318I-1296990J88420D01*
G01*
X286573856Y-131734318D01*
G75*
G02*
X285365286Y-130348908I88420J1296990D01*
G01*
G37*
G36*
G01*
X279206129Y-131668326D02*
X280415053Y-129770696D01*
G75*
G02*
X282209951Y-129372776I1096409J-698489D01*
G01*
X282209951Y-129372776D01*
G75*
G02*
X282607871Y-131167674I-698489J-1096409D01*
G01*
X281398947Y-133065304D01*
G75*
G02*
X279604049Y-133463224I-1096409J698489D01*
G01*
X279604049Y-133463224D01*
G75*
G02*
X279206129Y-131668326I698489J1096409D01*
G01*
G37*
%TD*%
%TO.C,KK1*%
G36*
G01*
X266315286Y-130348909D02*
X266354734Y-129770252D01*
G75*
G02*
X267740144Y-128561682I1296990J-88420D01*
G01*
X267740144Y-128561682D01*
G75*
G02*
X268948714Y-129947092I-88420J-1296990D01*
G01*
X268909266Y-130525748D01*
G75*
G02*
X267523856Y-131734318I-1296990J88420D01*
G01*
X267523856Y-131734318D01*
G75*
G02*
X266315286Y-130348908I88420J1296990D01*
G01*
G37*
G36*
G01*
X260156129Y-131668326D02*
X261365053Y-129770696D01*
G75*
G02*
X263159951Y-129372776I1096409J-698489D01*
G01*
X263159951Y-129372776D01*
G75*
G02*
X263557871Y-131167674I-698489J-1096409D01*
G01*
X262348947Y-133065304D01*
G75*
G02*
X260554049Y-133463224I-1096409J698489D01*
G01*
X260554049Y-133463224D01*
G75*
G02*
X260156129Y-131668326I698489J1096409D01*
G01*
G37*
%TD*%
%TO.C,KJ1*%
G36*
G01*
X247265286Y-130348909D02*
X247304734Y-129770252D01*
G75*
G02*
X248690144Y-128561682I1296990J-88420D01*
G01*
X248690144Y-128561682D01*
G75*
G02*
X249898714Y-129947092I-88420J-1296990D01*
G01*
X249859266Y-130525748D01*
G75*
G02*
X248473856Y-131734318I-1296990J88420D01*
G01*
X248473856Y-131734318D01*
G75*
G02*
X247265286Y-130348908I88420J1296990D01*
G01*
G37*
G36*
G01*
X241106129Y-131668326D02*
X242315053Y-129770696D01*
G75*
G02*
X244109951Y-129372776I1096409J-698489D01*
G01*
X244109951Y-129372776D01*
G75*
G02*
X244507871Y-131167674I-698489J-1096409D01*
G01*
X243298947Y-133065304D01*
G75*
G02*
X241504049Y-133463224I-1096409J698489D01*
G01*
X241504049Y-133463224D01*
G75*
G02*
X241106129Y-131668326I698489J1096409D01*
G01*
G37*
%TD*%
%TO.C,KI1*%
G36*
G01*
X261553286Y-111298909D02*
X261592734Y-110720252D01*
G75*
G02*
X262978144Y-109511682I1296990J-88420D01*
G01*
X262978144Y-109511682D01*
G75*
G02*
X264186714Y-110897092I-88420J-1296990D01*
G01*
X264147266Y-111475748D01*
G75*
G02*
X262761856Y-112684318I-1296990J88420D01*
G01*
X262761856Y-112684318D01*
G75*
G02*
X261553286Y-111298908I88420J1296990D01*
G01*
G37*
G36*
G01*
X255394129Y-112618326D02*
X256603053Y-110720696D01*
G75*
G02*
X258397951Y-110322776I1096409J-698489D01*
G01*
X258397951Y-110322776D01*
G75*
G02*
X258795871Y-112117674I-698489J-1096409D01*
G01*
X257586947Y-114015304D01*
G75*
G02*
X255792049Y-114413224I-1096409J698489D01*
G01*
X255792049Y-114413224D01*
G75*
G02*
X255394129Y-112618326I698489J1096409D01*
G01*
G37*
%TD*%
%TO.C,KH1*%
G36*
G01*
X228215286Y-130348909D02*
X228254734Y-129770252D01*
G75*
G02*
X229640144Y-128561682I1296990J-88420D01*
G01*
X229640144Y-128561682D01*
G75*
G02*
X230848714Y-129947092I-88420J-1296990D01*
G01*
X230809266Y-130525748D01*
G75*
G02*
X229423856Y-131734318I-1296990J88420D01*
G01*
X229423856Y-131734318D01*
G75*
G02*
X228215286Y-130348908I88420J1296990D01*
G01*
G37*
G36*
G01*
X222056129Y-131668326D02*
X223265053Y-129770696D01*
G75*
G02*
X225059951Y-129372776I1096409J-698489D01*
G01*
X225059951Y-129372776D01*
G75*
G02*
X225457871Y-131167674I-698489J-1096409D01*
G01*
X224248947Y-133065304D01*
G75*
G02*
X222454049Y-133463224I-1096409J698489D01*
G01*
X222454049Y-133463224D01*
G75*
G02*
X222056129Y-131668326I698489J1096409D01*
G01*
G37*
%TD*%
%TO.C,KG1*%
G36*
G01*
X209165286Y-130348909D02*
X209204734Y-129770252D01*
G75*
G02*
X210590144Y-128561682I1296990J-88420D01*
G01*
X210590144Y-128561682D01*
G75*
G02*
X211798714Y-129947092I-88420J-1296990D01*
G01*
X211759266Y-130525748D01*
G75*
G02*
X210373856Y-131734318I-1296990J88420D01*
G01*
X210373856Y-131734318D01*
G75*
G02*
X209165286Y-130348908I88420J1296990D01*
G01*
G37*
G36*
G01*
X203006129Y-131668326D02*
X204215053Y-129770696D01*
G75*
G02*
X206009951Y-129372776I1096409J-698489D01*
G01*
X206009951Y-129372776D01*
G75*
G02*
X206407871Y-131167674I-698489J-1096409D01*
G01*
X205198947Y-133065304D01*
G75*
G02*
X203404049Y-133463224I-1096409J698489D01*
G01*
X203404049Y-133463224D01*
G75*
G02*
X203006129Y-131668326I698489J1096409D01*
G01*
G37*
%TD*%
%TO.C,KF1*%
G36*
G01*
X190115286Y-130348909D02*
X190154734Y-129770252D01*
G75*
G02*
X191540144Y-128561682I1296990J-88420D01*
G01*
X191540144Y-128561682D01*
G75*
G02*
X192748714Y-129947092I-88420J-1296990D01*
G01*
X192709266Y-130525748D01*
G75*
G02*
X191323856Y-131734318I-1296990J88420D01*
G01*
X191323856Y-131734318D01*
G75*
G02*
X190115286Y-130348908I88420J1296990D01*
G01*
G37*
G36*
G01*
X183956129Y-131668326D02*
X185165053Y-129770696D01*
G75*
G02*
X186959951Y-129372776I1096409J-698489D01*
G01*
X186959951Y-129372776D01*
G75*
G02*
X187357871Y-131167674I-698489J-1096409D01*
G01*
X186148947Y-133065304D01*
G75*
G02*
X184354049Y-133463224I-1096409J698489D01*
G01*
X184354049Y-133463224D01*
G75*
G02*
X183956129Y-131668326I698489J1096409D01*
G01*
G37*
%TD*%
%TO.C,KEsc1*%
G36*
G01*
X99628286Y-92248409D02*
X99667734Y-91669752D01*
G75*
G02*
X101053144Y-90461182I1296990J-88420D01*
G01*
X101053144Y-90461182D01*
G75*
G02*
X102261714Y-91846592I-88420J-1296990D01*
G01*
X102222266Y-92425248D01*
G75*
G02*
X100836856Y-93633818I-1296990J88420D01*
G01*
X100836856Y-93633818D01*
G75*
G02*
X99628286Y-92248408I88420J1296990D01*
G01*
G37*
G36*
G01*
X93469129Y-93567826D02*
X94678053Y-91670196D01*
G75*
G02*
X96472951Y-91272276I1096409J-698489D01*
G01*
X96472951Y-91272276D01*
G75*
G02*
X96870871Y-93067174I-698489J-1096409D01*
G01*
X95661947Y-94964804D01*
G75*
G02*
X93867049Y-95362724I-1096409J698489D01*
G01*
X93867049Y-95362724D01*
G75*
G02*
X93469129Y-93567826I698489J1096409D01*
G01*
G37*
%TD*%
%TO.C,KE1*%
G36*
G01*
X166303286Y-111298909D02*
X166342734Y-110720252D01*
G75*
G02*
X167728144Y-109511682I1296990J-88420D01*
G01*
X167728144Y-109511682D01*
G75*
G02*
X168936714Y-110897092I-88420J-1296990D01*
G01*
X168897266Y-111475748D01*
G75*
G02*
X167511856Y-112684318I-1296990J88420D01*
G01*
X167511856Y-112684318D01*
G75*
G02*
X166303286Y-111298908I88420J1296990D01*
G01*
G37*
G36*
G01*
X160144129Y-112618326D02*
X161353053Y-110720696D01*
G75*
G02*
X163147951Y-110322776I1096409J-698489D01*
G01*
X163147951Y-110322776D01*
G75*
G02*
X163545871Y-112117674I-698489J-1096409D01*
G01*
X162336947Y-114015304D01*
G75*
G02*
X160542049Y-114413224I-1096409J698489D01*
G01*
X160542049Y-114413224D01*
G75*
G02*
X160144129Y-112618326I698489J1096409D01*
G01*
G37*
%TD*%
%TO.C,KDown1*%
G36*
G01*
X299653286Y-168448909D02*
X299692734Y-167870252D01*
G75*
G02*
X301078144Y-166661682I1296990J-88420D01*
G01*
X301078144Y-166661682D01*
G75*
G02*
X302286714Y-168047092I-88420J-1296990D01*
G01*
X302247266Y-168625748D01*
G75*
G02*
X300861856Y-169834318I-1296990J88420D01*
G01*
X300861856Y-169834318D01*
G75*
G02*
X299653286Y-168448908I88420J1296990D01*
G01*
G37*
G36*
G01*
X293494129Y-169768326D02*
X294703053Y-167870696D01*
G75*
G02*
X296497951Y-167472776I1096409J-698489D01*
G01*
X296497951Y-167472776D01*
G75*
G02*
X296895871Y-169267674I-698489J-1096409D01*
G01*
X295686947Y-171165304D01*
G75*
G02*
X293892049Y-171563224I-1096409J698489D01*
G01*
X293892049Y-171563224D01*
G75*
G02*
X293494129Y-169768326I698489J1096409D01*
G01*
G37*
%TD*%
%TO.C,KD1*%
G36*
G01*
X171065286Y-130348909D02*
X171104734Y-129770252D01*
G75*
G02*
X172490144Y-128561682I1296990J-88420D01*
G01*
X172490144Y-128561682D01*
G75*
G02*
X173698714Y-129947092I-88420J-1296990D01*
G01*
X173659266Y-130525748D01*
G75*
G02*
X172273856Y-131734318I-1296990J88420D01*
G01*
X172273856Y-131734318D01*
G75*
G02*
X171065286Y-130348908I88420J1296990D01*
G01*
G37*
G36*
G01*
X164906129Y-131668326D02*
X166115053Y-129770696D01*
G75*
G02*
X167909951Y-129372776I1096409J-698489D01*
G01*
X167909951Y-129372776D01*
G75*
G02*
X168307871Y-131167674I-698489J-1096409D01*
G01*
X167098947Y-133065304D01*
G75*
G02*
X165304049Y-133463224I-1096409J698489D01*
G01*
X165304049Y-133463224D01*
G75*
G02*
X164906129Y-131668326I698489J1096409D01*
G01*
G37*
%TD*%
%TO.C,KControl1*%
G36*
G01*
X106772286Y-130348909D02*
X106811734Y-129770252D01*
G75*
G02*
X108197144Y-128561682I1296990J-88420D01*
G01*
X108197144Y-128561682D01*
G75*
G02*
X109405714Y-129947092I-88420J-1296990D01*
G01*
X109366266Y-130525748D01*
G75*
G02*
X107980856Y-131734318I-1296990J88420D01*
G01*
X107980856Y-131734318D01*
G75*
G02*
X106772286Y-130348908I88420J1296990D01*
G01*
G37*
G36*
G01*
X100613129Y-131668326D02*
X101822053Y-129770696D01*
G75*
G02*
X103616951Y-129372776I1096409J-698489D01*
G01*
X103616951Y-129372776D01*
G75*
G02*
X104014871Y-131167674I-698489J-1096409D01*
G01*
X102805947Y-133065304D01*
G75*
G02*
X101011049Y-133463224I-1096409J698489D01*
G01*
X101011049Y-133463224D01*
G75*
G02*
X100613129Y-131668326I698489J1096409D01*
G01*
G37*
%TD*%
%TO.C,KC1*%
G36*
G01*
X180591286Y-149398909D02*
X180630734Y-148820252D01*
G75*
G02*
X182016144Y-147611682I1296990J-88420D01*
G01*
X182016144Y-147611682D01*
G75*
G02*
X183224714Y-148997092I-88420J-1296990D01*
G01*
X183185266Y-149575748D01*
G75*
G02*
X181799856Y-150784318I-1296990J88420D01*
G01*
X181799856Y-150784318D01*
G75*
G02*
X180591286Y-149398908I88420J1296990D01*
G01*
G37*
G36*
G01*
X174432129Y-150718326D02*
X175641053Y-148820696D01*
G75*
G02*
X177435951Y-148422776I1096409J-698489D01*
G01*
X177435951Y-148422776D01*
G75*
G02*
X177833871Y-150217674I-698489J-1096409D01*
G01*
X176624947Y-152115304D01*
G75*
G02*
X174830049Y-152513224I-1096409J698489D01*
G01*
X174830049Y-152513224D01*
G75*
G02*
X174432129Y-150718326I698489J1096409D01*
G01*
G37*
%TD*%
%TO.C,KBkspce1*%
G36*
G01*
X361565286Y-111298909D02*
X361604734Y-110720252D01*
G75*
G02*
X362990144Y-109511682I1296990J-88420D01*
G01*
X362990144Y-109511682D01*
G75*
G02*
X364198714Y-110897092I-88420J-1296990D01*
G01*
X364159266Y-111475748D01*
G75*
G02*
X362773856Y-112684318I-1296990J88420D01*
G01*
X362773856Y-112684318D01*
G75*
G02*
X361565286Y-111298908I88420J1296990D01*
G01*
G37*
G36*
G01*
X355406129Y-112618326D02*
X356615053Y-110720696D01*
G75*
G02*
X358409951Y-110322776I1096409J-698489D01*
G01*
X358409951Y-110322776D01*
G75*
G02*
X358807871Y-112117674I-698489J-1096409D01*
G01*
X357598947Y-114015304D01*
G75*
G02*
X355804049Y-114413224I-1096409J698489D01*
G01*
X355804049Y-114413224D01*
G75*
G02*
X355406129Y-112618326I698489J1096409D01*
G01*
G37*
%TD*%
%TO.C,KB1*%
G36*
G01*
X218691286Y-149398909D02*
X218730734Y-148820252D01*
G75*
G02*
X220116144Y-147611682I1296990J-88420D01*
G01*
X220116144Y-147611682D01*
G75*
G02*
X221324714Y-148997092I-88420J-1296990D01*
G01*
X221285266Y-149575748D01*
G75*
G02*
X219899856Y-150784318I-1296990J88420D01*
G01*
X219899856Y-150784318D01*
G75*
G02*
X218691286Y-149398908I88420J1296990D01*
G01*
G37*
G36*
G01*
X212532129Y-150718326D02*
X213741053Y-148820696D01*
G75*
G02*
X215535951Y-148422776I1096409J-698489D01*
G01*
X215535951Y-148422776D01*
G75*
G02*
X215933871Y-150217674I-698489J-1096409D01*
G01*
X214724947Y-152115304D01*
G75*
G02*
X212930049Y-152513224I-1096409J698489D01*
G01*
X212930049Y-152513224D01*
G75*
G02*
X212532129Y-150718326I698489J1096409D01*
G01*
G37*
%TD*%
%TO.C,KA1*%
G36*
G01*
X132965286Y-130348909D02*
X133004734Y-129770252D01*
G75*
G02*
X134390144Y-128561682I1296990J-88420D01*
G01*
X134390144Y-128561682D01*
G75*
G02*
X135598714Y-129947092I-88420J-1296990D01*
G01*
X135559266Y-130525748D01*
G75*
G02*
X134173856Y-131734318I-1296990J88420D01*
G01*
X134173856Y-131734318D01*
G75*
G02*
X132965286Y-130348908I88420J1296990D01*
G01*
G37*
G36*
G01*
X126806129Y-131668326D02*
X128015053Y-129770696D01*
G75*
G02*
X129809951Y-129372776I1096409J-698489D01*
G01*
X129809951Y-129372776D01*
G75*
G02*
X130207871Y-131167674I-698489J-1096409D01*
G01*
X128998947Y-133065304D01*
G75*
G02*
X127204049Y-133463224I-1096409J698489D01*
G01*
X127204049Y-133463224D01*
G75*
G02*
X126806129Y-131668326I698489J1096409D01*
G01*
G37*
%TD*%
%TO.C,K]1*%
G36*
G01*
X337753286Y-111298909D02*
X337792734Y-110720252D01*
G75*
G02*
X339178144Y-109511682I1296990J-88420D01*
G01*
X339178144Y-109511682D01*
G75*
G02*
X340386714Y-110897092I-88420J-1296990D01*
G01*
X340347266Y-111475748D01*
G75*
G02*
X338961856Y-112684318I-1296990J88420D01*
G01*
X338961856Y-112684318D01*
G75*
G02*
X337753286Y-111298908I88420J1296990D01*
G01*
G37*
G36*
G01*
X331594129Y-112618326D02*
X332803053Y-110720696D01*
G75*
G02*
X334597951Y-110322776I1096409J-698489D01*
G01*
X334597951Y-110322776D01*
G75*
G02*
X334995871Y-112117674I-698489J-1096409D01*
G01*
X333786947Y-114015304D01*
G75*
G02*
X331992049Y-114413224I-1096409J698489D01*
G01*
X331992049Y-114413224D01*
G75*
G02*
X331594129Y-112618326I698489J1096409D01*
G01*
G37*
%TD*%
%TO.C,K\u005C1*%
G36*
G01*
X347278286Y-92248409D02*
X347317734Y-91669752D01*
G75*
G02*
X348703144Y-90461182I1296990J-88420D01*
G01*
X348703144Y-90461182D01*
G75*
G02*
X349911714Y-91846592I-88420J-1296990D01*
G01*
X349872266Y-92425248D01*
G75*
G02*
X348486856Y-93633818I-1296990J88420D01*
G01*
X348486856Y-93633818D01*
G75*
G02*
X347278286Y-92248408I88420J1296990D01*
G01*
G37*
G36*
G01*
X341119129Y-93567826D02*
X342328053Y-91670196D01*
G75*
G02*
X344122951Y-91272276I1096409J-698489D01*
G01*
X344122951Y-91272276D01*
G75*
G02*
X344520871Y-93067174I-698489J-1096409D01*
G01*
X343311947Y-94964804D01*
G75*
G02*
X341517049Y-95362724I-1096409J698489D01*
G01*
X341517049Y-95362724D01*
G75*
G02*
X341119129Y-93567826I698489J1096409D01*
G01*
G37*
%TD*%
%TO.C,K[1*%
G36*
G01*
X318703286Y-111298909D02*
X318742734Y-110720252D01*
G75*
G02*
X320128144Y-109511682I1296990J-88420D01*
G01*
X320128144Y-109511682D01*
G75*
G02*
X321336714Y-110897092I-88420J-1296990D01*
G01*
X321297266Y-111475748D01*
G75*
G02*
X319911856Y-112684318I-1296990J88420D01*
G01*
X319911856Y-112684318D01*
G75*
G02*
X318703286Y-111298908I88420J1296990D01*
G01*
G37*
G36*
G01*
X312544129Y-112618326D02*
X313753053Y-110720696D01*
G75*
G02*
X315547951Y-110322776I1096409J-698489D01*
G01*
X315547951Y-110322776D01*
G75*
G02*
X315945871Y-112117674I-698489J-1096409D01*
G01*
X314736947Y-114015304D01*
G75*
G02*
X312942049Y-114413224I-1096409J698489D01*
G01*
X312942049Y-114413224D01*
G75*
G02*
X312544129Y-112618326I698489J1096409D01*
G01*
G37*
%TD*%
%TO.C,K=1*%
G36*
G01*
X328228286Y-92248409D02*
X328267734Y-91669752D01*
G75*
G02*
X329653144Y-90461182I1296990J-88420D01*
G01*
X329653144Y-90461182D01*
G75*
G02*
X330861714Y-91846592I-88420J-1296990D01*
G01*
X330822266Y-92425248D01*
G75*
G02*
X329436856Y-93633818I-1296990J88420D01*
G01*
X329436856Y-93633818D01*
G75*
G02*
X328228286Y-92248408I88420J1296990D01*
G01*
G37*
G36*
G01*
X322069129Y-93567826D02*
X323278053Y-91670196D01*
G75*
G02*
X325072951Y-91272276I1096409J-698489D01*
G01*
X325072951Y-91272276D01*
G75*
G02*
X325470871Y-93067174I-698489J-1096409D01*
G01*
X324261947Y-94964804D01*
G75*
G02*
X322467049Y-95362724I-1096409J698489D01*
G01*
X322467049Y-95362724D01*
G75*
G02*
X322069129Y-93567826I698489J1096409D01*
G01*
G37*
%TD*%
%TO.C,K;1*%
G36*
G01*
X304415286Y-130348909D02*
X304454734Y-129770252D01*
G75*
G02*
X305840144Y-128561682I1296990J-88420D01*
G01*
X305840144Y-128561682D01*
G75*
G02*
X307048714Y-129947092I-88420J-1296990D01*
G01*
X307009266Y-130525748D01*
G75*
G02*
X305623856Y-131734318I-1296990J88420D01*
G01*
X305623856Y-131734318D01*
G75*
G02*
X304415286Y-130348908I88420J1296990D01*
G01*
G37*
G36*
G01*
X298256129Y-131668326D02*
X299465053Y-129770696D01*
G75*
G02*
X301259951Y-129372776I1096409J-698489D01*
G01*
X301259951Y-129372776D01*
G75*
G02*
X301657871Y-131167674I-698489J-1096409D01*
G01*
X300448947Y-133065304D01*
G75*
G02*
X298654049Y-133463224I-1096409J698489D01*
G01*
X298654049Y-133463224D01*
G75*
G02*
X298256129Y-131668326I698489J1096409D01*
G01*
G37*
%TD*%
%TO.C,K/1*%
G36*
G01*
X313941286Y-149398909D02*
X313980734Y-148820252D01*
G75*
G02*
X315366144Y-147611682I1296990J-88420D01*
G01*
X315366144Y-147611682D01*
G75*
G02*
X316574714Y-148997092I-88420J-1296990D01*
G01*
X316535266Y-149575748D01*
G75*
G02*
X315149856Y-150784318I-1296990J88420D01*
G01*
X315149856Y-150784318D01*
G75*
G02*
X313941286Y-149398908I88420J1296990D01*
G01*
G37*
G36*
G01*
X307782129Y-150718326D02*
X308991053Y-148820696D01*
G75*
G02*
X310785951Y-148422776I1096409J-698489D01*
G01*
X310785951Y-148422776D01*
G75*
G02*
X311183871Y-150217674I-698489J-1096409D01*
G01*
X309974947Y-152115304D01*
G75*
G02*
X308180049Y-152513224I-1096409J698489D01*
G01*
X308180049Y-152513224D01*
G75*
G02*
X307782129Y-150718326I698489J1096409D01*
G01*
G37*
%TD*%
%TO.C,K-1*%
G36*
G01*
X309178286Y-92248409D02*
X309217734Y-91669752D01*
G75*
G02*
X310603144Y-90461182I1296990J-88420D01*
G01*
X310603144Y-90461182D01*
G75*
G02*
X311811714Y-91846592I-88420J-1296990D01*
G01*
X311772266Y-92425248D01*
G75*
G02*
X310386856Y-93633818I-1296990J88420D01*
G01*
X310386856Y-93633818D01*
G75*
G02*
X309178286Y-92248408I88420J1296990D01*
G01*
G37*
G36*
G01*
X303019129Y-93567826D02*
X304228053Y-91670196D01*
G75*
G02*
X306022951Y-91272276I1096409J-698489D01*
G01*
X306022951Y-91272276D01*
G75*
G02*
X306420871Y-93067174I-698489J-1096409D01*
G01*
X305211947Y-94964804D01*
G75*
G02*
X303417049Y-95362724I-1096409J698489D01*
G01*
X303417049Y-95362724D01*
G75*
G02*
X303019129Y-93567826I698489J1096409D01*
G01*
G37*
%TD*%
%TO.C,K'1*%
G36*
G01*
X323465286Y-130348909D02*
X323504734Y-129770252D01*
G75*
G02*
X324890144Y-128561682I1296990J-88420D01*
G01*
X324890144Y-128561682D01*
G75*
G02*
X326098714Y-129947092I-88420J-1296990D01*
G01*
X326059266Y-130525748D01*
G75*
G02*
X324673856Y-131734318I-1296990J88420D01*
G01*
X324673856Y-131734318D01*
G75*
G02*
X323465286Y-130348908I88420J1296990D01*
G01*
G37*
G36*
G01*
X317306129Y-131668326D02*
X318515053Y-129770696D01*
G75*
G02*
X320309951Y-129372776I1096409J-698489D01*
G01*
X320309951Y-129372776D01*
G75*
G02*
X320707871Y-131167674I-698489J-1096409D01*
G01*
X319498947Y-133065304D01*
G75*
G02*
X317704049Y-133463224I-1096409J698489D01*
G01*
X317704049Y-133463224D01*
G75*
G02*
X317306129Y-131668326I698489J1096409D01*
G01*
G37*
%TD*%
%TO.C,K9*%
G36*
G01*
X271078286Y-92248409D02*
X271117734Y-91669752D01*
G75*
G02*
X272503144Y-90461182I1296990J-88420D01*
G01*
X272503144Y-90461182D01*
G75*
G02*
X273711714Y-91846592I-88420J-1296990D01*
G01*
X273672266Y-92425248D01*
G75*
G02*
X272286856Y-93633818I-1296990J88420D01*
G01*
X272286856Y-93633818D01*
G75*
G02*
X271078286Y-92248408I88420J1296990D01*
G01*
G37*
G36*
G01*
X264919129Y-93567826D02*
X266128053Y-91670196D01*
G75*
G02*
X267922951Y-91272276I1096409J-698489D01*
G01*
X267922951Y-91272276D01*
G75*
G02*
X268320871Y-93067174I-698489J-1096409D01*
G01*
X267111947Y-94964804D01*
G75*
G02*
X265317049Y-95362724I-1096409J698489D01*
G01*
X265317049Y-95362724D01*
G75*
G02*
X264919129Y-93567826I698489J1096409D01*
G01*
G37*
%TD*%
%TO.C,K8*%
G36*
G01*
X252028286Y-92248409D02*
X252067734Y-91669752D01*
G75*
G02*
X253453144Y-90461182I1296990J-88420D01*
G01*
X253453144Y-90461182D01*
G75*
G02*
X254661714Y-91846592I-88420J-1296990D01*
G01*
X254622266Y-92425248D01*
G75*
G02*
X253236856Y-93633818I-1296990J88420D01*
G01*
X253236856Y-93633818D01*
G75*
G02*
X252028286Y-92248408I88420J1296990D01*
G01*
G37*
G36*
G01*
X245869129Y-93567826D02*
X247078053Y-91670196D01*
G75*
G02*
X248872951Y-91272276I1096409J-698489D01*
G01*
X248872951Y-91272276D01*
G75*
G02*
X249270871Y-93067174I-698489J-1096409D01*
G01*
X248061947Y-94964804D01*
G75*
G02*
X246267049Y-95362724I-1096409J698489D01*
G01*
X246267049Y-95362724D01*
G75*
G02*
X245869129Y-93567826I698489J1096409D01*
G01*
G37*
%TD*%
%TO.C,K7*%
G36*
G01*
X232978286Y-92248409D02*
X233017734Y-91669752D01*
G75*
G02*
X234403144Y-90461182I1296990J-88420D01*
G01*
X234403144Y-90461182D01*
G75*
G02*
X235611714Y-91846592I-88420J-1296990D01*
G01*
X235572266Y-92425248D01*
G75*
G02*
X234186856Y-93633818I-1296990J88420D01*
G01*
X234186856Y-93633818D01*
G75*
G02*
X232978286Y-92248408I88420J1296990D01*
G01*
G37*
G36*
G01*
X226819129Y-93567826D02*
X228028053Y-91670196D01*
G75*
G02*
X229822951Y-91272276I1096409J-698489D01*
G01*
X229822951Y-91272276D01*
G75*
G02*
X230220871Y-93067174I-698489J-1096409D01*
G01*
X229011947Y-94964804D01*
G75*
G02*
X227217049Y-95362724I-1096409J698489D01*
G01*
X227217049Y-95362724D01*
G75*
G02*
X226819129Y-93567826I698489J1096409D01*
G01*
G37*
%TD*%
%TO.C,K6*%
G36*
G01*
X213928286Y-92248409D02*
X213967734Y-91669752D01*
G75*
G02*
X215353144Y-90461182I1296990J-88420D01*
G01*
X215353144Y-90461182D01*
G75*
G02*
X216561714Y-91846592I-88420J-1296990D01*
G01*
X216522266Y-92425248D01*
G75*
G02*
X215136856Y-93633818I-1296990J88420D01*
G01*
X215136856Y-93633818D01*
G75*
G02*
X213928286Y-92248408I88420J1296990D01*
G01*
G37*
G36*
G01*
X207769129Y-93567826D02*
X208978053Y-91670196D01*
G75*
G02*
X210772951Y-91272276I1096409J-698489D01*
G01*
X210772951Y-91272276D01*
G75*
G02*
X211170871Y-93067174I-698489J-1096409D01*
G01*
X209961947Y-94964804D01*
G75*
G02*
X208167049Y-95362724I-1096409J698489D01*
G01*
X208167049Y-95362724D01*
G75*
G02*
X207769129Y-93567826I698489J1096409D01*
G01*
G37*
%TD*%
%TO.C,K5*%
G36*
G01*
X194878286Y-92248409D02*
X194917734Y-91669752D01*
G75*
G02*
X196303144Y-90461182I1296990J-88420D01*
G01*
X196303144Y-90461182D01*
G75*
G02*
X197511714Y-91846592I-88420J-1296990D01*
G01*
X197472266Y-92425248D01*
G75*
G02*
X196086856Y-93633818I-1296990J88420D01*
G01*
X196086856Y-93633818D01*
G75*
G02*
X194878286Y-92248408I88420J1296990D01*
G01*
G37*
G36*
G01*
X188719129Y-93567826D02*
X189928053Y-91670196D01*
G75*
G02*
X191722951Y-91272276I1096409J-698489D01*
G01*
X191722951Y-91272276D01*
G75*
G02*
X192120871Y-93067174I-698489J-1096409D01*
G01*
X190911947Y-94964804D01*
G75*
G02*
X189117049Y-95362724I-1096409J698489D01*
G01*
X189117049Y-95362724D01*
G75*
G02*
X188719129Y-93567826I698489J1096409D01*
G01*
G37*
%TD*%
%TO.C,K4*%
G36*
G01*
X175828286Y-92248409D02*
X175867734Y-91669752D01*
G75*
G02*
X177253144Y-90461182I1296990J-88420D01*
G01*
X177253144Y-90461182D01*
G75*
G02*
X178461714Y-91846592I-88420J-1296990D01*
G01*
X178422266Y-92425248D01*
G75*
G02*
X177036856Y-93633818I-1296990J88420D01*
G01*
X177036856Y-93633818D01*
G75*
G02*
X175828286Y-92248408I88420J1296990D01*
G01*
G37*
G36*
G01*
X169669129Y-93567826D02*
X170878053Y-91670196D01*
G75*
G02*
X172672951Y-91272276I1096409J-698489D01*
G01*
X172672951Y-91272276D01*
G75*
G02*
X173070871Y-93067174I-698489J-1096409D01*
G01*
X171861947Y-94964804D01*
G75*
G02*
X170067049Y-95362724I-1096409J698489D01*
G01*
X170067049Y-95362724D01*
G75*
G02*
X169669129Y-93567826I698489J1096409D01*
G01*
G37*
%TD*%
%TO.C,K3*%
G36*
G01*
X156778286Y-92248409D02*
X156817734Y-91669752D01*
G75*
G02*
X158203144Y-90461182I1296990J-88420D01*
G01*
X158203144Y-90461182D01*
G75*
G02*
X159411714Y-91846592I-88420J-1296990D01*
G01*
X159372266Y-92425248D01*
G75*
G02*
X157986856Y-93633818I-1296990J88420D01*
G01*
X157986856Y-93633818D01*
G75*
G02*
X156778286Y-92248408I88420J1296990D01*
G01*
G37*
G36*
G01*
X150619129Y-93567826D02*
X151828053Y-91670196D01*
G75*
G02*
X153622951Y-91272276I1096409J-698489D01*
G01*
X153622951Y-91272276D01*
G75*
G02*
X154020871Y-93067174I-698489J-1096409D01*
G01*
X152811947Y-94964804D01*
G75*
G02*
X151017049Y-95362724I-1096409J698489D01*
G01*
X151017049Y-95362724D01*
G75*
G02*
X150619129Y-93567826I698489J1096409D01*
G01*
G37*
%TD*%
%TO.C,K2*%
G36*
G01*
X137728286Y-92248409D02*
X137767734Y-91669752D01*
G75*
G02*
X139153144Y-90461182I1296990J-88420D01*
G01*
X139153144Y-90461182D01*
G75*
G02*
X140361714Y-91846592I-88420J-1296990D01*
G01*
X140322266Y-92425248D01*
G75*
G02*
X138936856Y-93633818I-1296990J88420D01*
G01*
X138936856Y-93633818D01*
G75*
G02*
X137728286Y-92248408I88420J1296990D01*
G01*
G37*
G36*
G01*
X131569129Y-93567826D02*
X132778053Y-91670196D01*
G75*
G02*
X134572951Y-91272276I1096409J-698489D01*
G01*
X134572951Y-91272276D01*
G75*
G02*
X134970871Y-93067174I-698489J-1096409D01*
G01*
X133761947Y-94964804D01*
G75*
G02*
X131967049Y-95362724I-1096409J698489D01*
G01*
X131967049Y-95362724D01*
G75*
G02*
X131569129Y-93567826I698489J1096409D01*
G01*
G37*
%TD*%
%TO.C,K1*%
G36*
G01*
X118678286Y-92248409D02*
X118717734Y-91669752D01*
G75*
G02*
X120103144Y-90461182I1296990J-88420D01*
G01*
X120103144Y-90461182D01*
G75*
G02*
X121311714Y-91846592I-88420J-1296990D01*
G01*
X121272266Y-92425248D01*
G75*
G02*
X119886856Y-93633818I-1296990J88420D01*
G01*
X119886856Y-93633818D01*
G75*
G02*
X118678286Y-92248408I88420J1296990D01*
G01*
G37*
G36*
G01*
X112519129Y-93567826D02*
X113728053Y-91670196D01*
G75*
G02*
X115522951Y-91272276I1096409J-698489D01*
G01*
X115522951Y-91272276D01*
G75*
G02*
X115920871Y-93067174I-698489J-1096409D01*
G01*
X114711947Y-94964804D01*
G75*
G02*
X112917049Y-95362724I-1096409J698489D01*
G01*
X112917049Y-95362724D01*
G75*
G02*
X112519129Y-93567826I698489J1096409D01*
G01*
G37*
%TD*%
%TO.C,K\u002C1*%
G36*
G01*
X275841286Y-149398909D02*
X275880734Y-148820252D01*
G75*
G02*
X277266144Y-147611682I1296990J-88420D01*
G01*
X277266144Y-147611682D01*
G75*
G02*
X278474714Y-148997092I-88420J-1296990D01*
G01*
X278435266Y-149575748D01*
G75*
G02*
X277049856Y-150784318I-1296990J88420D01*
G01*
X277049856Y-150784318D01*
G75*
G02*
X275841286Y-149398908I88420J1296990D01*
G01*
G37*
G36*
G01*
X269682129Y-150718326D02*
X270891053Y-148820696D01*
G75*
G02*
X272685951Y-148422776I1096409J-698489D01*
G01*
X272685951Y-148422776D01*
G75*
G02*
X273083871Y-150217674I-698489J-1096409D01*
G01*
X271874947Y-152115304D01*
G75*
G02*
X270080049Y-152513224I-1096409J698489D01*
G01*
X270080049Y-152513224D01*
G75*
G02*
X269682129Y-150718326I698489J1096409D01*
G01*
G37*
%TD*%
%TO.C,K.1*%
G36*
G01*
X294891286Y-149398909D02*
X294930734Y-148820252D01*
G75*
G02*
X296316144Y-147611682I1296990J-88420D01*
G01*
X296316144Y-147611682D01*
G75*
G02*
X297524714Y-148997092I-88420J-1296990D01*
G01*
X297485266Y-149575748D01*
G75*
G02*
X296099856Y-150784318I-1296990J88420D01*
G01*
X296099856Y-150784318D01*
G75*
G02*
X294891286Y-149398908I88420J1296990D01*
G01*
G37*
G36*
G01*
X288732129Y-150718326D02*
X289941053Y-148820696D01*
G75*
G02*
X291735951Y-148422776I1096409J-698489D01*
G01*
X291735951Y-148422776D01*
G75*
G02*
X292133871Y-150217674I-698489J-1096409D01*
G01*
X290924947Y-152115304D01*
G75*
G02*
X289130049Y-152513224I-1096409J698489D01*
G01*
X289130049Y-152513224D01*
G75*
G02*
X288732129Y-150718326I698489J1096409D01*
G01*
G37*
%TD*%
%TO.C,K0*%
G36*
G01*
X290128286Y-92248409D02*
X290167734Y-91669752D01*
G75*
G02*
X291553144Y-90461182I1296990J-88420D01*
G01*
X291553144Y-90461182D01*
G75*
G02*
X292761714Y-91846592I-88420J-1296990D01*
G01*
X292722266Y-92425248D01*
G75*
G02*
X291336856Y-93633818I-1296990J88420D01*
G01*
X291336856Y-93633818D01*
G75*
G02*
X290128286Y-92248408I88420J1296990D01*
G01*
G37*
G36*
G01*
X283969129Y-93567826D02*
X285178053Y-91670196D01*
G75*
G02*
X286972951Y-91272276I1096409J-698489D01*
G01*
X286972951Y-91272276D01*
G75*
G02*
X287370871Y-93067174I-698489J-1096409D01*
G01*
X286161947Y-94964804D01*
G75*
G02*
X284367049Y-95362724I-1096409J698489D01*
G01*
X284367049Y-95362724D01*
G75*
G02*
X283969129Y-93567826I698489J1096409D01*
G01*
G37*
%TD*%
D10*
%TO.C,DZ1*%
X145188000Y-163512000D03*
D11*
X137388000Y-163512000D03*
%TD*%
D10*
%TO.C,DY1*%
X226150000Y-125412000D03*
D11*
X218350000Y-125412000D03*
%TD*%
D10*
%TO.C,DX1*%
X164238000Y-163512000D03*
D11*
X156438000Y-163512000D03*
%TD*%
D10*
%TO.C,DW1*%
X149950000Y-125412000D03*
D11*
X142150000Y-125412000D03*
%TD*%
D10*
%TO.C,DV1*%
X202338000Y-163512000D03*
D11*
X194538000Y-163512000D03*
%TD*%
D10*
%TO.C,DUp1*%
X321400000Y-182562000D03*
D11*
X313600000Y-182562000D03*
%TD*%
D10*
%TO.C,DU1*%
X245200000Y-125412000D03*
D11*
X237400000Y-125412000D03*
%TD*%
D10*
%TO.C,Dtil1*%
X369025000Y-106362000D03*
D11*
X361225000Y-106362000D03*
%TD*%
D10*
%TO.C,DTab1*%
X107088000Y-125412000D03*
D11*
X99288000Y-125412000D03*
%TD*%
D10*
%TO.C,DT1*%
X207100000Y-125412000D03*
D11*
X199300000Y-125412000D03*
%TD*%
D10*
%TO.C,DSu1*%
X149950000Y-182562000D03*
D11*
X142150000Y-182562000D03*
%TD*%
D10*
%TO.C,DS1*%
X154712000Y-144462000D03*
D11*
X146912000Y-144462000D03*
%TD*%
D10*
%TO.C,DRSu1*%
X364262000Y-182562000D03*
D11*
X356462000Y-182562000D03*
%TD*%
D10*
%TO.C,DRSpace1*%
X252344000Y-182562000D03*
D11*
X244544000Y-182562000D03*
%TD*%
D10*
%TO.C,DRShift1*%
X342831000Y-163512000D03*
D11*
X335031000Y-163512000D03*
%TD*%
D10*
%TO.C,DRight1*%
X340450000Y-182562000D03*
D11*
X332650000Y-182562000D03*
%TD*%
D10*
%TO.C,DREnter1*%
X357119000Y-144462000D03*
D11*
X349319000Y-144462000D03*
%TD*%
D10*
%TO.C,DR1*%
X188050000Y-125412000D03*
D11*
X180250000Y-125412000D03*
%TD*%
D10*
%TO.C,DQ1*%
X130900000Y-125412000D03*
D11*
X123100000Y-125412000D03*
%TD*%
D10*
%TO.C,DP1*%
X302350000Y-125412000D03*
D11*
X294550000Y-125412000D03*
%TD*%
D10*
%TO.C,DO1*%
X283300000Y-125412000D03*
D11*
X275500000Y-125412000D03*
%TD*%
D10*
%TO.C,DNumEnter1*%
X83275000Y-182562000D03*
D11*
X75475000Y-182562000D03*
%TD*%
D10*
%TO.C,DNum/1*%
X50800000Y-92143800D03*
D11*
X50800000Y-99943800D03*
%TD*%
D10*
%TO.C,DNum-1*%
X83275000Y-106362000D03*
D11*
X75475000Y-106362000D03*
%TD*%
D10*
%TO.C,DNum\u002A1*%
X69056200Y-92143800D03*
D11*
X69056200Y-99943800D03*
%TD*%
D10*
%TO.C,DNum9*%
X83275000Y-125412000D03*
D11*
X75475000Y-125412000D03*
%TD*%
D10*
%TO.C,DNum8*%
X64225000Y-125412000D03*
D11*
X56425000Y-125412000D03*
%TD*%
D10*
%TO.C,DNum7*%
X45175000Y-125412000D03*
D11*
X37375000Y-125412000D03*
%TD*%
D10*
%TO.C,DNum6*%
X83275000Y-144462000D03*
D11*
X75475000Y-144462000D03*
%TD*%
D10*
%TO.C,DNum5*%
X64225000Y-144462000D03*
D11*
X56425000Y-144462000D03*
%TD*%
D10*
%TO.C,DNum4*%
X45175000Y-144462000D03*
D11*
X37375000Y-144462000D03*
%TD*%
D10*
%TO.C,DNum3*%
X83275000Y-163512000D03*
D11*
X75475000Y-163512000D03*
%TD*%
D10*
%TO.C,DNum2*%
X64225000Y-163512000D03*
D11*
X56425000Y-163512000D03*
%TD*%
D10*
%TO.C,DNum1*%
X45175000Y-163512000D03*
D11*
X37375000Y-163512000D03*
%TD*%
D10*
%TO.C,DNum0*%
X45175000Y-182562000D03*
D11*
X37375000Y-182562000D03*
%TD*%
D10*
%TO.C,DNum.1*%
X64225000Y-182562000D03*
D11*
X56425000Y-182562000D03*
%TD*%
D10*
%TO.C,DN1*%
X240438000Y-163512000D03*
D11*
X232638000Y-163512000D03*
%TD*%
D10*
%TO.C,DM1*%
X259488000Y-163512000D03*
D11*
X251688000Y-163512000D03*
%TD*%
D10*
%TO.C,DLSpace1*%
X204719000Y-182562000D03*
D11*
X196919000Y-182562000D03*
%TD*%
D10*
%TO.C,DLShift1*%
X114231000Y-163512000D03*
D11*
X106431000Y-163512000D03*
%TD*%
D10*
%TO.C,DLOpt1*%
X104706000Y-182562000D03*
D11*
X96906000Y-182562000D03*
%TD*%
D10*
%TO.C,DLeft1*%
X283300000Y-182562000D03*
D11*
X275500000Y-182562000D03*
%TD*%
D10*
%TO.C,DLAlt1*%
X128519000Y-182562000D03*
D11*
X120719000Y-182562000D03*
%TD*%
D10*
%TO.C,DL1*%
X288062000Y-144462000D03*
D11*
X280262000Y-144462000D03*
%TD*%
D10*
%TO.C,DK1*%
X269012000Y-144462000D03*
D11*
X261212000Y-144462000D03*
%TD*%
D10*
%TO.C,DJ1*%
X249962000Y-144462000D03*
D11*
X242162000Y-144462000D03*
%TD*%
D10*
%TO.C,DI1*%
X264250000Y-125412000D03*
D11*
X256450000Y-125412000D03*
%TD*%
D10*
%TO.C,DH1*%
X230912000Y-144462000D03*
D11*
X223112000Y-144462000D03*
%TD*%
D10*
%TO.C,DG1*%
X211862000Y-144462000D03*
D11*
X204062000Y-144462000D03*
%TD*%
D10*
%TO.C,DF1*%
X192812000Y-144462000D03*
D11*
X185012000Y-144462000D03*
%TD*%
D10*
%TO.C,DEsc1*%
X102325000Y-106362000D03*
D11*
X94525000Y-106362000D03*
%TD*%
D10*
%TO.C,DE1*%
X169000000Y-125412000D03*
D11*
X161200000Y-125412000D03*
%TD*%
D10*
%TO.C,DDown1*%
X302350000Y-182562000D03*
D11*
X294550000Y-182562000D03*
%TD*%
D10*
%TO.C,DD1*%
X173762000Y-144462000D03*
D11*
X165962000Y-144462000D03*
%TD*%
D10*
%TO.C,DControl1*%
X109469000Y-144462000D03*
D11*
X101669000Y-144462000D03*
%TD*%
D10*
%TO.C,DC1*%
X183300000Y-163512000D03*
D11*
X175500000Y-163512000D03*
%TD*%
D10*
%TO.C,DBkspce1*%
X364262000Y-125412000D03*
D11*
X356462000Y-125412000D03*
%TD*%
D10*
%TO.C,DB1*%
X221388000Y-163512000D03*
D11*
X213588000Y-163512000D03*
%TD*%
D10*
%TO.C,DA1*%
X135662000Y-144462000D03*
D11*
X127862000Y-144462000D03*
%TD*%
D10*
%TO.C,D]1*%
X340450000Y-125412000D03*
D11*
X332650000Y-125412000D03*
%TD*%
D10*
%TO.C,D\u005C1*%
X349975000Y-106362000D03*
D11*
X342175000Y-106362000D03*
%TD*%
D10*
%TO.C,D[1*%
X321400000Y-125412000D03*
D11*
X313600000Y-125412000D03*
%TD*%
D10*
%TO.C,D=1*%
X330938000Y-106362000D03*
D11*
X323138000Y-106362000D03*
%TD*%
D10*
%TO.C,D;1*%
X307112000Y-144462000D03*
D11*
X299312000Y-144462000D03*
%TD*%
D10*
%TO.C,D/1*%
X316638000Y-163512000D03*
D11*
X308838000Y-163512000D03*
%TD*%
D10*
%TO.C,D-1*%
X311875000Y-106362000D03*
D11*
X304075000Y-106362000D03*
%TD*%
D10*
%TO.C,D'1*%
X326162000Y-144462000D03*
D11*
X318362000Y-144462000D03*
%TD*%
D10*
%TO.C,D9*%
X273775000Y-106362000D03*
D11*
X265975000Y-106362000D03*
%TD*%
D10*
%TO.C,D8*%
X254725000Y-106362000D03*
D11*
X246925000Y-106362000D03*
%TD*%
D10*
%TO.C,D7*%
X235675000Y-106362000D03*
D11*
X227875000Y-106362000D03*
%TD*%
D10*
%TO.C,D6*%
X216625000Y-106362000D03*
D11*
X208825000Y-106362000D03*
%TD*%
D10*
%TO.C,D5*%
X197575000Y-106362000D03*
D11*
X189775000Y-106362000D03*
%TD*%
D10*
%TO.C,D4*%
X178525000Y-106362000D03*
D11*
X170725000Y-106362000D03*
%TD*%
D10*
%TO.C,D3*%
X159475000Y-106362000D03*
D11*
X151675000Y-106362000D03*
%TD*%
D10*
%TO.C,D2*%
X140425000Y-106362000D03*
D11*
X132625000Y-106362000D03*
%TD*%
D10*
%TO.C,D1*%
X121375000Y-106362000D03*
D11*
X113575000Y-106362000D03*
%TD*%
D10*
%TO.C,D\u002C1*%
X278538000Y-163512000D03*
D11*
X270738000Y-163512000D03*
%TD*%
D10*
%TO.C,D0*%
X292825000Y-106362000D03*
D11*
X285025000Y-106362000D03*
%TD*%
D10*
%TO.C,D.1*%
X297588000Y-163512000D03*
D11*
X289788000Y-163512000D03*
%TD*%
M02*
