%TF.GenerationSoftware,KiCad,Pcbnew,(5.1.6)-1*%
%TF.CreationDate,2020-06-24T11:27:28-04:00*%
%TF.ProjectId,southpaw6.35,736f7574-6870-4617-9736-2e33352e6b69,rev?*%
%TF.SameCoordinates,Original*%
%TF.FileFunction,Paste,Top*%
%TF.FilePolarity,Positive*%
%FSLAX46Y46*%
G04 Gerber Fmt 4.6, Leading zero omitted, Abs format (unit mm)*
G04 Created by KiCad (PCBNEW (5.1.6)-1) date 2020-06-24 11:27:28*
%MOMM*%
%LPD*%
G01*
G04 APERTURE LIST*
%ADD10R,1.200000X1.200000*%
G04 APERTURE END LIST*
D10*
%TO.C,DRFn1*%
X363550000Y-163512000D03*
X366700000Y-163512000D03*
%TD*%
%TO.C,DLFn1*%
X163525000Y-182562000D03*
X166675000Y-182562000D03*
%TD*%
%TO.C,DZ1*%
X139713000Y-163512000D03*
X142863000Y-163512000D03*
%TD*%
%TO.C,DY1*%
X220675000Y-125412000D03*
X223825000Y-125412000D03*
%TD*%
%TO.C,DX1*%
X158763000Y-163512000D03*
X161913000Y-163512000D03*
%TD*%
%TO.C,DW1*%
X144475000Y-125412000D03*
X147625000Y-125412000D03*
%TD*%
%TO.C,DV1*%
X196863000Y-163512000D03*
X200013000Y-163512000D03*
%TD*%
%TO.C,DUp1*%
X315925000Y-182562000D03*
X319075000Y-182562000D03*
%TD*%
%TO.C,DU1*%
X239725000Y-125412000D03*
X242875000Y-125412000D03*
%TD*%
%TO.C,Dtil1*%
X363550000Y-106362000D03*
X366700000Y-106362000D03*
%TD*%
%TO.C,DTab1*%
X101613000Y-125412000D03*
X104763000Y-125412000D03*
%TD*%
%TO.C,DT1*%
X201625000Y-125412000D03*
X204775000Y-125412000D03*
%TD*%
%TO.C,DSu1*%
X144475000Y-182562000D03*
X147625000Y-182562000D03*
%TD*%
%TO.C,DS1*%
X149237000Y-144462000D03*
X152387000Y-144462000D03*
%TD*%
%TO.C,DRSu1*%
X358787000Y-182562000D03*
X361937000Y-182562000D03*
%TD*%
%TO.C,DRSpace1*%
X246869000Y-182562000D03*
X250019000Y-182562000D03*
%TD*%
%TO.C,DRShift1*%
X337356000Y-163512000D03*
X340506000Y-163512000D03*
%TD*%
%TO.C,DRight1*%
X334975000Y-182562000D03*
X338125000Y-182562000D03*
%TD*%
%TO.C,DREnter1*%
X351644000Y-144462000D03*
X354794000Y-144462000D03*
%TD*%
%TO.C,DR1*%
X182575000Y-125412000D03*
X185725000Y-125412000D03*
%TD*%
%TO.C,DQ1*%
X125425000Y-125412000D03*
X128575000Y-125412000D03*
%TD*%
%TO.C,DP1*%
X296875000Y-125412000D03*
X300025000Y-125412000D03*
%TD*%
%TO.C,DO1*%
X277825000Y-125412000D03*
X280975000Y-125412000D03*
%TD*%
%TO.C,DNumEnter1*%
X77800000Y-182562000D03*
X80950000Y-182562000D03*
%TD*%
%TO.C,DNum/1*%
X50800000Y-97618800D03*
X50800000Y-94468800D03*
%TD*%
%TO.C,DNum-1*%
X77800000Y-106362000D03*
X80950000Y-106362000D03*
%TD*%
%TO.C,DNum\u002A1*%
X69056200Y-97618800D03*
X69056200Y-94468800D03*
%TD*%
%TO.C,DNum9*%
X77800000Y-125412000D03*
X80950000Y-125412000D03*
%TD*%
%TO.C,DNum8*%
X58750000Y-125412000D03*
X61900000Y-125412000D03*
%TD*%
%TO.C,DNum7*%
X39700000Y-125412000D03*
X42850000Y-125412000D03*
%TD*%
%TO.C,DNum6*%
X77800000Y-144462000D03*
X80950000Y-144462000D03*
%TD*%
%TO.C,DNum5*%
X58750000Y-144462000D03*
X61900000Y-144462000D03*
%TD*%
%TO.C,DNum4*%
X39700000Y-144462000D03*
X42850000Y-144462000D03*
%TD*%
%TO.C,DNum3*%
X77800000Y-163512000D03*
X80950000Y-163512000D03*
%TD*%
%TO.C,DNum2*%
X58750000Y-163512000D03*
X61900000Y-163512000D03*
%TD*%
%TO.C,DNum1*%
X39700000Y-163512000D03*
X42850000Y-163512000D03*
%TD*%
%TO.C,DNum0*%
X39700000Y-182562000D03*
X42850000Y-182562000D03*
%TD*%
%TO.C,DNum.1*%
X58750000Y-182562000D03*
X61900000Y-182562000D03*
%TD*%
%TO.C,DN1*%
X234963000Y-163512000D03*
X238113000Y-163512000D03*
%TD*%
%TO.C,DM1*%
X254013000Y-163512000D03*
X257163000Y-163512000D03*
%TD*%
%TO.C,DLSpace1*%
X199244000Y-182562000D03*
X202394000Y-182562000D03*
%TD*%
%TO.C,DLShift1*%
X108756000Y-163512000D03*
X111906000Y-163512000D03*
%TD*%
%TO.C,DLOpt1*%
X99231000Y-182562000D03*
X102381000Y-182562000D03*
%TD*%
%TO.C,DLeft1*%
X277825000Y-182562000D03*
X280975000Y-182562000D03*
%TD*%
%TO.C,DLAlt1*%
X123044000Y-182562000D03*
X126194000Y-182562000D03*
%TD*%
%TO.C,DL1*%
X282587000Y-144462000D03*
X285737000Y-144462000D03*
%TD*%
%TO.C,DK1*%
X263537000Y-144462000D03*
X266687000Y-144462000D03*
%TD*%
%TO.C,DJ1*%
X244487000Y-144462000D03*
X247637000Y-144462000D03*
%TD*%
%TO.C,DI1*%
X258775000Y-125412000D03*
X261925000Y-125412000D03*
%TD*%
%TO.C,DH1*%
X225437000Y-144462000D03*
X228587000Y-144462000D03*
%TD*%
%TO.C,DG1*%
X206387000Y-144462000D03*
X209537000Y-144462000D03*
%TD*%
%TO.C,DF1*%
X187337000Y-144462000D03*
X190487000Y-144462000D03*
%TD*%
%TO.C,DEsc1*%
X96850000Y-106362000D03*
X100000000Y-106362000D03*
%TD*%
%TO.C,DE1*%
X163525000Y-125412000D03*
X166675000Y-125412000D03*
%TD*%
%TO.C,DDown1*%
X296875000Y-182562000D03*
X300025000Y-182562000D03*
%TD*%
%TO.C,DD1*%
X168287000Y-144462000D03*
X171437000Y-144462000D03*
%TD*%
%TO.C,DControl1*%
X103994000Y-144462000D03*
X107144000Y-144462000D03*
%TD*%
%TO.C,DC1*%
X177825000Y-163512000D03*
X180975000Y-163512000D03*
%TD*%
%TO.C,DBkspce1*%
X358787000Y-125412000D03*
X361937000Y-125412000D03*
%TD*%
%TO.C,DB1*%
X215913000Y-163512000D03*
X219063000Y-163512000D03*
%TD*%
%TO.C,DA1*%
X130187000Y-144462000D03*
X133337000Y-144462000D03*
%TD*%
%TO.C,D]1*%
X334975000Y-125412000D03*
X338125000Y-125412000D03*
%TD*%
%TO.C,D\u005C1*%
X344500000Y-106362000D03*
X347650000Y-106362000D03*
%TD*%
%TO.C,D[1*%
X315925000Y-125412000D03*
X319075000Y-125412000D03*
%TD*%
%TO.C,D=1*%
X325463000Y-106362000D03*
X328613000Y-106362000D03*
%TD*%
%TO.C,D;1*%
X301637000Y-144462000D03*
X304787000Y-144462000D03*
%TD*%
%TO.C,D/1*%
X311163000Y-163512000D03*
X314313000Y-163512000D03*
%TD*%
%TO.C,D-1*%
X306400000Y-106362000D03*
X309550000Y-106362000D03*
%TD*%
%TO.C,D'1*%
X320687000Y-144462000D03*
X323837000Y-144462000D03*
%TD*%
%TO.C,D9*%
X268300000Y-106362000D03*
X271450000Y-106362000D03*
%TD*%
%TO.C,D8*%
X249250000Y-106362000D03*
X252400000Y-106362000D03*
%TD*%
%TO.C,D7*%
X230200000Y-106362000D03*
X233350000Y-106362000D03*
%TD*%
%TO.C,D6*%
X211150000Y-106362000D03*
X214300000Y-106362000D03*
%TD*%
%TO.C,D5*%
X192100000Y-106362000D03*
X195250000Y-106362000D03*
%TD*%
%TO.C,D4*%
X173050000Y-106362000D03*
X176200000Y-106362000D03*
%TD*%
%TO.C,D3*%
X154000000Y-106362000D03*
X157150000Y-106362000D03*
%TD*%
%TO.C,D2*%
X134950000Y-106362000D03*
X138100000Y-106362000D03*
%TD*%
%TO.C,D1*%
X115900000Y-106362000D03*
X119050000Y-106362000D03*
%TD*%
%TO.C,D\u002C1*%
X273063000Y-163512000D03*
X276213000Y-163512000D03*
%TD*%
%TO.C,D0*%
X287350000Y-106362000D03*
X290500000Y-106362000D03*
%TD*%
%TO.C,D.1*%
X292113000Y-163512000D03*
X295263000Y-163512000D03*
%TD*%
M02*
