M48
; DRILL file {KiCad (5.1.6)-1} date 06/24/20 11:27:32
; FORMAT={-:-/ absolute / inch / decimal}
; #@! TF.CreationDate,2020-06-24T11:27:32-04:00
; #@! TF.GenerationSoftware,Kicad,Pcbnew,(5.1.6)-1
; #@! TF.FileFunction,Plated,1,2,PTH
FMAT,2
INCH
T1C0.0157
T2C0.0276
T3C0.0433
T4C0.0591
%
G90
G05
T1
X3.5013Y-4.2654
X3.5638Y-4.3279
X5.0593Y-5.0118
X8.0786Y-5.5213
X9.4893Y-3.9314
X10.932Y-3.9726
X11.3063Y-4.107
X12.1452Y-4.2528
T2
X7.659Y-6.4375
X7.9661Y-6.4375
X1.4715Y-5.6875
X1.7785Y-5.6875
X4.8465Y-4.9375
X5.1535Y-4.9375
X6.3465Y-7.1875
X6.6535Y-7.1875
X2.2215Y-4.9375
X2.5285Y-4.9375
X6.159Y-6.4375
X6.4661Y-6.4375
X9.159Y-6.4375
X9.4661Y-6.4375
X6.9094Y-6.4375
X7.2165Y-6.4375
X9.7215Y-4.1875
X10.0285Y-4.1875
X6.5339Y-5.6875
X6.841Y-5.6875
X11.9715Y-4.1875
X12.2785Y-4.1875
X3.8152Y-7.1875
X4.1223Y-7.1875
X11.0339Y-5.6875
X11.341Y-5.6875
X3.909Y-4.9375
X4.2161Y-4.9375
X2.2215Y-5.6875
X2.5285Y-5.6875
X7.0965Y-4.9375
X7.4035Y-4.9375
X14.2215Y-6.4375
X14.5285Y-6.4375
X2.7187Y-3.6277
X2.7187Y-3.9348
X2.2215Y-7.1875
X2.5285Y-7.1875
X5.0339Y-5.6875
X5.341Y-5.6875
X5.9715Y-4.1875
X6.2785Y-4.1875
X14.0339Y-4.9375
X14.341Y-4.9375
X13.4715Y-4.1875
X13.7785Y-4.1875
X6.3465Y-4.9375
X6.6535Y-4.9375
X7.7527Y-7.1875
X8.0598Y-7.1875
X4.0027Y-5.6875
X4.3098Y-5.6875
X5.409Y-6.4375
X5.7161Y-6.4375
X9.3465Y-4.9375
X9.6535Y-4.9375
X2.0Y-3.6277
X2.0Y-3.9348
X13.7527Y-5.6875
X14.0598Y-5.6875
X2.9715Y-7.1875
X3.2785Y-7.1875
X12.159Y-6.4375
X12.4661Y-6.4375
X5.2215Y-4.1875
X5.5285Y-4.1875
X10.2839Y-5.6875
X10.591Y-5.6875
X9.909Y-6.4375
X10.2161Y-6.4375
X11.5965Y-7.1875
X11.9035Y-7.1875
X5.5965Y-7.1875
X5.9035Y-7.1875
X2.9715Y-5.6875
X3.2785Y-5.6875
X13.0965Y-7.1875
X13.4035Y-7.1875
X1.4715Y-6.4375
X1.7785Y-6.4375
X10.4715Y-4.1875
X10.7785Y-4.1875
X7.4715Y-4.1875
X7.7785Y-4.1875
X11.7839Y-5.6875
X12.091Y-5.6875
X11.2215Y-4.1875
X11.5285Y-4.1875
X11.409Y-6.4375
X11.7161Y-6.4375
X10.8465Y-7.1875
X11.1535Y-7.1875
X3.7215Y-4.1875
X4.0285Y-4.1875
X13.1902Y-6.4375
X13.4973Y-6.4375
X12.3465Y-7.1875
X12.6535Y-7.1875
X2.9715Y-4.1875
X3.2785Y-4.1875
X8.5965Y-4.9375
X8.9035Y-4.9375
X1.4715Y-4.9375
X1.7785Y-4.9375
X13.0965Y-4.9375
X13.4035Y-4.9375
X8.9715Y-4.1875
X9.2785Y-4.1875
X12.722Y-4.1875
X13.0291Y-4.1875
X4.4715Y-4.1875
X4.7785Y-4.1875
X12.5339Y-5.6875
X12.841Y-5.6875
X7.2839Y-5.6875
X7.591Y-5.6875
X8.0339Y-5.6875
X8.341Y-5.6875
X9.6277Y-7.1875
X9.9348Y-7.1875
X2.9715Y-6.4375
X3.2785Y-6.4375
X14.0339Y-7.1875
X14.341Y-7.1875
X2.2215Y-6.4375
X2.5285Y-6.4375
X5.5965Y-4.9375
X5.9035Y-4.9375
X1.4715Y-7.1875
X1.7785Y-7.1875
X12.3465Y-4.9375
X12.6535Y-4.9375
X10.659Y-6.4375
X10.9661Y-6.4375
X8.2215Y-4.1875
X8.5285Y-4.1875
X9.5339Y-5.6875
X9.841Y-5.6875
X4.7527Y-7.1875
X5.0598Y-7.1875
X5.7839Y-5.6875
X6.091Y-5.6875
X2.9715Y-4.9375
X3.2785Y-4.9375
X14.2215Y-4.1875
X14.5285Y-4.1875
X11.5965Y-4.9375
X11.9035Y-4.9375
X7.8465Y-4.9375
X8.1535Y-4.9375
X10.8465Y-4.9375
X11.1535Y-4.9375
X8.409Y-6.4375
X8.7161Y-6.4375
X6.7215Y-4.1875
X7.0285Y-4.1875
X4.1902Y-6.4375
X4.4973Y-6.4375
X8.7839Y-5.6875
X9.091Y-5.6875
X10.0965Y-4.9375
X10.4035Y-4.9375
T3
X2.825Y-3.4875
X2.825Y-3.5875
X2.825Y-3.6875
X2.825Y-3.7875
X2.825Y-3.8875
X2.825Y-3.9875
X2.825Y-4.0875
X2.825Y-4.1875
X2.825Y-4.2875
X2.825Y-4.3875
X2.825Y-4.4875
X2.825Y-4.5875
X2.825Y-4.6875
X2.825Y-4.7875
X2.825Y-4.8875
X2.825Y-4.9875
X2.825Y-5.0875
X2.825Y-5.1875
X2.825Y-5.2875
X2.825Y-5.3875
X3.425Y-3.4875
X3.425Y-3.5875
X3.425Y-3.6875
X3.425Y-3.7875
X3.425Y-3.8875
X3.425Y-3.9875
X3.425Y-4.0875
X3.425Y-4.1875
X3.425Y-4.2875
X3.425Y-4.3875
X3.425Y-4.4875
X3.425Y-4.5875
X3.425Y-4.6875
X3.425Y-4.7875
X3.425Y-4.8875
X3.425Y-4.9875
X3.425Y-5.0875
X3.425Y-5.1875
X3.425Y-5.2875
X3.425Y-5.3875
T4
G00X4.5206Y-3.6366
M15
G01X4.4731Y-3.7113
M16
G05
G00X4.725Y-3.6125
M15
G01X4.7234Y-3.6353
M16
G05
G00X12.7706Y-3.6366
M15
G01X12.7231Y-3.7113
M16
G05
G00X12.975Y-3.6125
M15
G01X12.9734Y-3.6353
M16
G05
G00X7.7082Y-5.8866
M15
G01X7.6606Y-5.9613
M16
G05
G00X7.9125Y-5.8625
M15
G01X7.911Y-5.8853
M16
G05
G00X7.8019Y-6.6366
M15
G01X7.7543Y-6.7113
M16
G05
G00X8.0062Y-6.6125
M15
G01X8.0047Y-6.6353
M16
G05
G00X5.6456Y-4.3866
M15
G01X5.5981Y-4.4613
M16
G05
G00X5.85Y-4.3625
M15
G01X5.8484Y-4.3853
M16
G05
G00X2.2706Y-6.6366
M15
G01X2.2231Y-6.7113
M16
G05
G00X2.475Y-6.6125
M15
G01X2.4734Y-6.6353
M16
G05
G00X8.0831Y-5.1366
M15
G01X8.0355Y-5.2113
M16
G05
G00X8.2875Y-5.1125
M15
G01X8.2859Y-5.1353
M16
G05
G00X3.8644Y-6.6366
M15
G01X3.8168Y-6.7113
M16
G05
G00X4.0687Y-6.6125
M15
G01X4.0672Y-6.6353
M16
G05
G00X7.3331Y-5.1366
M15
G01X7.2855Y-5.2113
M16
G05
G00X7.5375Y-5.1125
M15
G01X7.5359Y-5.1353
M16
G05
G00X8.4582Y-5.8866
M15
G01X8.4106Y-5.9613
M16
G05
G00X8.6625Y-5.8625
M15
G01X8.661Y-5.8853
M16
G05
G00X5.6456Y-6.6366
M15
G01X5.5981Y-6.7113
M16
G05
G00X5.85Y-6.6125
M15
G01X5.8484Y-6.6353
M16
G05
G00X13.8019Y-5.1366
M15
G01X13.7543Y-5.2113
M16
G05
G00X14.0062Y-5.1125
M15
G01X14.0047Y-5.1353
M16
G05
G00X10.5206Y-3.6366
M15
G01X10.4731Y-3.7113
M16
G05
G00X10.725Y-3.6125
M15
G01X10.7234Y-3.6353
M16
G05
G00X11.8331Y-5.1366
M15
G01X11.7855Y-5.2113
M16
G05
G00X12.0375Y-5.1125
M15
G01X12.0359Y-5.1353
M16
G05
G00X8.6456Y-4.3866
M15
G01X8.5981Y-4.4613
M16
G05
G00X8.85Y-4.3625
M15
G01X8.8484Y-4.3853
M16
G05
G00X2.2706Y-5.1366
M15
G01X2.2231Y-5.2113
M16
G05
G00X2.475Y-5.1125
M15
G01X2.4734Y-5.1353
M16
G05
G00X2.2706Y-5.8866
M15
G01X2.2231Y-5.9613
M16
G05
G00X2.475Y-5.8625
M15
G01X2.4734Y-5.8853
M16
G05
G00X4.0519Y-5.1366
M15
G01X4.0043Y-5.2113
M16
G05
G00X4.2562Y-5.1125
M15
G01X4.2547Y-5.1353
M16
G05
G00X9.2082Y-5.8866
M15
G01X9.1606Y-5.9613
M16
G05
G00X9.4125Y-5.8625
M15
G01X9.411Y-5.8853
M16
G05
G00X10.3331Y-5.1366
M15
G01X10.2855Y-5.2113
M16
G05
G00X10.5375Y-5.1125
M15
G01X10.5359Y-5.1353
M16
G05
G00X14.0831Y-4.3866
M15
G01X14.0355Y-4.4613
M16
G05
G00X14.2875Y-4.3625
M15
G01X14.2859Y-4.3853
M16
G05
G00X5.8331Y-5.1366
M15
G01X5.7855Y-5.2113
M16
G05
G00X6.0375Y-5.1125
M15
G01X6.0359Y-5.1353
M16
G05
G00X3.0206Y-4.3866
M15
G01X2.9731Y-4.4613
M16
G05
G00X3.225Y-4.3625
M15
G01X3.2234Y-4.3853
M16
G05
G00X7.5206Y-3.6366
M15
G01X7.4731Y-3.7113
M16
G05
G00X7.725Y-3.6125
M15
G01X7.7234Y-3.6353
M16
G05
G00X5.2706Y-3.6366
M15
G01X5.2231Y-3.7113
M16
G05
G00X5.475Y-3.6125
M15
G01X5.4734Y-3.6353
M16
G05
G00X11.4582Y-5.8866
M15
G01X11.4106Y-5.9613
M16
G05
G00X11.6625Y-5.8625
M15
G01X11.661Y-5.8853
M16
G05
G00X1.5206Y-5.1366
M15
G01X1.4731Y-5.2113
M16
G05
G00X1.725Y-5.1125
M15
G01X1.7234Y-5.1353
M16
G05
G00X3.0206Y-5.8866
M15
G01X2.9731Y-5.9613
M16
G05
G00X3.225Y-5.8625
M15
G01X3.2234Y-5.8853
M16
G05
G00X11.6456Y-6.6366
M15
G01X11.5981Y-6.7113
M16
G05
G00X11.85Y-6.6125
M15
G01X11.8484Y-6.6353
M16
G05
G00X5.0831Y-5.1366
M15
G01X5.0355Y-5.2113
M16
G05
G00X5.2875Y-5.1125
M15
G01X5.2859Y-5.1353
M16
G05
G00X6.9582Y-5.8866
M15
G01X6.9106Y-5.9613
M16
G05
G00X7.1625Y-5.8625
M15
G01X7.161Y-5.8853
M16
G05
G00X9.6769Y-6.6366
M15
G01X9.6293Y-6.7113
M16
G05
G00X9.8812Y-6.6125
M15
G01X9.8797Y-6.6353
M16
G05
G00X2.2706Y-3.6366
M15
G01X2.2231Y-3.7113
M16
G05
G00X2.475Y-3.6125
M15
G01X2.4734Y-3.6353
M16
G05
G00X8.2706Y-3.6366
M15
G01X8.2231Y-3.7113
M16
G05
G00X8.475Y-3.6125
M15
G01X8.4734Y-3.6353
M16
G05
G00X12.3956Y-6.6366
M15
G01X12.3481Y-6.7113
M16
G05
G00X12.6Y-6.6125
M15
G01X12.5984Y-6.6353
M16
G05
G00X6.0206Y-3.6366
M15
G01X5.9731Y-3.7113
M16
G05
G00X6.225Y-3.6125
M15
G01X6.2234Y-3.6353
M16
G05
G00X1.5206Y-6.6366
M15
G01X1.4731Y-6.7113
M16
G05
G00X1.725Y-6.6125
M15
G01X1.7234Y-6.6353
M16
G05
G00X11.6456Y-4.3866
M15
G01X11.5981Y-4.4613
M16
G05
G00X11.85Y-4.3625
M15
G01X11.8484Y-4.3853
M16
G05
G00X9.9582Y-5.8866
M15
G01X9.9106Y-5.9613
M16
G05
G00X10.1625Y-5.8625
M15
G01X10.161Y-5.8853
M16
G05
G00X9.5831Y-5.1366
M15
G01X9.5355Y-5.2113
M16
G05
G00X9.7875Y-5.1125
M15
G01X9.7859Y-5.1353
M16
G05
G00X6.5831Y-5.1366
M15
G01X6.5355Y-5.2113
M16
G05
G00X6.7875Y-5.1125
M15
G01X6.7859Y-5.1353
M16
G05
G00X10.8956Y-4.3866
M15
G01X10.8481Y-4.4613
M16
G05
G00X11.1Y-4.3625
M15
G01X11.0984Y-4.3853
M16
G05
G00X3.7706Y-3.6366
M15
G01X3.7231Y-3.7113
M16
G05
G00X3.975Y-3.6125
M15
G01X3.9734Y-3.6353
M16
G05
G00X7.8956Y-4.3866
M15
G01X7.8481Y-4.4613
M16
G05
G00X8.1Y-4.3625
M15
G01X8.0984Y-4.3853
M16
G05
G00X3.0206Y-6.6366
M15
G01X2.9731Y-6.7113
M16
G05
G00X3.225Y-6.6125
M15
G01X3.2234Y-6.6353
M16
G05
G00X9.3956Y-4.3866
M15
G01X9.3481Y-4.4613
M16
G05
G00X9.6Y-4.3625
M15
G01X9.5984Y-4.3853
M16
G05
G00X11.2706Y-3.6366
M15
G01X11.2231Y-3.7113
M16
G05
G00X11.475Y-3.6125
M15
G01X11.4734Y-3.6353
M16
G05
G00X9.7706Y-3.6366
M15
G01X9.7231Y-3.7113
M16
G05
G00X9.975Y-3.6125
M15
G01X9.9734Y-3.6353
M16
G05
G00X6.2082Y-5.8866
M15
G01X6.1606Y-5.9613
M16
G05
G00X6.4125Y-5.8625
M15
G01X6.411Y-5.8853
M16
G05
G00X9.0206Y-3.6366
M15
G01X8.9731Y-3.7113
M16
G05
G00X9.225Y-3.6125
M15
G01X9.2234Y-3.6353
M16
G05
G00X3.0206Y-5.1366
M15
G01X2.9731Y-5.2113
M16
G05
G00X3.225Y-5.1125
M15
G01X3.2234Y-5.1353
M16
G05
G00X11.0831Y-5.1366
M15
G01X11.0355Y-5.2113
M16
G05
G00X11.2875Y-5.1125
M15
G01X11.2859Y-5.1353
M16
G05
G00X6.3956Y-4.3866
M15
G01X6.3481Y-4.4613
M16
G05
G00X6.6Y-4.3625
M15
G01X6.5984Y-4.3853
M16
G05
G00X12.3956Y-4.3866
M15
G01X12.3481Y-4.4613
M16
G05
G00X12.6Y-4.3625
M15
G01X12.5984Y-4.3853
M16
G05
G00X4.8956Y-4.3866
M15
G01X4.8481Y-4.4613
M16
G05
G00X5.1Y-4.3625
M15
G01X5.0984Y-4.3853
M16
G05
G00X13.2394Y-5.8866
M15
G01X13.1918Y-5.9613
M16
G05
G00X13.4437Y-5.8625
M15
G01X13.4422Y-5.8853
M16
G05
G00X3.9582Y-4.3866
M15
G01X3.9106Y-4.4613
M16
G05
G00X4.1625Y-4.3625
M15
G01X4.161Y-4.3853
M16
G05
G00X12.2082Y-5.8866
M15
G01X12.1606Y-5.9613
M16
G05
G00X12.4125Y-5.8625
M15
G01X12.411Y-5.8853
M16
G05
G00X12.5831Y-5.1366
M15
G01X12.5355Y-5.2113
M16
G05
G00X12.7875Y-5.1125
M15
G01X12.7859Y-5.1353
M16
G05
G00X14.2706Y-5.8866
M15
G01X14.2231Y-5.9613
M16
G05
G00X14.475Y-5.8625
M15
G01X14.4734Y-5.8853
M16
G05
G00X2.2706Y-4.3866
M15
G01X2.2231Y-4.4613
M16
G05
G00X2.475Y-4.3625
M15
G01X2.4734Y-4.3853
M16
G05
G00X10.7082Y-5.8866
M15
G01X10.6606Y-5.9613
M16
G05
G00X10.9125Y-5.8625
M15
G01X10.911Y-5.8853
M16
G05
G00X5.4582Y-5.8866
M15
G01X5.4106Y-5.9613
M16
G05
G00X5.6625Y-5.8625
M15
G01X5.661Y-5.8853
M16
G05
G00X1.5206Y-4.3866
M15
G01X1.4731Y-4.4613
M16
G05
G00X1.725Y-4.3625
M15
G01X1.7234Y-4.3853
M16
G05
G00X4.8019Y-6.6366
M15
G01X4.7543Y-6.7113
M16
G05
G00X5.0062Y-6.6125
M15
G01X5.0047Y-6.6353
M16
G05
G00X8.8331Y-5.1366
M15
G01X8.7855Y-5.2113
M16
G05
G00X9.0375Y-5.1125
M15
G01X9.0359Y-5.1353
M16
G05
G00X13.5206Y-3.6366
M15
G01X13.4731Y-3.7113
M16
G05
G00X13.725Y-3.6125
M15
G01X13.7234Y-3.6353
M16
G05
G00X7.1456Y-4.3866
M15
G01X7.0981Y-4.4613
M16
G05
G00X7.35Y-4.3625
M15
G01X7.3484Y-4.3853
M16
G05
G00X14.2706Y-3.6366
M15
G01X14.2231Y-3.7113
M16
G05
G00X14.475Y-3.6125
M15
G01X14.4734Y-3.6353
M16
G05
G00X14.0831Y-6.6366
M15
G01X14.0355Y-6.7113
M16
G05
G00X14.2875Y-6.6125
M15
G01X14.2859Y-6.6353
M16
G05
G00X6.7706Y-3.6366
M15
G01X6.7231Y-3.7113
M16
G05
G00X6.975Y-3.6125
M15
G01X6.9734Y-3.6353
M16
G05
G00X12.0206Y-3.6366
M15
G01X11.9731Y-3.7113
M16
G05
G00X12.225Y-3.6125
M15
G01X12.2234Y-3.6353
M16
G05
G00X6.3956Y-6.6366
M15
G01X6.3481Y-6.7113
M16
G05
G00X6.6Y-6.6125
M15
G01X6.5984Y-6.6353
M16
G05
G00X4.2394Y-5.8866
M15
G01X4.1918Y-5.9613
M16
G05
G00X4.4437Y-5.8625
M15
G01X4.4422Y-5.8853
M16
G05
G00X1.5206Y-5.8866
M15
G01X1.4731Y-5.9613
M16
G05
G00X1.725Y-5.8625
M15
G01X1.7234Y-5.8853
M16
G05
G00X10.8956Y-6.6366
M15
G01X10.8481Y-6.7113
M16
G05
G00X11.1Y-6.6125
M15
G01X11.0984Y-6.6353
M16
G05
G00X10.1456Y-4.3866
M15
G01X10.0981Y-4.4613
M16
G05
G00X10.35Y-4.3625
M15
G01X10.3484Y-4.3853
M16
G05
G00X13.1456Y-4.3866
M15
G01X13.0981Y-4.4613
M16
G05
G00X13.35Y-4.3625
M15
G01X13.3484Y-4.3853
M16
G05
G00X13.1456Y-6.6366
M15
G01X13.0981Y-6.7113
M16
G05
G00X13.35Y-6.6125
M15
G01X13.3484Y-6.6353
M16
G05
G00X3.0206Y-3.6366
M15
G01X2.9731Y-3.7113
M16
G05
G00X3.225Y-3.6125
M15
G01X3.2234Y-3.6353
M16
G05
G00X1.5206Y-3.6366
M15
G01X1.4731Y-3.7113
M16
G05
G00X1.725Y-3.6125
M15
G01X1.7234Y-3.6353
M16
G05
T0
M30
