%TF.GenerationSoftware,KiCad,Pcbnew,(5.1.6)-1*%
%TF.CreationDate,2020-06-24T11:27:28-04:00*%
%TF.ProjectId,southpaw6.35,736f7574-6870-4617-9736-2e33352e6b69,rev?*%
%TF.SameCoordinates,Original*%
%TF.FileFunction,Copper,L2,Bot*%
%TF.FilePolarity,Positive*%
%FSLAX46Y46*%
G04 Gerber Fmt 4.6, Leading zero omitted, Abs format (unit mm)*
G04 Created by KiCad (PCBNEW (5.1.6)-1) date 2020-06-24 11:27:28*
%MOMM*%
%LPD*%
G01*
G04 APERTURE LIST*
%TA.AperFunction,ComponentPad*%
%ADD10C,1.600000*%
%TD*%
%TA.AperFunction,ComponentPad*%
%ADD11R,1.600000X1.600000*%
%TD*%
%TA.AperFunction,ViaPad*%
%ADD12C,0.800000*%
%TD*%
%TA.AperFunction,Conductor*%
%ADD13C,0.250000*%
%TD*%
G04 APERTURE END LIST*
D10*
%TO.P,U1,43*%
%TO.N,Net-(U1-Pad43)*%
X71755000Y-88582000D03*
%TO.P,U1,42*%
%TO.N,Net-(U1-Pad42)*%
X71755000Y-91122000D03*
%TO.P,U1,41*%
%TO.N,Net-(U1-Pad41)*%
X71755000Y-93662000D03*
%TO.P,U1,40*%
%TO.N,Net-(U1-Pad40)*%
X71755000Y-96202000D03*
%TO.P,U1,39*%
%TO.N,/col0*%
X71755000Y-98742000D03*
%TO.P,U1,38*%
%TO.N,/col1*%
X71755000Y-101282000D03*
%TO.P,U1,37*%
%TO.N,Net-(U1-Pad37)*%
X71755000Y-103822000D03*
%TO.P,U1,36*%
%TO.N,Net-(U1-Pad36)*%
X71755000Y-106362000D03*
%TO.P,U1,35*%
%TO.N,Net-(U1-Pad35)*%
X71755000Y-108902000D03*
%TO.P,U1,34*%
%TO.N,Net-(U1-Pad34)*%
X71755000Y-111442000D03*
%TO.P,U1,33*%
%TO.N,Net-(U1-Pad33)*%
X71755000Y-113982000D03*
%TO.P,U1,32*%
%TO.N,Net-(U1-Pad32)*%
X71755000Y-116522000D03*
%TO.P,U1,31*%
%TO.N,Net-(U1-Pad31)*%
X71755000Y-119062000D03*
%TO.P,U1,30*%
%TO.N,Net-(U1-Pad30)*%
X71755000Y-121602000D03*
%TO.P,U1,29*%
%TO.N,Net-(U1-Pad29)*%
X71755000Y-124142000D03*
%TO.P,U1,28*%
%TO.N,/row0*%
X71755000Y-126682000D03*
%TO.P,U1,27*%
%TO.N,/row1*%
X71755000Y-129222000D03*
%TO.P,U1,26*%
%TO.N,/row2*%
X71755000Y-131762000D03*
%TO.P,U1,25*%
%TO.N,/row3*%
X71755000Y-134302000D03*
%TO.P,U1,24*%
%TO.N,/row4*%
X71755000Y-136842000D03*
%TO.P,U1,20*%
%TO.N,/col9*%
X86995000Y-136842000D03*
%TO.P,U1,19*%
%TO.N,/col8*%
X86995000Y-134302000D03*
%TO.P,U1,18*%
%TO.N,/col7*%
X86995000Y-131762000D03*
%TO.P,U1,17*%
%TO.N,/col6*%
X86995000Y-129222000D03*
%TO.P,U1,16*%
%TO.N,/col5*%
X86995000Y-126682000D03*
%TO.P,U1,15*%
%TO.N,/col4*%
X86995000Y-124142000D03*
%TO.P,U1,14*%
%TO.N,/col3*%
X86995000Y-121602000D03*
%TO.P,U1,13*%
%TO.N,/col2*%
X86995000Y-119062000D03*
%TO.P,U1,12*%
%TO.N,Net-(U1-Pad12)*%
X86995000Y-116522000D03*
D11*
%TO.P,U1,1*%
%TO.N,Net-(U1-Pad1)*%
X86995000Y-88582000D03*
D10*
%TO.P,U1,2*%
%TO.N,N/C*%
X86995000Y-91122000D03*
%TO.P,U1,3*%
%TO.N,/col10*%
X86995000Y-93662000D03*
%TO.P,U1,4*%
%TO.N,/col11*%
X86995000Y-96202000D03*
%TO.P,U1,5*%
%TO.N,/col12*%
X86995000Y-98742000D03*
%TO.P,U1,6*%
%TO.N,/col13*%
X86995000Y-101282000D03*
%TO.P,U1,7*%
%TO.N,/col14*%
X86995000Y-103822000D03*
%TO.P,U1,8*%
%TO.N,/col15*%
X86995000Y-106362000D03*
%TO.P,U1,11*%
%TO.N,Net-(U1-Pad11)*%
X86995000Y-113982000D03*
%TO.P,U1,10*%
%TO.N,/col17*%
X86995000Y-111442000D03*
%TO.P,U1,9*%
%TO.N,/col16*%
X86995000Y-108902000D03*
%TD*%
%TO.P,KP1,2*%
%TO.N,Net-(DP1-Pad2)*%
%TA.AperFunction,ComponentPad*%
G36*
G01*
X299703170Y-111302309D02*
X299742619Y-110723653D01*
G75*
G02*
X301074743Y-109561567I1247105J-85019D01*
G01*
X301074743Y-109561567D01*
G75*
G02*
X302236829Y-110893691I-85019J-1247105D01*
G01*
X302197381Y-111472347D01*
G75*
G02*
X300865257Y-112634433I-1247105J85019D01*
G01*
X300865257Y-112634433D01*
G75*
G02*
X299703171Y-111302309I85019J1247105D01*
G01*
G37*
%TD.AperFunction*%
%TO.P,KP1,1*%
%TO.N,/col14*%
%TA.AperFunction,ComponentPad*%
G36*
G01*
X293536299Y-112645191D02*
X294745223Y-110747560D01*
G75*
G02*
X296471087Y-110364946I1054239J-671625D01*
G01*
X296471087Y-110364946D01*
G75*
G02*
X296853701Y-112090810I-671625J-1054239D01*
G01*
X295644777Y-113988440D01*
G75*
G02*
X293918913Y-114371054I-1054239J671625D01*
G01*
X293918913Y-114371054D01*
G75*
G02*
X293536299Y-112645190I671625J1054239D01*
G01*
G37*
%TD.AperFunction*%
%TD*%
%TO.P,KRFn1,2*%
%TO.N,Net-(DRFn1-Pad2)*%
%TA.AperFunction,ComponentPad*%
G36*
G01*
X366378170Y-149402309D02*
X366417619Y-148823653D01*
G75*
G02*
X367749743Y-147661567I1247105J-85019D01*
G01*
X367749743Y-147661567D01*
G75*
G02*
X368911829Y-148993691I-85019J-1247105D01*
G01*
X368872381Y-149572347D01*
G75*
G02*
X367540257Y-150734433I-1247105J85019D01*
G01*
X367540257Y-150734433D01*
G75*
G02*
X366378171Y-149402309I85019J1247105D01*
G01*
G37*
%TD.AperFunction*%
%TO.P,KRFn1,1*%
%TO.N,/col17*%
%TA.AperFunction,ComponentPad*%
G36*
G01*
X360211299Y-150745191D02*
X361420223Y-148847560D01*
G75*
G02*
X363146087Y-148464946I1054239J-671625D01*
G01*
X363146087Y-148464946D01*
G75*
G02*
X363528701Y-150190810I-671625J-1054239D01*
G01*
X362319777Y-152088440D01*
G75*
G02*
X360593913Y-152471054I-1054239J671625D01*
G01*
X360593913Y-152471054D01*
G75*
G02*
X360211299Y-150745190I671625J1054239D01*
G01*
G37*
%TD.AperFunction*%
%TD*%
%TO.P,KLFn1,2*%
%TO.N,Net-(DLFn1-Pad2)*%
%TA.AperFunction,ComponentPad*%
G36*
G01*
X166353170Y-168452309D02*
X166392619Y-167873653D01*
G75*
G02*
X167724743Y-166711567I1247105J-85019D01*
G01*
X167724743Y-166711567D01*
G75*
G02*
X168886829Y-168043691I-85019J-1247105D01*
G01*
X168847381Y-168622347D01*
G75*
G02*
X167515257Y-169784433I-1247105J85019D01*
G01*
X167515257Y-169784433D01*
G75*
G02*
X166353171Y-168452309I85019J1247105D01*
G01*
G37*
%TD.AperFunction*%
%TO.P,KLFn1,1*%
%TO.N,/col7*%
%TA.AperFunction,ComponentPad*%
G36*
G01*
X160186299Y-169795191D02*
X161395223Y-167897560D01*
G75*
G02*
X163121087Y-167514946I1054239J-671625D01*
G01*
X163121087Y-167514946D01*
G75*
G02*
X163503701Y-169240810I-671625J-1054239D01*
G01*
X162294777Y-171138440D01*
G75*
G02*
X160568913Y-171521054I-1054239J671625D01*
G01*
X160568913Y-171521054D01*
G75*
G02*
X160186299Y-169795190I671625J1054239D01*
G01*
G37*
%TD.AperFunction*%
%TD*%
%TO.P,DRFn1,2*%
%TO.N,Net-(DRFn1-Pad2)*%
X369025000Y-163512000D03*
D11*
%TO.P,DRFn1,1*%
%TO.N,/row3*%
X361225000Y-163512000D03*
%TD*%
D10*
%TO.P,DLFn1,2*%
%TO.N,Net-(DLFn1-Pad2)*%
X169000000Y-182562000D03*
D11*
%TO.P,DLFn1,1*%
%TO.N,/row4*%
X161200000Y-182562000D03*
%TD*%
%TO.P,KW1,2*%
%TO.N,Net-(DW1-Pad2)*%
%TA.AperFunction,ComponentPad*%
G36*
G01*
X147303170Y-111302309D02*
X147342619Y-110723653D01*
G75*
G02*
X148674743Y-109561567I1247105J-85019D01*
G01*
X148674743Y-109561567D01*
G75*
G02*
X149836829Y-110893691I-85019J-1247105D01*
G01*
X149797381Y-111472347D01*
G75*
G02*
X148465257Y-112634433I-1247105J85019D01*
G01*
X148465257Y-112634433D01*
G75*
G02*
X147303171Y-111302309I85019J1247105D01*
G01*
G37*
%TD.AperFunction*%
%TO.P,KW1,1*%
%TO.N,/col6*%
%TA.AperFunction,ComponentPad*%
G36*
G01*
X141136299Y-112645191D02*
X142345223Y-110747560D01*
G75*
G02*
X144071087Y-110364946I1054239J-671625D01*
G01*
X144071087Y-110364946D01*
G75*
G02*
X144453701Y-112090810I-671625J-1054239D01*
G01*
X143244777Y-113988440D01*
G75*
G02*
X141518913Y-114371054I-1054239J671625D01*
G01*
X141518913Y-114371054D01*
G75*
G02*
X141136299Y-112645190I671625J1054239D01*
G01*
G37*
%TD.AperFunction*%
%TD*%
%TO.P,KZ1,2*%
%TO.N,Net-(DZ1-Pad2)*%
%TA.AperFunction,ComponentPad*%
G36*
G01*
X142541170Y-149402309D02*
X142580619Y-148823653D01*
G75*
G02*
X143912743Y-147661567I1247105J-85019D01*
G01*
X143912743Y-147661567D01*
G75*
G02*
X145074829Y-148993691I-85019J-1247105D01*
G01*
X145035381Y-149572347D01*
G75*
G02*
X143703257Y-150734433I-1247105J85019D01*
G01*
X143703257Y-150734433D01*
G75*
G02*
X142541171Y-149402309I85019J1247105D01*
G01*
G37*
%TD.AperFunction*%
%TO.P,KZ1,1*%
%TO.N,/col5*%
%TA.AperFunction,ComponentPad*%
G36*
G01*
X136374299Y-150745191D02*
X137583223Y-148847560D01*
G75*
G02*
X139309087Y-148464946I1054239J-671625D01*
G01*
X139309087Y-148464946D01*
G75*
G02*
X139691701Y-150190810I-671625J-1054239D01*
G01*
X138482777Y-152088440D01*
G75*
G02*
X136756913Y-152471054I-1054239J671625D01*
G01*
X136756913Y-152471054D01*
G75*
G02*
X136374299Y-150745190I671625J1054239D01*
G01*
G37*
%TD.AperFunction*%
%TD*%
%TO.P,KY1,2*%
%TO.N,Net-(DY1-Pad2)*%
%TA.AperFunction,ComponentPad*%
G36*
G01*
X223503170Y-111302309D02*
X223542619Y-110723653D01*
G75*
G02*
X224874743Y-109561567I1247105J-85019D01*
G01*
X224874743Y-109561567D01*
G75*
G02*
X226036829Y-110893691I-85019J-1247105D01*
G01*
X225997381Y-111472347D01*
G75*
G02*
X224665257Y-112634433I-1247105J85019D01*
G01*
X224665257Y-112634433D01*
G75*
G02*
X223503171Y-111302309I85019J1247105D01*
G01*
G37*
%TD.AperFunction*%
%TO.P,KY1,1*%
%TO.N,/col10*%
%TA.AperFunction,ComponentPad*%
G36*
G01*
X217336299Y-112645191D02*
X218545223Y-110747560D01*
G75*
G02*
X220271087Y-110364946I1054239J-671625D01*
G01*
X220271087Y-110364946D01*
G75*
G02*
X220653701Y-112090810I-671625J-1054239D01*
G01*
X219444777Y-113988440D01*
G75*
G02*
X217718913Y-114371054I-1054239J671625D01*
G01*
X217718913Y-114371054D01*
G75*
G02*
X217336299Y-112645190I671625J1054239D01*
G01*
G37*
%TD.AperFunction*%
%TD*%
%TO.P,KX1,2*%
%TO.N,Net-(DX1-Pad2)*%
%TA.AperFunction,ComponentPad*%
G36*
G01*
X161591170Y-149402309D02*
X161630619Y-148823653D01*
G75*
G02*
X162962743Y-147661567I1247105J-85019D01*
G01*
X162962743Y-147661567D01*
G75*
G02*
X164124829Y-148993691I-85019J-1247105D01*
G01*
X164085381Y-149572347D01*
G75*
G02*
X162753257Y-150734433I-1247105J85019D01*
G01*
X162753257Y-150734433D01*
G75*
G02*
X161591171Y-149402309I85019J1247105D01*
G01*
G37*
%TD.AperFunction*%
%TO.P,KX1,1*%
%TO.N,/col6*%
%TA.AperFunction,ComponentPad*%
G36*
G01*
X155424299Y-150745191D02*
X156633223Y-148847560D01*
G75*
G02*
X158359087Y-148464946I1054239J-671625D01*
G01*
X158359087Y-148464946D01*
G75*
G02*
X158741701Y-150190810I-671625J-1054239D01*
G01*
X157532777Y-152088440D01*
G75*
G02*
X155806913Y-152471054I-1054239J671625D01*
G01*
X155806913Y-152471054D01*
G75*
G02*
X155424299Y-150745190I671625J1054239D01*
G01*
G37*
%TD.AperFunction*%
%TD*%
%TO.P,KV1,2*%
%TO.N,Net-(DV1-Pad2)*%
%TA.AperFunction,ComponentPad*%
G36*
G01*
X199691170Y-149402309D02*
X199730619Y-148823653D01*
G75*
G02*
X201062743Y-147661567I1247105J-85019D01*
G01*
X201062743Y-147661567D01*
G75*
G02*
X202224829Y-148993691I-85019J-1247105D01*
G01*
X202185381Y-149572347D01*
G75*
G02*
X200853257Y-150734433I-1247105J85019D01*
G01*
X200853257Y-150734433D01*
G75*
G02*
X199691171Y-149402309I85019J1247105D01*
G01*
G37*
%TD.AperFunction*%
%TO.P,KV1,1*%
%TO.N,/col8*%
%TA.AperFunction,ComponentPad*%
G36*
G01*
X193524299Y-150745191D02*
X194733223Y-148847560D01*
G75*
G02*
X196459087Y-148464946I1054239J-671625D01*
G01*
X196459087Y-148464946D01*
G75*
G02*
X196841701Y-150190810I-671625J-1054239D01*
G01*
X195632777Y-152088440D01*
G75*
G02*
X193906913Y-152471054I-1054239J671625D01*
G01*
X193906913Y-152471054D01*
G75*
G02*
X193524299Y-150745190I671625J1054239D01*
G01*
G37*
%TD.AperFunction*%
%TD*%
%TO.P,KUp1,2*%
%TO.N,Net-(DUp1-Pad2)*%
%TA.AperFunction,ComponentPad*%
G36*
G01*
X318753170Y-168452309D02*
X318792619Y-167873653D01*
G75*
G02*
X320124743Y-166711567I1247105J-85019D01*
G01*
X320124743Y-166711567D01*
G75*
G02*
X321286829Y-168043691I-85019J-1247105D01*
G01*
X321247381Y-168622347D01*
G75*
G02*
X319915257Y-169784433I-1247105J85019D01*
G01*
X319915257Y-169784433D01*
G75*
G02*
X318753171Y-168452309I85019J1247105D01*
G01*
G37*
%TD.AperFunction*%
%TO.P,KUp1,1*%
%TO.N,/col15*%
%TA.AperFunction,ComponentPad*%
G36*
G01*
X312586299Y-169795191D02*
X313795223Y-167897560D01*
G75*
G02*
X315521087Y-167514946I1054239J-671625D01*
G01*
X315521087Y-167514946D01*
G75*
G02*
X315903701Y-169240810I-671625J-1054239D01*
G01*
X314694777Y-171138440D01*
G75*
G02*
X312968913Y-171521054I-1054239J671625D01*
G01*
X312968913Y-171521054D01*
G75*
G02*
X312586299Y-169795190I671625J1054239D01*
G01*
G37*
%TD.AperFunction*%
%TD*%
%TO.P,KU1,2*%
%TO.N,Net-(DU1-Pad2)*%
%TA.AperFunction,ComponentPad*%
G36*
G01*
X242553170Y-111302309D02*
X242592619Y-110723653D01*
G75*
G02*
X243924743Y-109561567I1247105J-85019D01*
G01*
X243924743Y-109561567D01*
G75*
G02*
X245086829Y-110893691I-85019J-1247105D01*
G01*
X245047381Y-111472347D01*
G75*
G02*
X243715257Y-112634433I-1247105J85019D01*
G01*
X243715257Y-112634433D01*
G75*
G02*
X242553171Y-111302309I85019J1247105D01*
G01*
G37*
%TD.AperFunction*%
%TO.P,KU1,1*%
%TO.N,/col11*%
%TA.AperFunction,ComponentPad*%
G36*
G01*
X236386299Y-112645191D02*
X237595223Y-110747560D01*
G75*
G02*
X239321087Y-110364946I1054239J-671625D01*
G01*
X239321087Y-110364946D01*
G75*
G02*
X239703701Y-112090810I-671625J-1054239D01*
G01*
X238494777Y-113988440D01*
G75*
G02*
X236768913Y-114371054I-1054239J671625D01*
G01*
X236768913Y-114371054D01*
G75*
G02*
X236386299Y-112645190I671625J1054239D01*
G01*
G37*
%TD.AperFunction*%
%TD*%
%TO.P,Ktil1,2*%
%TO.N,Net-(Dtil1-Pad2)*%
%TA.AperFunction,ComponentPad*%
G36*
G01*
X366378170Y-92251809D02*
X366417619Y-91673153D01*
G75*
G02*
X367749743Y-90511067I1247105J-85019D01*
G01*
X367749743Y-90511067D01*
G75*
G02*
X368911829Y-91843191I-85019J-1247105D01*
G01*
X368872381Y-92421847D01*
G75*
G02*
X367540257Y-93583933I-1247105J85019D01*
G01*
X367540257Y-93583933D01*
G75*
G02*
X366378171Y-92251809I85019J1247105D01*
G01*
G37*
%TD.AperFunction*%
%TO.P,Ktil1,1*%
%TO.N,/col17*%
%TA.AperFunction,ComponentPad*%
G36*
G01*
X360211299Y-93594691D02*
X361420223Y-91697060D01*
G75*
G02*
X363146087Y-91314446I1054239J-671625D01*
G01*
X363146087Y-91314446D01*
G75*
G02*
X363528701Y-93040310I-671625J-1054239D01*
G01*
X362319777Y-94937940D01*
G75*
G02*
X360593913Y-95320554I-1054239J671625D01*
G01*
X360593913Y-95320554D01*
G75*
G02*
X360211299Y-93594690I671625J1054239D01*
G01*
G37*
%TD.AperFunction*%
%TD*%
%TO.P,KTab1,2*%
%TO.N,Net-(DTab1-Pad2)*%
%TA.AperFunction,ComponentPad*%
G36*
G01*
X104441170Y-111302309D02*
X104480619Y-110723653D01*
G75*
G02*
X105812743Y-109561567I1247105J-85019D01*
G01*
X105812743Y-109561567D01*
G75*
G02*
X106974829Y-110893691I-85019J-1247105D01*
G01*
X106935381Y-111472347D01*
G75*
G02*
X105603257Y-112634433I-1247105J85019D01*
G01*
X105603257Y-112634433D01*
G75*
G02*
X104441171Y-111302309I85019J1247105D01*
G01*
G37*
%TD.AperFunction*%
%TO.P,KTab1,1*%
%TO.N,/col3*%
%TA.AperFunction,ComponentPad*%
G36*
G01*
X98274299Y-112645191D02*
X99483223Y-110747560D01*
G75*
G02*
X101209087Y-110364946I1054239J-671625D01*
G01*
X101209087Y-110364946D01*
G75*
G02*
X101591701Y-112090810I-671625J-1054239D01*
G01*
X100382777Y-113988440D01*
G75*
G02*
X98656913Y-114371054I-1054239J671625D01*
G01*
X98656913Y-114371054D01*
G75*
G02*
X98274299Y-112645190I671625J1054239D01*
G01*
G37*
%TD.AperFunction*%
%TD*%
%TO.P,KT1,2*%
%TO.N,Net-(DT1-Pad2)*%
%TA.AperFunction,ComponentPad*%
G36*
G01*
X204453170Y-111302309D02*
X204492619Y-110723653D01*
G75*
G02*
X205824743Y-109561567I1247105J-85019D01*
G01*
X205824743Y-109561567D01*
G75*
G02*
X206986829Y-110893691I-85019J-1247105D01*
G01*
X206947381Y-111472347D01*
G75*
G02*
X205615257Y-112634433I-1247105J85019D01*
G01*
X205615257Y-112634433D01*
G75*
G02*
X204453171Y-111302309I85019J1247105D01*
G01*
G37*
%TD.AperFunction*%
%TO.P,KT1,1*%
%TO.N,/col9*%
%TA.AperFunction,ComponentPad*%
G36*
G01*
X198286299Y-112645191D02*
X199495223Y-110747560D01*
G75*
G02*
X201221087Y-110364946I1054239J-671625D01*
G01*
X201221087Y-110364946D01*
G75*
G02*
X201603701Y-112090810I-671625J-1054239D01*
G01*
X200394777Y-113988440D01*
G75*
G02*
X198668913Y-114371054I-1054239J671625D01*
G01*
X198668913Y-114371054D01*
G75*
G02*
X198286299Y-112645190I671625J1054239D01*
G01*
G37*
%TD.AperFunction*%
%TD*%
%TO.P,KSu1,2*%
%TO.N,Net-(DSu1-Pad2)*%
%TA.AperFunction,ComponentPad*%
G36*
G01*
X147303170Y-168452309D02*
X147342619Y-167873653D01*
G75*
G02*
X148674743Y-166711567I1247105J-85019D01*
G01*
X148674743Y-166711567D01*
G75*
G02*
X149836829Y-168043691I-85019J-1247105D01*
G01*
X149797381Y-168622347D01*
G75*
G02*
X148465257Y-169784433I-1247105J85019D01*
G01*
X148465257Y-169784433D01*
G75*
G02*
X147303171Y-168452309I85019J1247105D01*
G01*
G37*
%TD.AperFunction*%
%TO.P,KSu1,1*%
%TO.N,/col6*%
%TA.AperFunction,ComponentPad*%
G36*
G01*
X141136299Y-169795191D02*
X142345223Y-167897560D01*
G75*
G02*
X144071087Y-167514946I1054239J-671625D01*
G01*
X144071087Y-167514946D01*
G75*
G02*
X144453701Y-169240810I-671625J-1054239D01*
G01*
X143244777Y-171138440D01*
G75*
G02*
X141518913Y-171521054I-1054239J671625D01*
G01*
X141518913Y-171521054D01*
G75*
G02*
X141136299Y-169795190I671625J1054239D01*
G01*
G37*
%TD.AperFunction*%
%TD*%
%TO.P,KS1,2*%
%TO.N,Net-(DS1-Pad2)*%
%TA.AperFunction,ComponentPad*%
G36*
G01*
X152065170Y-130352309D02*
X152104619Y-129773653D01*
G75*
G02*
X153436743Y-128611567I1247105J-85019D01*
G01*
X153436743Y-128611567D01*
G75*
G02*
X154598829Y-129943691I-85019J-1247105D01*
G01*
X154559381Y-130522347D01*
G75*
G02*
X153227257Y-131684433I-1247105J85019D01*
G01*
X153227257Y-131684433D01*
G75*
G02*
X152065171Y-130352309I85019J1247105D01*
G01*
G37*
%TD.AperFunction*%
%TO.P,KS1,1*%
%TO.N,/col6*%
%TA.AperFunction,ComponentPad*%
G36*
G01*
X145898299Y-131695191D02*
X147107223Y-129797560D01*
G75*
G02*
X148833087Y-129414946I1054239J-671625D01*
G01*
X148833087Y-129414946D01*
G75*
G02*
X149215701Y-131140810I-671625J-1054239D01*
G01*
X148006777Y-133038440D01*
G75*
G02*
X146280913Y-133421054I-1054239J671625D01*
G01*
X146280913Y-133421054D01*
G75*
G02*
X145898299Y-131695190I671625J1054239D01*
G01*
G37*
%TD.AperFunction*%
%TD*%
%TO.P,KRSu1,2*%
%TO.N,Net-(DRSu1-Pad2)*%
%TA.AperFunction,ComponentPad*%
G36*
G01*
X361615170Y-168452309D02*
X361654619Y-167873653D01*
G75*
G02*
X362986743Y-166711567I1247105J-85019D01*
G01*
X362986743Y-166711567D01*
G75*
G02*
X364148829Y-168043691I-85019J-1247105D01*
G01*
X364109381Y-168622347D01*
G75*
G02*
X362777257Y-169784433I-1247105J85019D01*
G01*
X362777257Y-169784433D01*
G75*
G02*
X361615171Y-168452309I85019J1247105D01*
G01*
G37*
%TD.AperFunction*%
%TO.P,KRSu1,1*%
%TO.N,/col17*%
%TA.AperFunction,ComponentPad*%
G36*
G01*
X355448299Y-169795191D02*
X356657223Y-167897560D01*
G75*
G02*
X358383087Y-167514946I1054239J-671625D01*
G01*
X358383087Y-167514946D01*
G75*
G02*
X358765701Y-169240810I-671625J-1054239D01*
G01*
X357556777Y-171138440D01*
G75*
G02*
X355830913Y-171521054I-1054239J671625D01*
G01*
X355830913Y-171521054D01*
G75*
G02*
X355448299Y-169795190I671625J1054239D01*
G01*
G37*
%TD.AperFunction*%
%TD*%
%TO.P,KRSpace1,2*%
%TO.N,Net-(DRSpace1-Pad2)*%
%TA.AperFunction,ComponentPad*%
G36*
G01*
X249697170Y-168452309D02*
X249736619Y-167873653D01*
G75*
G02*
X251068743Y-166711567I1247105J-85019D01*
G01*
X251068743Y-166711567D01*
G75*
G02*
X252230829Y-168043691I-85019J-1247105D01*
G01*
X252191381Y-168622347D01*
G75*
G02*
X250859257Y-169784433I-1247105J85019D01*
G01*
X250859257Y-169784433D01*
G75*
G02*
X249697171Y-168452309I85019J1247105D01*
G01*
G37*
%TD.AperFunction*%
%TO.P,KRSpace1,1*%
%TO.N,/col11*%
%TA.AperFunction,ComponentPad*%
G36*
G01*
X243530299Y-169795191D02*
X244739223Y-167897560D01*
G75*
G02*
X246465087Y-167514946I1054239J-671625D01*
G01*
X246465087Y-167514946D01*
G75*
G02*
X246847701Y-169240810I-671625J-1054239D01*
G01*
X245638777Y-171138440D01*
G75*
G02*
X243912913Y-171521054I-1054239J671625D01*
G01*
X243912913Y-171521054D01*
G75*
G02*
X243530299Y-169795190I671625J1054239D01*
G01*
G37*
%TD.AperFunction*%
%TD*%
%TO.P,KRShift1,2*%
%TO.N,Net-(DRShift1-Pad2)*%
%TA.AperFunction,ComponentPad*%
G36*
G01*
X340184170Y-149402309D02*
X340223619Y-148823653D01*
G75*
G02*
X341555743Y-147661567I1247105J-85019D01*
G01*
X341555743Y-147661567D01*
G75*
G02*
X342717829Y-148993691I-85019J-1247105D01*
G01*
X342678381Y-149572347D01*
G75*
G02*
X341346257Y-150734433I-1247105J85019D01*
G01*
X341346257Y-150734433D01*
G75*
G02*
X340184171Y-149402309I85019J1247105D01*
G01*
G37*
%TD.AperFunction*%
%TO.P,KRShift1,1*%
%TO.N,/col16*%
%TA.AperFunction,ComponentPad*%
G36*
G01*
X334017299Y-150745191D02*
X335226223Y-148847560D01*
G75*
G02*
X336952087Y-148464946I1054239J-671625D01*
G01*
X336952087Y-148464946D01*
G75*
G02*
X337334701Y-150190810I-671625J-1054239D01*
G01*
X336125777Y-152088440D01*
G75*
G02*
X334399913Y-152471054I-1054239J671625D01*
G01*
X334399913Y-152471054D01*
G75*
G02*
X334017299Y-150745190I671625J1054239D01*
G01*
G37*
%TD.AperFunction*%
%TD*%
%TO.P,KRight1,2*%
%TO.N,Net-(DRight1-Pad2)*%
%TA.AperFunction,ComponentPad*%
G36*
G01*
X337803170Y-168452309D02*
X337842619Y-167873653D01*
G75*
G02*
X339174743Y-166711567I1247105J-85019D01*
G01*
X339174743Y-166711567D01*
G75*
G02*
X340336829Y-168043691I-85019J-1247105D01*
G01*
X340297381Y-168622347D01*
G75*
G02*
X338965257Y-169784433I-1247105J85019D01*
G01*
X338965257Y-169784433D01*
G75*
G02*
X337803171Y-168452309I85019J1247105D01*
G01*
G37*
%TD.AperFunction*%
%TO.P,KRight1,1*%
%TO.N,/col16*%
%TA.AperFunction,ComponentPad*%
G36*
G01*
X331636299Y-169795191D02*
X332845223Y-167897560D01*
G75*
G02*
X334571087Y-167514946I1054239J-671625D01*
G01*
X334571087Y-167514946D01*
G75*
G02*
X334953701Y-169240810I-671625J-1054239D01*
G01*
X333744777Y-171138440D01*
G75*
G02*
X332018913Y-171521054I-1054239J671625D01*
G01*
X332018913Y-171521054D01*
G75*
G02*
X331636299Y-169795190I671625J1054239D01*
G01*
G37*
%TD.AperFunction*%
%TD*%
%TO.P,KREnter1,2*%
%TO.N,Net-(DREnter1-Pad2)*%
%TA.AperFunction,ComponentPad*%
G36*
G01*
X354472170Y-130352309D02*
X354511619Y-129773653D01*
G75*
G02*
X355843743Y-128611567I1247105J-85019D01*
G01*
X355843743Y-128611567D01*
G75*
G02*
X357005829Y-129943691I-85019J-1247105D01*
G01*
X356966381Y-130522347D01*
G75*
G02*
X355634257Y-131684433I-1247105J85019D01*
G01*
X355634257Y-131684433D01*
G75*
G02*
X354472171Y-130352309I85019J1247105D01*
G01*
G37*
%TD.AperFunction*%
%TO.P,KREnter1,1*%
%TO.N,/col16*%
%TA.AperFunction,ComponentPad*%
G36*
G01*
X348305299Y-131695191D02*
X349514223Y-129797560D01*
G75*
G02*
X351240087Y-129414946I1054239J-671625D01*
G01*
X351240087Y-129414946D01*
G75*
G02*
X351622701Y-131140810I-671625J-1054239D01*
G01*
X350413777Y-133038440D01*
G75*
G02*
X348687913Y-133421054I-1054239J671625D01*
G01*
X348687913Y-133421054D01*
G75*
G02*
X348305299Y-131695190I671625J1054239D01*
G01*
G37*
%TD.AperFunction*%
%TD*%
%TO.P,KR1,2*%
%TO.N,Net-(DR1-Pad2)*%
%TA.AperFunction,ComponentPad*%
G36*
G01*
X185403170Y-111302309D02*
X185442619Y-110723653D01*
G75*
G02*
X186774743Y-109561567I1247105J-85019D01*
G01*
X186774743Y-109561567D01*
G75*
G02*
X187936829Y-110893691I-85019J-1247105D01*
G01*
X187897381Y-111472347D01*
G75*
G02*
X186565257Y-112634433I-1247105J85019D01*
G01*
X186565257Y-112634433D01*
G75*
G02*
X185403171Y-111302309I85019J1247105D01*
G01*
G37*
%TD.AperFunction*%
%TO.P,KR1,1*%
%TO.N,/col8*%
%TA.AperFunction,ComponentPad*%
G36*
G01*
X179236299Y-112645191D02*
X180445223Y-110747560D01*
G75*
G02*
X182171087Y-110364946I1054239J-671625D01*
G01*
X182171087Y-110364946D01*
G75*
G02*
X182553701Y-112090810I-671625J-1054239D01*
G01*
X181344777Y-113988440D01*
G75*
G02*
X179618913Y-114371054I-1054239J671625D01*
G01*
X179618913Y-114371054D01*
G75*
G02*
X179236299Y-112645190I671625J1054239D01*
G01*
G37*
%TD.AperFunction*%
%TD*%
%TO.P,KQ1,2*%
%TO.N,Net-(DQ1-Pad2)*%
%TA.AperFunction,ComponentPad*%
G36*
G01*
X128253170Y-111302309D02*
X128292619Y-110723653D01*
G75*
G02*
X129624743Y-109561567I1247105J-85019D01*
G01*
X129624743Y-109561567D01*
G75*
G02*
X130786829Y-110893691I-85019J-1247105D01*
G01*
X130747381Y-111472347D01*
G75*
G02*
X129415257Y-112634433I-1247105J85019D01*
G01*
X129415257Y-112634433D01*
G75*
G02*
X128253171Y-111302309I85019J1247105D01*
G01*
G37*
%TD.AperFunction*%
%TO.P,KQ1,1*%
%TO.N,/col5*%
%TA.AperFunction,ComponentPad*%
G36*
G01*
X122086299Y-112645191D02*
X123295223Y-110747560D01*
G75*
G02*
X125021087Y-110364946I1054239J-671625D01*
G01*
X125021087Y-110364946D01*
G75*
G02*
X125403701Y-112090810I-671625J-1054239D01*
G01*
X124194777Y-113988440D01*
G75*
G02*
X122468913Y-114371054I-1054239J671625D01*
G01*
X122468913Y-114371054D01*
G75*
G02*
X122086299Y-112645190I671625J1054239D01*
G01*
G37*
%TD.AperFunction*%
%TD*%
%TO.P,KO1,2*%
%TO.N,Net-(DO1-Pad2)*%
%TA.AperFunction,ComponentPad*%
G36*
G01*
X280653170Y-111302309D02*
X280692619Y-110723653D01*
G75*
G02*
X282024743Y-109561567I1247105J-85019D01*
G01*
X282024743Y-109561567D01*
G75*
G02*
X283186829Y-110893691I-85019J-1247105D01*
G01*
X283147381Y-111472347D01*
G75*
G02*
X281815257Y-112634433I-1247105J85019D01*
G01*
X281815257Y-112634433D01*
G75*
G02*
X280653171Y-111302309I85019J1247105D01*
G01*
G37*
%TD.AperFunction*%
%TO.P,KO1,1*%
%TO.N,/col13*%
%TA.AperFunction,ComponentPad*%
G36*
G01*
X274486299Y-112645191D02*
X275695223Y-110747560D01*
G75*
G02*
X277421087Y-110364946I1054239J-671625D01*
G01*
X277421087Y-110364946D01*
G75*
G02*
X277803701Y-112090810I-671625J-1054239D01*
G01*
X276594777Y-113988440D01*
G75*
G02*
X274868913Y-114371054I-1054239J671625D01*
G01*
X274868913Y-114371054D01*
G75*
G02*
X274486299Y-112645190I671625J1054239D01*
G01*
G37*
%TD.AperFunction*%
%TD*%
%TO.P,KNumEnter1,2*%
%TO.N,Net-(DNumEnter1-Pad2)*%
%TA.AperFunction,ComponentPad*%
G36*
G01*
X80628170Y-168452309D02*
X80667619Y-167873653D01*
G75*
G02*
X81999743Y-166711567I1247105J-85019D01*
G01*
X81999743Y-166711567D01*
G75*
G02*
X83161829Y-168043691I-85019J-1247105D01*
G01*
X83122381Y-168622347D01*
G75*
G02*
X81790257Y-169784433I-1247105J85019D01*
G01*
X81790257Y-169784433D01*
G75*
G02*
X80628171Y-168452309I85019J1247105D01*
G01*
G37*
%TD.AperFunction*%
%TO.P,KNumEnter1,1*%
%TO.N,/col2*%
%TA.AperFunction,ComponentPad*%
G36*
G01*
X74461299Y-169795191D02*
X75670223Y-167897560D01*
G75*
G02*
X77396087Y-167514946I1054239J-671625D01*
G01*
X77396087Y-167514946D01*
G75*
G02*
X77778701Y-169240810I-671625J-1054239D01*
G01*
X76569777Y-171138440D01*
G75*
G02*
X74843913Y-171521054I-1054239J671625D01*
G01*
X74843913Y-171521054D01*
G75*
G02*
X74461299Y-169795190I671625J1054239D01*
G01*
G37*
%TD.AperFunction*%
%TD*%
%TO.P,KNum/1,2*%
%TO.N,Net-(DNum/1-Pad2)*%
%TA.AperFunction,ComponentPad*%
G36*
G01*
X42528170Y-92251809D02*
X42567619Y-91673153D01*
G75*
G02*
X43899743Y-90511067I1247105J-85019D01*
G01*
X43899743Y-90511067D01*
G75*
G02*
X45061829Y-91843191I-85019J-1247105D01*
G01*
X45022381Y-92421847D01*
G75*
G02*
X43690257Y-93583933I-1247105J85019D01*
G01*
X43690257Y-93583933D01*
G75*
G02*
X42528171Y-92251809I85019J1247105D01*
G01*
G37*
%TD.AperFunction*%
%TO.P,KNum/1,1*%
%TO.N,/col0*%
%TA.AperFunction,ComponentPad*%
G36*
G01*
X36361299Y-93594691D02*
X37570223Y-91697060D01*
G75*
G02*
X39296087Y-91314446I1054239J-671625D01*
G01*
X39296087Y-91314446D01*
G75*
G02*
X39678701Y-93040310I-671625J-1054239D01*
G01*
X38469777Y-94937940D01*
G75*
G02*
X36743913Y-95320554I-1054239J671625D01*
G01*
X36743913Y-95320554D01*
G75*
G02*
X36361299Y-93594690I671625J1054239D01*
G01*
G37*
%TD.AperFunction*%
%TD*%
%TO.P,KNum-1,2*%
%TO.N,Net-(DNum-1-Pad2)*%
%TA.AperFunction,ComponentPad*%
G36*
G01*
X80628170Y-92251809D02*
X80667619Y-91673153D01*
G75*
G02*
X81999743Y-90511067I1247105J-85019D01*
G01*
X81999743Y-90511067D01*
G75*
G02*
X83161829Y-91843191I-85019J-1247105D01*
G01*
X83122381Y-92421847D01*
G75*
G02*
X81790257Y-93583933I-1247105J85019D01*
G01*
X81790257Y-93583933D01*
G75*
G02*
X80628171Y-92251809I85019J1247105D01*
G01*
G37*
%TD.AperFunction*%
%TO.P,KNum-1,1*%
%TO.N,/col2*%
%TA.AperFunction,ComponentPad*%
G36*
G01*
X74461299Y-93594691D02*
X75670223Y-91697060D01*
G75*
G02*
X77396087Y-91314446I1054239J-671625D01*
G01*
X77396087Y-91314446D01*
G75*
G02*
X77778701Y-93040310I-671625J-1054239D01*
G01*
X76569777Y-94937940D01*
G75*
G02*
X74843913Y-95320554I-1054239J671625D01*
G01*
X74843913Y-95320554D01*
G75*
G02*
X74461299Y-93594690I671625J1054239D01*
G01*
G37*
%TD.AperFunction*%
%TD*%
%TO.P,KNum\u002A1,2*%
%TO.N,Net-(DNum\u002A1-Pad2)*%
%TA.AperFunction,ComponentPad*%
G36*
G01*
X61578170Y-92251809D02*
X61617619Y-91673153D01*
G75*
G02*
X62949743Y-90511067I1247105J-85019D01*
G01*
X62949743Y-90511067D01*
G75*
G02*
X64111829Y-91843191I-85019J-1247105D01*
G01*
X64072381Y-92421847D01*
G75*
G02*
X62740257Y-93583933I-1247105J85019D01*
G01*
X62740257Y-93583933D01*
G75*
G02*
X61578171Y-92251809I85019J1247105D01*
G01*
G37*
%TD.AperFunction*%
%TO.P,KNum\u002A1,1*%
%TO.N,/col1*%
%TA.AperFunction,ComponentPad*%
G36*
G01*
X55411299Y-93594691D02*
X56620223Y-91697060D01*
G75*
G02*
X58346087Y-91314446I1054239J-671625D01*
G01*
X58346087Y-91314446D01*
G75*
G02*
X58728701Y-93040310I-671625J-1054239D01*
G01*
X57519777Y-94937940D01*
G75*
G02*
X55793913Y-95320554I-1054239J671625D01*
G01*
X55793913Y-95320554D01*
G75*
G02*
X55411299Y-93594690I671625J1054239D01*
G01*
G37*
%TD.AperFunction*%
%TD*%
%TO.P,KNum9,2*%
%TO.N,Net-(DNum9-Pad2)*%
%TA.AperFunction,ComponentPad*%
G36*
G01*
X80628170Y-111302309D02*
X80667619Y-110723653D01*
G75*
G02*
X81999743Y-109561567I1247105J-85019D01*
G01*
X81999743Y-109561567D01*
G75*
G02*
X83161829Y-110893691I-85019J-1247105D01*
G01*
X83122381Y-111472347D01*
G75*
G02*
X81790257Y-112634433I-1247105J85019D01*
G01*
X81790257Y-112634433D01*
G75*
G02*
X80628171Y-111302309I85019J1247105D01*
G01*
G37*
%TD.AperFunction*%
%TO.P,KNum9,1*%
%TO.N,/col2*%
%TA.AperFunction,ComponentPad*%
G36*
G01*
X74461299Y-112645191D02*
X75670223Y-110747560D01*
G75*
G02*
X77396087Y-110364946I1054239J-671625D01*
G01*
X77396087Y-110364946D01*
G75*
G02*
X77778701Y-112090810I-671625J-1054239D01*
G01*
X76569777Y-113988440D01*
G75*
G02*
X74843913Y-114371054I-1054239J671625D01*
G01*
X74843913Y-114371054D01*
G75*
G02*
X74461299Y-112645190I671625J1054239D01*
G01*
G37*
%TD.AperFunction*%
%TD*%
%TO.P,KNum8,2*%
%TO.N,Net-(DNum8-Pad2)*%
%TA.AperFunction,ComponentPad*%
G36*
G01*
X61578170Y-111302309D02*
X61617619Y-110723653D01*
G75*
G02*
X62949743Y-109561567I1247105J-85019D01*
G01*
X62949743Y-109561567D01*
G75*
G02*
X64111829Y-110893691I-85019J-1247105D01*
G01*
X64072381Y-111472347D01*
G75*
G02*
X62740257Y-112634433I-1247105J85019D01*
G01*
X62740257Y-112634433D01*
G75*
G02*
X61578171Y-111302309I85019J1247105D01*
G01*
G37*
%TD.AperFunction*%
%TO.P,KNum8,1*%
%TO.N,/col1*%
%TA.AperFunction,ComponentPad*%
G36*
G01*
X55411299Y-112645191D02*
X56620223Y-110747560D01*
G75*
G02*
X58346087Y-110364946I1054239J-671625D01*
G01*
X58346087Y-110364946D01*
G75*
G02*
X58728701Y-112090810I-671625J-1054239D01*
G01*
X57519777Y-113988440D01*
G75*
G02*
X55793913Y-114371054I-1054239J671625D01*
G01*
X55793913Y-114371054D01*
G75*
G02*
X55411299Y-112645190I671625J1054239D01*
G01*
G37*
%TD.AperFunction*%
%TD*%
%TO.P,KNum7,2*%
%TO.N,Net-(DNum7-Pad2)*%
%TA.AperFunction,ComponentPad*%
G36*
G01*
X42528170Y-111302309D02*
X42567619Y-110723653D01*
G75*
G02*
X43899743Y-109561567I1247105J-85019D01*
G01*
X43899743Y-109561567D01*
G75*
G02*
X45061829Y-110893691I-85019J-1247105D01*
G01*
X45022381Y-111472347D01*
G75*
G02*
X43690257Y-112634433I-1247105J85019D01*
G01*
X43690257Y-112634433D01*
G75*
G02*
X42528171Y-111302309I85019J1247105D01*
G01*
G37*
%TD.AperFunction*%
%TO.P,KNum7,1*%
%TO.N,/col0*%
%TA.AperFunction,ComponentPad*%
G36*
G01*
X36361299Y-112645191D02*
X37570223Y-110747560D01*
G75*
G02*
X39296087Y-110364946I1054239J-671625D01*
G01*
X39296087Y-110364946D01*
G75*
G02*
X39678701Y-112090810I-671625J-1054239D01*
G01*
X38469777Y-113988440D01*
G75*
G02*
X36743913Y-114371054I-1054239J671625D01*
G01*
X36743913Y-114371054D01*
G75*
G02*
X36361299Y-112645190I671625J1054239D01*
G01*
G37*
%TD.AperFunction*%
%TD*%
%TO.P,KNum6,2*%
%TO.N,Net-(DNum6-Pad2)*%
%TA.AperFunction,ComponentPad*%
G36*
G01*
X80628170Y-130352309D02*
X80667619Y-129773653D01*
G75*
G02*
X81999743Y-128611567I1247105J-85019D01*
G01*
X81999743Y-128611567D01*
G75*
G02*
X83161829Y-129943691I-85019J-1247105D01*
G01*
X83122381Y-130522347D01*
G75*
G02*
X81790257Y-131684433I-1247105J85019D01*
G01*
X81790257Y-131684433D01*
G75*
G02*
X80628171Y-130352309I85019J1247105D01*
G01*
G37*
%TD.AperFunction*%
%TO.P,KNum6,1*%
%TO.N,/col2*%
%TA.AperFunction,ComponentPad*%
G36*
G01*
X74461299Y-131695191D02*
X75670223Y-129797560D01*
G75*
G02*
X77396087Y-129414946I1054239J-671625D01*
G01*
X77396087Y-129414946D01*
G75*
G02*
X77778701Y-131140810I-671625J-1054239D01*
G01*
X76569777Y-133038440D01*
G75*
G02*
X74843913Y-133421054I-1054239J671625D01*
G01*
X74843913Y-133421054D01*
G75*
G02*
X74461299Y-131695190I671625J1054239D01*
G01*
G37*
%TD.AperFunction*%
%TD*%
%TO.P,KNum5,2*%
%TO.N,Net-(DNum5-Pad2)*%
%TA.AperFunction,ComponentPad*%
G36*
G01*
X61578170Y-130352309D02*
X61617619Y-129773653D01*
G75*
G02*
X62949743Y-128611567I1247105J-85019D01*
G01*
X62949743Y-128611567D01*
G75*
G02*
X64111829Y-129943691I-85019J-1247105D01*
G01*
X64072381Y-130522347D01*
G75*
G02*
X62740257Y-131684433I-1247105J85019D01*
G01*
X62740257Y-131684433D01*
G75*
G02*
X61578171Y-130352309I85019J1247105D01*
G01*
G37*
%TD.AperFunction*%
%TO.P,KNum5,1*%
%TO.N,/col1*%
%TA.AperFunction,ComponentPad*%
G36*
G01*
X55411299Y-131695191D02*
X56620223Y-129797560D01*
G75*
G02*
X58346087Y-129414946I1054239J-671625D01*
G01*
X58346087Y-129414946D01*
G75*
G02*
X58728701Y-131140810I-671625J-1054239D01*
G01*
X57519777Y-133038440D01*
G75*
G02*
X55793913Y-133421054I-1054239J671625D01*
G01*
X55793913Y-133421054D01*
G75*
G02*
X55411299Y-131695190I671625J1054239D01*
G01*
G37*
%TD.AperFunction*%
%TD*%
%TO.P,KNum4,2*%
%TO.N,Net-(DNum4-Pad2)*%
%TA.AperFunction,ComponentPad*%
G36*
G01*
X42528170Y-130352309D02*
X42567619Y-129773653D01*
G75*
G02*
X43899743Y-128611567I1247105J-85019D01*
G01*
X43899743Y-128611567D01*
G75*
G02*
X45061829Y-129943691I-85019J-1247105D01*
G01*
X45022381Y-130522347D01*
G75*
G02*
X43690257Y-131684433I-1247105J85019D01*
G01*
X43690257Y-131684433D01*
G75*
G02*
X42528171Y-130352309I85019J1247105D01*
G01*
G37*
%TD.AperFunction*%
%TO.P,KNum4,1*%
%TO.N,/col0*%
%TA.AperFunction,ComponentPad*%
G36*
G01*
X36361299Y-131695191D02*
X37570223Y-129797560D01*
G75*
G02*
X39296087Y-129414946I1054239J-671625D01*
G01*
X39296087Y-129414946D01*
G75*
G02*
X39678701Y-131140810I-671625J-1054239D01*
G01*
X38469777Y-133038440D01*
G75*
G02*
X36743913Y-133421054I-1054239J671625D01*
G01*
X36743913Y-133421054D01*
G75*
G02*
X36361299Y-131695190I671625J1054239D01*
G01*
G37*
%TD.AperFunction*%
%TD*%
%TO.P,KNum3,2*%
%TO.N,Net-(DNum3-Pad2)*%
%TA.AperFunction,ComponentPad*%
G36*
G01*
X80628170Y-149402309D02*
X80667619Y-148823653D01*
G75*
G02*
X81999743Y-147661567I1247105J-85019D01*
G01*
X81999743Y-147661567D01*
G75*
G02*
X83161829Y-148993691I-85019J-1247105D01*
G01*
X83122381Y-149572347D01*
G75*
G02*
X81790257Y-150734433I-1247105J85019D01*
G01*
X81790257Y-150734433D01*
G75*
G02*
X80628171Y-149402309I85019J1247105D01*
G01*
G37*
%TD.AperFunction*%
%TO.P,KNum3,1*%
%TO.N,/col2*%
%TA.AperFunction,ComponentPad*%
G36*
G01*
X74461299Y-150745191D02*
X75670223Y-148847560D01*
G75*
G02*
X77396087Y-148464946I1054239J-671625D01*
G01*
X77396087Y-148464946D01*
G75*
G02*
X77778701Y-150190810I-671625J-1054239D01*
G01*
X76569777Y-152088440D01*
G75*
G02*
X74843913Y-152471054I-1054239J671625D01*
G01*
X74843913Y-152471054D01*
G75*
G02*
X74461299Y-150745190I671625J1054239D01*
G01*
G37*
%TD.AperFunction*%
%TD*%
%TO.P,KNum2,2*%
%TO.N,Net-(DNum2-Pad2)*%
%TA.AperFunction,ComponentPad*%
G36*
G01*
X61578170Y-149402309D02*
X61617619Y-148823653D01*
G75*
G02*
X62949743Y-147661567I1247105J-85019D01*
G01*
X62949743Y-147661567D01*
G75*
G02*
X64111829Y-148993691I-85019J-1247105D01*
G01*
X64072381Y-149572347D01*
G75*
G02*
X62740257Y-150734433I-1247105J85019D01*
G01*
X62740257Y-150734433D01*
G75*
G02*
X61578171Y-149402309I85019J1247105D01*
G01*
G37*
%TD.AperFunction*%
%TO.P,KNum2,1*%
%TO.N,/col1*%
%TA.AperFunction,ComponentPad*%
G36*
G01*
X55411299Y-150745191D02*
X56620223Y-148847560D01*
G75*
G02*
X58346087Y-148464946I1054239J-671625D01*
G01*
X58346087Y-148464946D01*
G75*
G02*
X58728701Y-150190810I-671625J-1054239D01*
G01*
X57519777Y-152088440D01*
G75*
G02*
X55793913Y-152471054I-1054239J671625D01*
G01*
X55793913Y-152471054D01*
G75*
G02*
X55411299Y-150745190I671625J1054239D01*
G01*
G37*
%TD.AperFunction*%
%TD*%
%TO.P,KNum1,2*%
%TO.N,Net-(DNum1-Pad2)*%
%TA.AperFunction,ComponentPad*%
G36*
G01*
X42528170Y-149402309D02*
X42567619Y-148823653D01*
G75*
G02*
X43899743Y-147661567I1247105J-85019D01*
G01*
X43899743Y-147661567D01*
G75*
G02*
X45061829Y-148993691I-85019J-1247105D01*
G01*
X45022381Y-149572347D01*
G75*
G02*
X43690257Y-150734433I-1247105J85019D01*
G01*
X43690257Y-150734433D01*
G75*
G02*
X42528171Y-149402309I85019J1247105D01*
G01*
G37*
%TD.AperFunction*%
%TO.P,KNum1,1*%
%TO.N,/col0*%
%TA.AperFunction,ComponentPad*%
G36*
G01*
X36361299Y-150745191D02*
X37570223Y-148847560D01*
G75*
G02*
X39296087Y-148464946I1054239J-671625D01*
G01*
X39296087Y-148464946D01*
G75*
G02*
X39678701Y-150190810I-671625J-1054239D01*
G01*
X38469777Y-152088440D01*
G75*
G02*
X36743913Y-152471054I-1054239J671625D01*
G01*
X36743913Y-152471054D01*
G75*
G02*
X36361299Y-150745190I671625J1054239D01*
G01*
G37*
%TD.AperFunction*%
%TD*%
%TO.P,KNum0,2*%
%TO.N,Net-(DNum0-Pad2)*%
%TA.AperFunction,ComponentPad*%
G36*
G01*
X42528170Y-168452309D02*
X42567619Y-167873653D01*
G75*
G02*
X43899743Y-166711567I1247105J-85019D01*
G01*
X43899743Y-166711567D01*
G75*
G02*
X45061829Y-168043691I-85019J-1247105D01*
G01*
X45022381Y-168622347D01*
G75*
G02*
X43690257Y-169784433I-1247105J85019D01*
G01*
X43690257Y-169784433D01*
G75*
G02*
X42528171Y-168452309I85019J1247105D01*
G01*
G37*
%TD.AperFunction*%
%TO.P,KNum0,1*%
%TO.N,/col0*%
%TA.AperFunction,ComponentPad*%
G36*
G01*
X36361299Y-169795191D02*
X37570223Y-167897560D01*
G75*
G02*
X39296087Y-167514946I1054239J-671625D01*
G01*
X39296087Y-167514946D01*
G75*
G02*
X39678701Y-169240810I-671625J-1054239D01*
G01*
X38469777Y-171138440D01*
G75*
G02*
X36743913Y-171521054I-1054239J671625D01*
G01*
X36743913Y-171521054D01*
G75*
G02*
X36361299Y-169795190I671625J1054239D01*
G01*
G37*
%TD.AperFunction*%
%TD*%
%TO.P,KNum.1,2*%
%TO.N,Net-(DNum.1-Pad2)*%
%TA.AperFunction,ComponentPad*%
G36*
G01*
X61578170Y-168452309D02*
X61617619Y-167873653D01*
G75*
G02*
X62949743Y-166711567I1247105J-85019D01*
G01*
X62949743Y-166711567D01*
G75*
G02*
X64111829Y-168043691I-85019J-1247105D01*
G01*
X64072381Y-168622347D01*
G75*
G02*
X62740257Y-169784433I-1247105J85019D01*
G01*
X62740257Y-169784433D01*
G75*
G02*
X61578171Y-168452309I85019J1247105D01*
G01*
G37*
%TD.AperFunction*%
%TO.P,KNum.1,1*%
%TO.N,/col1*%
%TA.AperFunction,ComponentPad*%
G36*
G01*
X55411299Y-169795191D02*
X56620223Y-167897560D01*
G75*
G02*
X58346087Y-167514946I1054239J-671625D01*
G01*
X58346087Y-167514946D01*
G75*
G02*
X58728701Y-169240810I-671625J-1054239D01*
G01*
X57519777Y-171138440D01*
G75*
G02*
X55793913Y-171521054I-1054239J671625D01*
G01*
X55793913Y-171521054D01*
G75*
G02*
X55411299Y-169795190I671625J1054239D01*
G01*
G37*
%TD.AperFunction*%
%TD*%
%TO.P,KN1,2*%
%TO.N,Net-(DN1-Pad2)*%
%TA.AperFunction,ComponentPad*%
G36*
G01*
X237791170Y-149402309D02*
X237830619Y-148823653D01*
G75*
G02*
X239162743Y-147661567I1247105J-85019D01*
G01*
X239162743Y-147661567D01*
G75*
G02*
X240324829Y-148993691I-85019J-1247105D01*
G01*
X240285381Y-149572347D01*
G75*
G02*
X238953257Y-150734433I-1247105J85019D01*
G01*
X238953257Y-150734433D01*
G75*
G02*
X237791171Y-149402309I85019J1247105D01*
G01*
G37*
%TD.AperFunction*%
%TO.P,KN1,1*%
%TO.N,/col10*%
%TA.AperFunction,ComponentPad*%
G36*
G01*
X231624299Y-150745191D02*
X232833223Y-148847560D01*
G75*
G02*
X234559087Y-148464946I1054239J-671625D01*
G01*
X234559087Y-148464946D01*
G75*
G02*
X234941701Y-150190810I-671625J-1054239D01*
G01*
X233732777Y-152088440D01*
G75*
G02*
X232006913Y-152471054I-1054239J671625D01*
G01*
X232006913Y-152471054D01*
G75*
G02*
X231624299Y-150745190I671625J1054239D01*
G01*
G37*
%TD.AperFunction*%
%TD*%
%TO.P,KM1,2*%
%TO.N,Net-(DM1-Pad2)*%
%TA.AperFunction,ComponentPad*%
G36*
G01*
X256841170Y-149402309D02*
X256880619Y-148823653D01*
G75*
G02*
X258212743Y-147661567I1247105J-85019D01*
G01*
X258212743Y-147661567D01*
G75*
G02*
X259374829Y-148993691I-85019J-1247105D01*
G01*
X259335381Y-149572347D01*
G75*
G02*
X258003257Y-150734433I-1247105J85019D01*
G01*
X258003257Y-150734433D01*
G75*
G02*
X256841171Y-149402309I85019J1247105D01*
G01*
G37*
%TD.AperFunction*%
%TO.P,KM1,1*%
%TO.N,/col11*%
%TA.AperFunction,ComponentPad*%
G36*
G01*
X250674299Y-150745191D02*
X251883223Y-148847560D01*
G75*
G02*
X253609087Y-148464946I1054239J-671625D01*
G01*
X253609087Y-148464946D01*
G75*
G02*
X253991701Y-150190810I-671625J-1054239D01*
G01*
X252782777Y-152088440D01*
G75*
G02*
X251056913Y-152471054I-1054239J671625D01*
G01*
X251056913Y-152471054D01*
G75*
G02*
X250674299Y-150745190I671625J1054239D01*
G01*
G37*
%TD.AperFunction*%
%TD*%
%TO.P,KLSpace1,2*%
%TO.N,Net-(DLSpace1-Pad2)*%
%TA.AperFunction,ComponentPad*%
G36*
G01*
X202072170Y-168452309D02*
X202111619Y-167873653D01*
G75*
G02*
X203443743Y-166711567I1247105J-85019D01*
G01*
X203443743Y-166711567D01*
G75*
G02*
X204605829Y-168043691I-85019J-1247105D01*
G01*
X204566381Y-168622347D01*
G75*
G02*
X203234257Y-169784433I-1247105J85019D01*
G01*
X203234257Y-169784433D01*
G75*
G02*
X202072171Y-168452309I85019J1247105D01*
G01*
G37*
%TD.AperFunction*%
%TO.P,KLSpace1,1*%
%TO.N,/col8*%
%TA.AperFunction,ComponentPad*%
G36*
G01*
X195905299Y-169795191D02*
X197114223Y-167897560D01*
G75*
G02*
X198840087Y-167514946I1054239J-671625D01*
G01*
X198840087Y-167514946D01*
G75*
G02*
X199222701Y-169240810I-671625J-1054239D01*
G01*
X198013777Y-171138440D01*
G75*
G02*
X196287913Y-171521054I-1054239J671625D01*
G01*
X196287913Y-171521054D01*
G75*
G02*
X195905299Y-169795190I671625J1054239D01*
G01*
G37*
%TD.AperFunction*%
%TD*%
%TO.P,KLShift1,2*%
%TO.N,Net-(DLShift1-Pad2)*%
%TA.AperFunction,ComponentPad*%
G36*
G01*
X111584170Y-149402309D02*
X111623619Y-148823653D01*
G75*
G02*
X112955743Y-147661567I1247105J-85019D01*
G01*
X112955743Y-147661567D01*
G75*
G02*
X114117829Y-148993691I-85019J-1247105D01*
G01*
X114078381Y-149572347D01*
G75*
G02*
X112746257Y-150734433I-1247105J85019D01*
G01*
X112746257Y-150734433D01*
G75*
G02*
X111584171Y-149402309I85019J1247105D01*
G01*
G37*
%TD.AperFunction*%
%TO.P,KLShift1,1*%
%TO.N,/col4*%
%TA.AperFunction,ComponentPad*%
G36*
G01*
X105417299Y-150745191D02*
X106626223Y-148847560D01*
G75*
G02*
X108352087Y-148464946I1054239J-671625D01*
G01*
X108352087Y-148464946D01*
G75*
G02*
X108734701Y-150190810I-671625J-1054239D01*
G01*
X107525777Y-152088440D01*
G75*
G02*
X105799913Y-152471054I-1054239J671625D01*
G01*
X105799913Y-152471054D01*
G75*
G02*
X105417299Y-150745190I671625J1054239D01*
G01*
G37*
%TD.AperFunction*%
%TD*%
%TO.P,KLOpt1,2*%
%TO.N,Net-(DLOpt1-Pad2)*%
%TA.AperFunction,ComponentPad*%
G36*
G01*
X102059170Y-168452309D02*
X102098619Y-167873653D01*
G75*
G02*
X103430743Y-166711567I1247105J-85019D01*
G01*
X103430743Y-166711567D01*
G75*
G02*
X104592829Y-168043691I-85019J-1247105D01*
G01*
X104553381Y-168622347D01*
G75*
G02*
X103221257Y-169784433I-1247105J85019D01*
G01*
X103221257Y-169784433D01*
G75*
G02*
X102059171Y-168452309I85019J1247105D01*
G01*
G37*
%TD.AperFunction*%
%TO.P,KLOpt1,1*%
%TO.N,/col3*%
%TA.AperFunction,ComponentPad*%
G36*
G01*
X95892299Y-169795191D02*
X97101223Y-167897560D01*
G75*
G02*
X98827087Y-167514946I1054239J-671625D01*
G01*
X98827087Y-167514946D01*
G75*
G02*
X99209701Y-169240810I-671625J-1054239D01*
G01*
X98000777Y-171138440D01*
G75*
G02*
X96274913Y-171521054I-1054239J671625D01*
G01*
X96274913Y-171521054D01*
G75*
G02*
X95892299Y-169795190I671625J1054239D01*
G01*
G37*
%TD.AperFunction*%
%TD*%
%TO.P,KLeft1,2*%
%TO.N,Net-(DLeft1-Pad2)*%
%TA.AperFunction,ComponentPad*%
G36*
G01*
X280653170Y-168452309D02*
X280692619Y-167873653D01*
G75*
G02*
X282024743Y-166711567I1247105J-85019D01*
G01*
X282024743Y-166711567D01*
G75*
G02*
X283186829Y-168043691I-85019J-1247105D01*
G01*
X283147381Y-168622347D01*
G75*
G02*
X281815257Y-169784433I-1247105J85019D01*
G01*
X281815257Y-169784433D01*
G75*
G02*
X280653171Y-168452309I85019J1247105D01*
G01*
G37*
%TD.AperFunction*%
%TO.P,KLeft1,1*%
%TO.N,/col13*%
%TA.AperFunction,ComponentPad*%
G36*
G01*
X274486299Y-169795191D02*
X275695223Y-167897560D01*
G75*
G02*
X277421087Y-167514946I1054239J-671625D01*
G01*
X277421087Y-167514946D01*
G75*
G02*
X277803701Y-169240810I-671625J-1054239D01*
G01*
X276594777Y-171138440D01*
G75*
G02*
X274868913Y-171521054I-1054239J671625D01*
G01*
X274868913Y-171521054D01*
G75*
G02*
X274486299Y-169795190I671625J1054239D01*
G01*
G37*
%TD.AperFunction*%
%TD*%
%TO.P,KLAlt1,2*%
%TO.N,Net-(DLAlt1-Pad2)*%
%TA.AperFunction,ComponentPad*%
G36*
G01*
X125872170Y-168452309D02*
X125911619Y-167873653D01*
G75*
G02*
X127243743Y-166711567I1247105J-85019D01*
G01*
X127243743Y-166711567D01*
G75*
G02*
X128405829Y-168043691I-85019J-1247105D01*
G01*
X128366381Y-168622347D01*
G75*
G02*
X127034257Y-169784433I-1247105J85019D01*
G01*
X127034257Y-169784433D01*
G75*
G02*
X125872171Y-168452309I85019J1247105D01*
G01*
G37*
%TD.AperFunction*%
%TO.P,KLAlt1,1*%
%TO.N,/col4*%
%TA.AperFunction,ComponentPad*%
G36*
G01*
X119705299Y-169795191D02*
X120914223Y-167897560D01*
G75*
G02*
X122640087Y-167514946I1054239J-671625D01*
G01*
X122640087Y-167514946D01*
G75*
G02*
X123022701Y-169240810I-671625J-1054239D01*
G01*
X121813777Y-171138440D01*
G75*
G02*
X120087913Y-171521054I-1054239J671625D01*
G01*
X120087913Y-171521054D01*
G75*
G02*
X119705299Y-169795190I671625J1054239D01*
G01*
G37*
%TD.AperFunction*%
%TD*%
%TO.P,KL1,2*%
%TO.N,Net-(DL1-Pad2)*%
%TA.AperFunction,ComponentPad*%
G36*
G01*
X285415170Y-130352309D02*
X285454619Y-129773653D01*
G75*
G02*
X286786743Y-128611567I1247105J-85019D01*
G01*
X286786743Y-128611567D01*
G75*
G02*
X287948829Y-129943691I-85019J-1247105D01*
G01*
X287909381Y-130522347D01*
G75*
G02*
X286577257Y-131684433I-1247105J85019D01*
G01*
X286577257Y-131684433D01*
G75*
G02*
X285415171Y-130352309I85019J1247105D01*
G01*
G37*
%TD.AperFunction*%
%TO.P,KL1,1*%
%TO.N,/col13*%
%TA.AperFunction,ComponentPad*%
G36*
G01*
X279248299Y-131695191D02*
X280457223Y-129797560D01*
G75*
G02*
X282183087Y-129414946I1054239J-671625D01*
G01*
X282183087Y-129414946D01*
G75*
G02*
X282565701Y-131140810I-671625J-1054239D01*
G01*
X281356777Y-133038440D01*
G75*
G02*
X279630913Y-133421054I-1054239J671625D01*
G01*
X279630913Y-133421054D01*
G75*
G02*
X279248299Y-131695190I671625J1054239D01*
G01*
G37*
%TD.AperFunction*%
%TD*%
%TO.P,KK1,2*%
%TO.N,Net-(DK1-Pad2)*%
%TA.AperFunction,ComponentPad*%
G36*
G01*
X266365170Y-130352309D02*
X266404619Y-129773653D01*
G75*
G02*
X267736743Y-128611567I1247105J-85019D01*
G01*
X267736743Y-128611567D01*
G75*
G02*
X268898829Y-129943691I-85019J-1247105D01*
G01*
X268859381Y-130522347D01*
G75*
G02*
X267527257Y-131684433I-1247105J85019D01*
G01*
X267527257Y-131684433D01*
G75*
G02*
X266365171Y-130352309I85019J1247105D01*
G01*
G37*
%TD.AperFunction*%
%TO.P,KK1,1*%
%TO.N,/col12*%
%TA.AperFunction,ComponentPad*%
G36*
G01*
X260198299Y-131695191D02*
X261407223Y-129797560D01*
G75*
G02*
X263133087Y-129414946I1054239J-671625D01*
G01*
X263133087Y-129414946D01*
G75*
G02*
X263515701Y-131140810I-671625J-1054239D01*
G01*
X262306777Y-133038440D01*
G75*
G02*
X260580913Y-133421054I-1054239J671625D01*
G01*
X260580913Y-133421054D01*
G75*
G02*
X260198299Y-131695190I671625J1054239D01*
G01*
G37*
%TD.AperFunction*%
%TD*%
%TO.P,KJ1,2*%
%TO.N,Net-(DJ1-Pad2)*%
%TA.AperFunction,ComponentPad*%
G36*
G01*
X247315170Y-130352309D02*
X247354619Y-129773653D01*
G75*
G02*
X248686743Y-128611567I1247105J-85019D01*
G01*
X248686743Y-128611567D01*
G75*
G02*
X249848829Y-129943691I-85019J-1247105D01*
G01*
X249809381Y-130522347D01*
G75*
G02*
X248477257Y-131684433I-1247105J85019D01*
G01*
X248477257Y-131684433D01*
G75*
G02*
X247315171Y-130352309I85019J1247105D01*
G01*
G37*
%TD.AperFunction*%
%TO.P,KJ1,1*%
%TO.N,/col11*%
%TA.AperFunction,ComponentPad*%
G36*
G01*
X241148299Y-131695191D02*
X242357223Y-129797560D01*
G75*
G02*
X244083087Y-129414946I1054239J-671625D01*
G01*
X244083087Y-129414946D01*
G75*
G02*
X244465701Y-131140810I-671625J-1054239D01*
G01*
X243256777Y-133038440D01*
G75*
G02*
X241530913Y-133421054I-1054239J671625D01*
G01*
X241530913Y-133421054D01*
G75*
G02*
X241148299Y-131695190I671625J1054239D01*
G01*
G37*
%TD.AperFunction*%
%TD*%
%TO.P,KI1,2*%
%TO.N,Net-(DI1-Pad2)*%
%TA.AperFunction,ComponentPad*%
G36*
G01*
X261603170Y-111302309D02*
X261642619Y-110723653D01*
G75*
G02*
X262974743Y-109561567I1247105J-85019D01*
G01*
X262974743Y-109561567D01*
G75*
G02*
X264136829Y-110893691I-85019J-1247105D01*
G01*
X264097381Y-111472347D01*
G75*
G02*
X262765257Y-112634433I-1247105J85019D01*
G01*
X262765257Y-112634433D01*
G75*
G02*
X261603171Y-111302309I85019J1247105D01*
G01*
G37*
%TD.AperFunction*%
%TO.P,KI1,1*%
%TO.N,/col12*%
%TA.AperFunction,ComponentPad*%
G36*
G01*
X255436299Y-112645191D02*
X256645223Y-110747560D01*
G75*
G02*
X258371087Y-110364946I1054239J-671625D01*
G01*
X258371087Y-110364946D01*
G75*
G02*
X258753701Y-112090810I-671625J-1054239D01*
G01*
X257544777Y-113988440D01*
G75*
G02*
X255818913Y-114371054I-1054239J671625D01*
G01*
X255818913Y-114371054D01*
G75*
G02*
X255436299Y-112645190I671625J1054239D01*
G01*
G37*
%TD.AperFunction*%
%TD*%
%TO.P,KH1,2*%
%TO.N,Net-(DH1-Pad2)*%
%TA.AperFunction,ComponentPad*%
G36*
G01*
X228265170Y-130352309D02*
X228304619Y-129773653D01*
G75*
G02*
X229636743Y-128611567I1247105J-85019D01*
G01*
X229636743Y-128611567D01*
G75*
G02*
X230798829Y-129943691I-85019J-1247105D01*
G01*
X230759381Y-130522347D01*
G75*
G02*
X229427257Y-131684433I-1247105J85019D01*
G01*
X229427257Y-131684433D01*
G75*
G02*
X228265171Y-130352309I85019J1247105D01*
G01*
G37*
%TD.AperFunction*%
%TO.P,KH1,1*%
%TO.N,/col10*%
%TA.AperFunction,ComponentPad*%
G36*
G01*
X222098299Y-131695191D02*
X223307223Y-129797560D01*
G75*
G02*
X225033087Y-129414946I1054239J-671625D01*
G01*
X225033087Y-129414946D01*
G75*
G02*
X225415701Y-131140810I-671625J-1054239D01*
G01*
X224206777Y-133038440D01*
G75*
G02*
X222480913Y-133421054I-1054239J671625D01*
G01*
X222480913Y-133421054D01*
G75*
G02*
X222098299Y-131695190I671625J1054239D01*
G01*
G37*
%TD.AperFunction*%
%TD*%
%TO.P,KG1,2*%
%TO.N,Net-(DG1-Pad2)*%
%TA.AperFunction,ComponentPad*%
G36*
G01*
X209215170Y-130352309D02*
X209254619Y-129773653D01*
G75*
G02*
X210586743Y-128611567I1247105J-85019D01*
G01*
X210586743Y-128611567D01*
G75*
G02*
X211748829Y-129943691I-85019J-1247105D01*
G01*
X211709381Y-130522347D01*
G75*
G02*
X210377257Y-131684433I-1247105J85019D01*
G01*
X210377257Y-131684433D01*
G75*
G02*
X209215171Y-130352309I85019J1247105D01*
G01*
G37*
%TD.AperFunction*%
%TO.P,KG1,1*%
%TO.N,/col9*%
%TA.AperFunction,ComponentPad*%
G36*
G01*
X203048299Y-131695191D02*
X204257223Y-129797560D01*
G75*
G02*
X205983087Y-129414946I1054239J-671625D01*
G01*
X205983087Y-129414946D01*
G75*
G02*
X206365701Y-131140810I-671625J-1054239D01*
G01*
X205156777Y-133038440D01*
G75*
G02*
X203430913Y-133421054I-1054239J671625D01*
G01*
X203430913Y-133421054D01*
G75*
G02*
X203048299Y-131695190I671625J1054239D01*
G01*
G37*
%TD.AperFunction*%
%TD*%
%TO.P,KF1,2*%
%TO.N,Net-(DF1-Pad2)*%
%TA.AperFunction,ComponentPad*%
G36*
G01*
X190165170Y-130352309D02*
X190204619Y-129773653D01*
G75*
G02*
X191536743Y-128611567I1247105J-85019D01*
G01*
X191536743Y-128611567D01*
G75*
G02*
X192698829Y-129943691I-85019J-1247105D01*
G01*
X192659381Y-130522347D01*
G75*
G02*
X191327257Y-131684433I-1247105J85019D01*
G01*
X191327257Y-131684433D01*
G75*
G02*
X190165171Y-130352309I85019J1247105D01*
G01*
G37*
%TD.AperFunction*%
%TO.P,KF1,1*%
%TO.N,/col8*%
%TA.AperFunction,ComponentPad*%
G36*
G01*
X183998299Y-131695191D02*
X185207223Y-129797560D01*
G75*
G02*
X186933087Y-129414946I1054239J-671625D01*
G01*
X186933087Y-129414946D01*
G75*
G02*
X187315701Y-131140810I-671625J-1054239D01*
G01*
X186106777Y-133038440D01*
G75*
G02*
X184380913Y-133421054I-1054239J671625D01*
G01*
X184380913Y-133421054D01*
G75*
G02*
X183998299Y-131695190I671625J1054239D01*
G01*
G37*
%TD.AperFunction*%
%TD*%
%TO.P,KEsc1,2*%
%TO.N,Net-(DEsc1-Pad2)*%
%TA.AperFunction,ComponentPad*%
G36*
G01*
X99678170Y-92251809D02*
X99717619Y-91673153D01*
G75*
G02*
X101049743Y-90511067I1247105J-85019D01*
G01*
X101049743Y-90511067D01*
G75*
G02*
X102211829Y-91843191I-85019J-1247105D01*
G01*
X102172381Y-92421847D01*
G75*
G02*
X100840257Y-93583933I-1247105J85019D01*
G01*
X100840257Y-93583933D01*
G75*
G02*
X99678171Y-92251809I85019J1247105D01*
G01*
G37*
%TD.AperFunction*%
%TO.P,KEsc1,1*%
%TO.N,/col3*%
%TA.AperFunction,ComponentPad*%
G36*
G01*
X93511299Y-93594691D02*
X94720223Y-91697060D01*
G75*
G02*
X96446087Y-91314446I1054239J-671625D01*
G01*
X96446087Y-91314446D01*
G75*
G02*
X96828701Y-93040310I-671625J-1054239D01*
G01*
X95619777Y-94937940D01*
G75*
G02*
X93893913Y-95320554I-1054239J671625D01*
G01*
X93893913Y-95320554D01*
G75*
G02*
X93511299Y-93594690I671625J1054239D01*
G01*
G37*
%TD.AperFunction*%
%TD*%
%TO.P,KE1,2*%
%TO.N,Net-(DE1-Pad2)*%
%TA.AperFunction,ComponentPad*%
G36*
G01*
X166353170Y-111302309D02*
X166392619Y-110723653D01*
G75*
G02*
X167724743Y-109561567I1247105J-85019D01*
G01*
X167724743Y-109561567D01*
G75*
G02*
X168886829Y-110893691I-85019J-1247105D01*
G01*
X168847381Y-111472347D01*
G75*
G02*
X167515257Y-112634433I-1247105J85019D01*
G01*
X167515257Y-112634433D01*
G75*
G02*
X166353171Y-111302309I85019J1247105D01*
G01*
G37*
%TD.AperFunction*%
%TO.P,KE1,1*%
%TO.N,/col7*%
%TA.AperFunction,ComponentPad*%
G36*
G01*
X160186299Y-112645191D02*
X161395223Y-110747560D01*
G75*
G02*
X163121087Y-110364946I1054239J-671625D01*
G01*
X163121087Y-110364946D01*
G75*
G02*
X163503701Y-112090810I-671625J-1054239D01*
G01*
X162294777Y-113988440D01*
G75*
G02*
X160568913Y-114371054I-1054239J671625D01*
G01*
X160568913Y-114371054D01*
G75*
G02*
X160186299Y-112645190I671625J1054239D01*
G01*
G37*
%TD.AperFunction*%
%TD*%
%TO.P,KDown1,2*%
%TO.N,Net-(DDown1-Pad2)*%
%TA.AperFunction,ComponentPad*%
G36*
G01*
X299703170Y-168452309D02*
X299742619Y-167873653D01*
G75*
G02*
X301074743Y-166711567I1247105J-85019D01*
G01*
X301074743Y-166711567D01*
G75*
G02*
X302236829Y-168043691I-85019J-1247105D01*
G01*
X302197381Y-168622347D01*
G75*
G02*
X300865257Y-169784433I-1247105J85019D01*
G01*
X300865257Y-169784433D01*
G75*
G02*
X299703171Y-168452309I85019J1247105D01*
G01*
G37*
%TD.AperFunction*%
%TO.P,KDown1,1*%
%TO.N,/col14*%
%TA.AperFunction,ComponentPad*%
G36*
G01*
X293536299Y-169795191D02*
X294745223Y-167897560D01*
G75*
G02*
X296471087Y-167514946I1054239J-671625D01*
G01*
X296471087Y-167514946D01*
G75*
G02*
X296853701Y-169240810I-671625J-1054239D01*
G01*
X295644777Y-171138440D01*
G75*
G02*
X293918913Y-171521054I-1054239J671625D01*
G01*
X293918913Y-171521054D01*
G75*
G02*
X293536299Y-169795190I671625J1054239D01*
G01*
G37*
%TD.AperFunction*%
%TD*%
%TO.P,KD1,2*%
%TO.N,Net-(DD1-Pad2)*%
%TA.AperFunction,ComponentPad*%
G36*
G01*
X171115170Y-130352309D02*
X171154619Y-129773653D01*
G75*
G02*
X172486743Y-128611567I1247105J-85019D01*
G01*
X172486743Y-128611567D01*
G75*
G02*
X173648829Y-129943691I-85019J-1247105D01*
G01*
X173609381Y-130522347D01*
G75*
G02*
X172277257Y-131684433I-1247105J85019D01*
G01*
X172277257Y-131684433D01*
G75*
G02*
X171115171Y-130352309I85019J1247105D01*
G01*
G37*
%TD.AperFunction*%
%TO.P,KD1,1*%
%TO.N,/col7*%
%TA.AperFunction,ComponentPad*%
G36*
G01*
X164948299Y-131695191D02*
X166157223Y-129797560D01*
G75*
G02*
X167883087Y-129414946I1054239J-671625D01*
G01*
X167883087Y-129414946D01*
G75*
G02*
X168265701Y-131140810I-671625J-1054239D01*
G01*
X167056777Y-133038440D01*
G75*
G02*
X165330913Y-133421054I-1054239J671625D01*
G01*
X165330913Y-133421054D01*
G75*
G02*
X164948299Y-131695190I671625J1054239D01*
G01*
G37*
%TD.AperFunction*%
%TD*%
%TO.P,KControl1,2*%
%TO.N,Net-(DControl1-Pad2)*%
%TA.AperFunction,ComponentPad*%
G36*
G01*
X106822170Y-130352309D02*
X106861619Y-129773653D01*
G75*
G02*
X108193743Y-128611567I1247105J-85019D01*
G01*
X108193743Y-128611567D01*
G75*
G02*
X109355829Y-129943691I-85019J-1247105D01*
G01*
X109316381Y-130522347D01*
G75*
G02*
X107984257Y-131684433I-1247105J85019D01*
G01*
X107984257Y-131684433D01*
G75*
G02*
X106822171Y-130352309I85019J1247105D01*
G01*
G37*
%TD.AperFunction*%
%TO.P,KControl1,1*%
%TO.N,/col3*%
%TA.AperFunction,ComponentPad*%
G36*
G01*
X100655299Y-131695191D02*
X101864223Y-129797560D01*
G75*
G02*
X103590087Y-129414946I1054239J-671625D01*
G01*
X103590087Y-129414946D01*
G75*
G02*
X103972701Y-131140810I-671625J-1054239D01*
G01*
X102763777Y-133038440D01*
G75*
G02*
X101037913Y-133421054I-1054239J671625D01*
G01*
X101037913Y-133421054D01*
G75*
G02*
X100655299Y-131695190I671625J1054239D01*
G01*
G37*
%TD.AperFunction*%
%TD*%
%TO.P,KC1,2*%
%TO.N,Net-(DC1-Pad2)*%
%TA.AperFunction,ComponentPad*%
G36*
G01*
X180641170Y-149402309D02*
X180680619Y-148823653D01*
G75*
G02*
X182012743Y-147661567I1247105J-85019D01*
G01*
X182012743Y-147661567D01*
G75*
G02*
X183174829Y-148993691I-85019J-1247105D01*
G01*
X183135381Y-149572347D01*
G75*
G02*
X181803257Y-150734433I-1247105J85019D01*
G01*
X181803257Y-150734433D01*
G75*
G02*
X180641171Y-149402309I85019J1247105D01*
G01*
G37*
%TD.AperFunction*%
%TO.P,KC1,1*%
%TO.N,/col7*%
%TA.AperFunction,ComponentPad*%
G36*
G01*
X174474299Y-150745191D02*
X175683223Y-148847560D01*
G75*
G02*
X177409087Y-148464946I1054239J-671625D01*
G01*
X177409087Y-148464946D01*
G75*
G02*
X177791701Y-150190810I-671625J-1054239D01*
G01*
X176582777Y-152088440D01*
G75*
G02*
X174856913Y-152471054I-1054239J671625D01*
G01*
X174856913Y-152471054D01*
G75*
G02*
X174474299Y-150745190I671625J1054239D01*
G01*
G37*
%TD.AperFunction*%
%TD*%
%TO.P,KBkspce1,2*%
%TO.N,Net-(DBkspce1-Pad2)*%
%TA.AperFunction,ComponentPad*%
G36*
G01*
X361615170Y-111302309D02*
X361654619Y-110723653D01*
G75*
G02*
X362986743Y-109561567I1247105J-85019D01*
G01*
X362986743Y-109561567D01*
G75*
G02*
X364148829Y-110893691I-85019J-1247105D01*
G01*
X364109381Y-111472347D01*
G75*
G02*
X362777257Y-112634433I-1247105J85019D01*
G01*
X362777257Y-112634433D01*
G75*
G02*
X361615171Y-111302309I85019J1247105D01*
G01*
G37*
%TD.AperFunction*%
%TO.P,KBkspce1,1*%
%TO.N,/col17*%
%TA.AperFunction,ComponentPad*%
G36*
G01*
X355448299Y-112645191D02*
X356657223Y-110747560D01*
G75*
G02*
X358383087Y-110364946I1054239J-671625D01*
G01*
X358383087Y-110364946D01*
G75*
G02*
X358765701Y-112090810I-671625J-1054239D01*
G01*
X357556777Y-113988440D01*
G75*
G02*
X355830913Y-114371054I-1054239J671625D01*
G01*
X355830913Y-114371054D01*
G75*
G02*
X355448299Y-112645190I671625J1054239D01*
G01*
G37*
%TD.AperFunction*%
%TD*%
%TO.P,KB1,2*%
%TO.N,Net-(DB1-Pad2)*%
%TA.AperFunction,ComponentPad*%
G36*
G01*
X218741170Y-149402309D02*
X218780619Y-148823653D01*
G75*
G02*
X220112743Y-147661567I1247105J-85019D01*
G01*
X220112743Y-147661567D01*
G75*
G02*
X221274829Y-148993691I-85019J-1247105D01*
G01*
X221235381Y-149572347D01*
G75*
G02*
X219903257Y-150734433I-1247105J85019D01*
G01*
X219903257Y-150734433D01*
G75*
G02*
X218741171Y-149402309I85019J1247105D01*
G01*
G37*
%TD.AperFunction*%
%TO.P,KB1,1*%
%TO.N,/col9*%
%TA.AperFunction,ComponentPad*%
G36*
G01*
X212574299Y-150745191D02*
X213783223Y-148847560D01*
G75*
G02*
X215509087Y-148464946I1054239J-671625D01*
G01*
X215509087Y-148464946D01*
G75*
G02*
X215891701Y-150190810I-671625J-1054239D01*
G01*
X214682777Y-152088440D01*
G75*
G02*
X212956913Y-152471054I-1054239J671625D01*
G01*
X212956913Y-152471054D01*
G75*
G02*
X212574299Y-150745190I671625J1054239D01*
G01*
G37*
%TD.AperFunction*%
%TD*%
%TO.P,KA1,2*%
%TO.N,Net-(DA1-Pad2)*%
%TA.AperFunction,ComponentPad*%
G36*
G01*
X133015170Y-130352309D02*
X133054619Y-129773653D01*
G75*
G02*
X134386743Y-128611567I1247105J-85019D01*
G01*
X134386743Y-128611567D01*
G75*
G02*
X135548829Y-129943691I-85019J-1247105D01*
G01*
X135509381Y-130522347D01*
G75*
G02*
X134177257Y-131684433I-1247105J85019D01*
G01*
X134177257Y-131684433D01*
G75*
G02*
X133015171Y-130352309I85019J1247105D01*
G01*
G37*
%TD.AperFunction*%
%TO.P,KA1,1*%
%TO.N,/col5*%
%TA.AperFunction,ComponentPad*%
G36*
G01*
X126848299Y-131695191D02*
X128057223Y-129797560D01*
G75*
G02*
X129783087Y-129414946I1054239J-671625D01*
G01*
X129783087Y-129414946D01*
G75*
G02*
X130165701Y-131140810I-671625J-1054239D01*
G01*
X128956777Y-133038440D01*
G75*
G02*
X127230913Y-133421054I-1054239J671625D01*
G01*
X127230913Y-133421054D01*
G75*
G02*
X126848299Y-131695190I671625J1054239D01*
G01*
G37*
%TD.AperFunction*%
%TD*%
%TO.P,K]1,2*%
%TO.N,Net-(D]1-Pad2)*%
%TA.AperFunction,ComponentPad*%
G36*
G01*
X337803170Y-111302309D02*
X337842619Y-110723653D01*
G75*
G02*
X339174743Y-109561567I1247105J-85019D01*
G01*
X339174743Y-109561567D01*
G75*
G02*
X340336829Y-110893691I-85019J-1247105D01*
G01*
X340297381Y-111472347D01*
G75*
G02*
X338965257Y-112634433I-1247105J85019D01*
G01*
X338965257Y-112634433D01*
G75*
G02*
X337803171Y-111302309I85019J1247105D01*
G01*
G37*
%TD.AperFunction*%
%TO.P,K]1,1*%
%TO.N,/col16*%
%TA.AperFunction,ComponentPad*%
G36*
G01*
X331636299Y-112645191D02*
X332845223Y-110747560D01*
G75*
G02*
X334571087Y-110364946I1054239J-671625D01*
G01*
X334571087Y-110364946D01*
G75*
G02*
X334953701Y-112090810I-671625J-1054239D01*
G01*
X333744777Y-113988440D01*
G75*
G02*
X332018913Y-114371054I-1054239J671625D01*
G01*
X332018913Y-114371054D01*
G75*
G02*
X331636299Y-112645190I671625J1054239D01*
G01*
G37*
%TD.AperFunction*%
%TD*%
%TO.P,K\u005C1,2*%
%TO.N,Net-(D\u005C1-Pad2)*%
%TA.AperFunction,ComponentPad*%
G36*
G01*
X347328170Y-92251809D02*
X347367619Y-91673153D01*
G75*
G02*
X348699743Y-90511067I1247105J-85019D01*
G01*
X348699743Y-90511067D01*
G75*
G02*
X349861829Y-91843191I-85019J-1247105D01*
G01*
X349822381Y-92421847D01*
G75*
G02*
X348490257Y-93583933I-1247105J85019D01*
G01*
X348490257Y-93583933D01*
G75*
G02*
X347328171Y-92251809I85019J1247105D01*
G01*
G37*
%TD.AperFunction*%
%TO.P,K\u005C1,1*%
%TO.N,/col16*%
%TA.AperFunction,ComponentPad*%
G36*
G01*
X341161299Y-93594691D02*
X342370223Y-91697060D01*
G75*
G02*
X344096087Y-91314446I1054239J-671625D01*
G01*
X344096087Y-91314446D01*
G75*
G02*
X344478701Y-93040310I-671625J-1054239D01*
G01*
X343269777Y-94937940D01*
G75*
G02*
X341543913Y-95320554I-1054239J671625D01*
G01*
X341543913Y-95320554D01*
G75*
G02*
X341161299Y-93594690I671625J1054239D01*
G01*
G37*
%TD.AperFunction*%
%TD*%
%TO.P,K[1,2*%
%TO.N,Net-(D[1-Pad2)*%
%TA.AperFunction,ComponentPad*%
G36*
G01*
X318753170Y-111302309D02*
X318792619Y-110723653D01*
G75*
G02*
X320124743Y-109561567I1247105J-85019D01*
G01*
X320124743Y-109561567D01*
G75*
G02*
X321286829Y-110893691I-85019J-1247105D01*
G01*
X321247381Y-111472347D01*
G75*
G02*
X319915257Y-112634433I-1247105J85019D01*
G01*
X319915257Y-112634433D01*
G75*
G02*
X318753171Y-111302309I85019J1247105D01*
G01*
G37*
%TD.AperFunction*%
%TO.P,K[1,1*%
%TO.N,/col15*%
%TA.AperFunction,ComponentPad*%
G36*
G01*
X312586299Y-112645191D02*
X313795223Y-110747560D01*
G75*
G02*
X315521087Y-110364946I1054239J-671625D01*
G01*
X315521087Y-110364946D01*
G75*
G02*
X315903701Y-112090810I-671625J-1054239D01*
G01*
X314694777Y-113988440D01*
G75*
G02*
X312968913Y-114371054I-1054239J671625D01*
G01*
X312968913Y-114371054D01*
G75*
G02*
X312586299Y-112645190I671625J1054239D01*
G01*
G37*
%TD.AperFunction*%
%TD*%
%TO.P,K=1,2*%
%TO.N,Net-(D=1-Pad2)*%
%TA.AperFunction,ComponentPad*%
G36*
G01*
X328278170Y-92251809D02*
X328317619Y-91673153D01*
G75*
G02*
X329649743Y-90511067I1247105J-85019D01*
G01*
X329649743Y-90511067D01*
G75*
G02*
X330811829Y-91843191I-85019J-1247105D01*
G01*
X330772381Y-92421847D01*
G75*
G02*
X329440257Y-93583933I-1247105J85019D01*
G01*
X329440257Y-93583933D01*
G75*
G02*
X328278171Y-92251809I85019J1247105D01*
G01*
G37*
%TD.AperFunction*%
%TO.P,K=1,1*%
%TO.N,/col15*%
%TA.AperFunction,ComponentPad*%
G36*
G01*
X322111299Y-93594691D02*
X323320223Y-91697060D01*
G75*
G02*
X325046087Y-91314446I1054239J-671625D01*
G01*
X325046087Y-91314446D01*
G75*
G02*
X325428701Y-93040310I-671625J-1054239D01*
G01*
X324219777Y-94937940D01*
G75*
G02*
X322493913Y-95320554I-1054239J671625D01*
G01*
X322493913Y-95320554D01*
G75*
G02*
X322111299Y-93594690I671625J1054239D01*
G01*
G37*
%TD.AperFunction*%
%TD*%
%TO.P,K;1,2*%
%TO.N,Net-(D;1-Pad2)*%
%TA.AperFunction,ComponentPad*%
G36*
G01*
X304465170Y-130352309D02*
X304504619Y-129773653D01*
G75*
G02*
X305836743Y-128611567I1247105J-85019D01*
G01*
X305836743Y-128611567D01*
G75*
G02*
X306998829Y-129943691I-85019J-1247105D01*
G01*
X306959381Y-130522347D01*
G75*
G02*
X305627257Y-131684433I-1247105J85019D01*
G01*
X305627257Y-131684433D01*
G75*
G02*
X304465171Y-130352309I85019J1247105D01*
G01*
G37*
%TD.AperFunction*%
%TO.P,K;1,1*%
%TO.N,/col14*%
%TA.AperFunction,ComponentPad*%
G36*
G01*
X298298299Y-131695191D02*
X299507223Y-129797560D01*
G75*
G02*
X301233087Y-129414946I1054239J-671625D01*
G01*
X301233087Y-129414946D01*
G75*
G02*
X301615701Y-131140810I-671625J-1054239D01*
G01*
X300406777Y-133038440D01*
G75*
G02*
X298680913Y-133421054I-1054239J671625D01*
G01*
X298680913Y-133421054D01*
G75*
G02*
X298298299Y-131695190I671625J1054239D01*
G01*
G37*
%TD.AperFunction*%
%TD*%
%TO.P,K/1,2*%
%TO.N,Net-(D/1-Pad2)*%
%TA.AperFunction,ComponentPad*%
G36*
G01*
X313991170Y-149402309D02*
X314030619Y-148823653D01*
G75*
G02*
X315362743Y-147661567I1247105J-85019D01*
G01*
X315362743Y-147661567D01*
G75*
G02*
X316524829Y-148993691I-85019J-1247105D01*
G01*
X316485381Y-149572347D01*
G75*
G02*
X315153257Y-150734433I-1247105J85019D01*
G01*
X315153257Y-150734433D01*
G75*
G02*
X313991171Y-149402309I85019J1247105D01*
G01*
G37*
%TD.AperFunction*%
%TO.P,K/1,1*%
%TO.N,/col14*%
%TA.AperFunction,ComponentPad*%
G36*
G01*
X307824299Y-150745191D02*
X309033223Y-148847560D01*
G75*
G02*
X310759087Y-148464946I1054239J-671625D01*
G01*
X310759087Y-148464946D01*
G75*
G02*
X311141701Y-150190810I-671625J-1054239D01*
G01*
X309932777Y-152088440D01*
G75*
G02*
X308206913Y-152471054I-1054239J671625D01*
G01*
X308206913Y-152471054D01*
G75*
G02*
X307824299Y-150745190I671625J1054239D01*
G01*
G37*
%TD.AperFunction*%
%TD*%
%TO.P,K-1,2*%
%TO.N,Net-(D-1-Pad2)*%
%TA.AperFunction,ComponentPad*%
G36*
G01*
X309228170Y-92251809D02*
X309267619Y-91673153D01*
G75*
G02*
X310599743Y-90511067I1247105J-85019D01*
G01*
X310599743Y-90511067D01*
G75*
G02*
X311761829Y-91843191I-85019J-1247105D01*
G01*
X311722381Y-92421847D01*
G75*
G02*
X310390257Y-93583933I-1247105J85019D01*
G01*
X310390257Y-93583933D01*
G75*
G02*
X309228171Y-92251809I85019J1247105D01*
G01*
G37*
%TD.AperFunction*%
%TO.P,K-1,1*%
%TO.N,/col14*%
%TA.AperFunction,ComponentPad*%
G36*
G01*
X303061299Y-93594691D02*
X304270223Y-91697060D01*
G75*
G02*
X305996087Y-91314446I1054239J-671625D01*
G01*
X305996087Y-91314446D01*
G75*
G02*
X306378701Y-93040310I-671625J-1054239D01*
G01*
X305169777Y-94937940D01*
G75*
G02*
X303443913Y-95320554I-1054239J671625D01*
G01*
X303443913Y-95320554D01*
G75*
G02*
X303061299Y-93594690I671625J1054239D01*
G01*
G37*
%TD.AperFunction*%
%TD*%
%TO.P,K'1,2*%
%TO.N,Net-(D'1-Pad2)*%
%TA.AperFunction,ComponentPad*%
G36*
G01*
X323515170Y-130352309D02*
X323554619Y-129773653D01*
G75*
G02*
X324886743Y-128611567I1247105J-85019D01*
G01*
X324886743Y-128611567D01*
G75*
G02*
X326048829Y-129943691I-85019J-1247105D01*
G01*
X326009381Y-130522347D01*
G75*
G02*
X324677257Y-131684433I-1247105J85019D01*
G01*
X324677257Y-131684433D01*
G75*
G02*
X323515171Y-130352309I85019J1247105D01*
G01*
G37*
%TD.AperFunction*%
%TO.P,K'1,1*%
%TO.N,/col15*%
%TA.AperFunction,ComponentPad*%
G36*
G01*
X317348299Y-131695191D02*
X318557223Y-129797560D01*
G75*
G02*
X320283087Y-129414946I1054239J-671625D01*
G01*
X320283087Y-129414946D01*
G75*
G02*
X320665701Y-131140810I-671625J-1054239D01*
G01*
X319456777Y-133038440D01*
G75*
G02*
X317730913Y-133421054I-1054239J671625D01*
G01*
X317730913Y-133421054D01*
G75*
G02*
X317348299Y-131695190I671625J1054239D01*
G01*
G37*
%TD.AperFunction*%
%TD*%
%TO.P,K9,2*%
%TO.N,Net-(D9-Pad2)*%
%TA.AperFunction,ComponentPad*%
G36*
G01*
X271128170Y-92251809D02*
X271167619Y-91673153D01*
G75*
G02*
X272499743Y-90511067I1247105J-85019D01*
G01*
X272499743Y-90511067D01*
G75*
G02*
X273661829Y-91843191I-85019J-1247105D01*
G01*
X273622381Y-92421847D01*
G75*
G02*
X272290257Y-93583933I-1247105J85019D01*
G01*
X272290257Y-93583933D01*
G75*
G02*
X271128171Y-92251809I85019J1247105D01*
G01*
G37*
%TD.AperFunction*%
%TO.P,K9,1*%
%TO.N,/col12*%
%TA.AperFunction,ComponentPad*%
G36*
G01*
X264961299Y-93594691D02*
X266170223Y-91697060D01*
G75*
G02*
X267896087Y-91314446I1054239J-671625D01*
G01*
X267896087Y-91314446D01*
G75*
G02*
X268278701Y-93040310I-671625J-1054239D01*
G01*
X267069777Y-94937940D01*
G75*
G02*
X265343913Y-95320554I-1054239J671625D01*
G01*
X265343913Y-95320554D01*
G75*
G02*
X264961299Y-93594690I671625J1054239D01*
G01*
G37*
%TD.AperFunction*%
%TD*%
%TO.P,K8,2*%
%TO.N,Net-(D8-Pad2)*%
%TA.AperFunction,ComponentPad*%
G36*
G01*
X252078170Y-92251809D02*
X252117619Y-91673153D01*
G75*
G02*
X253449743Y-90511067I1247105J-85019D01*
G01*
X253449743Y-90511067D01*
G75*
G02*
X254611829Y-91843191I-85019J-1247105D01*
G01*
X254572381Y-92421847D01*
G75*
G02*
X253240257Y-93583933I-1247105J85019D01*
G01*
X253240257Y-93583933D01*
G75*
G02*
X252078171Y-92251809I85019J1247105D01*
G01*
G37*
%TD.AperFunction*%
%TO.P,K8,1*%
%TO.N,/col11*%
%TA.AperFunction,ComponentPad*%
G36*
G01*
X245911299Y-93594691D02*
X247120223Y-91697060D01*
G75*
G02*
X248846087Y-91314446I1054239J-671625D01*
G01*
X248846087Y-91314446D01*
G75*
G02*
X249228701Y-93040310I-671625J-1054239D01*
G01*
X248019777Y-94937940D01*
G75*
G02*
X246293913Y-95320554I-1054239J671625D01*
G01*
X246293913Y-95320554D01*
G75*
G02*
X245911299Y-93594690I671625J1054239D01*
G01*
G37*
%TD.AperFunction*%
%TD*%
%TO.P,K7,2*%
%TO.N,Net-(D7-Pad2)*%
%TA.AperFunction,ComponentPad*%
G36*
G01*
X233028170Y-92251809D02*
X233067619Y-91673153D01*
G75*
G02*
X234399743Y-90511067I1247105J-85019D01*
G01*
X234399743Y-90511067D01*
G75*
G02*
X235561829Y-91843191I-85019J-1247105D01*
G01*
X235522381Y-92421847D01*
G75*
G02*
X234190257Y-93583933I-1247105J85019D01*
G01*
X234190257Y-93583933D01*
G75*
G02*
X233028171Y-92251809I85019J1247105D01*
G01*
G37*
%TD.AperFunction*%
%TO.P,K7,1*%
%TO.N,/col10*%
%TA.AperFunction,ComponentPad*%
G36*
G01*
X226861299Y-93594691D02*
X228070223Y-91697060D01*
G75*
G02*
X229796087Y-91314446I1054239J-671625D01*
G01*
X229796087Y-91314446D01*
G75*
G02*
X230178701Y-93040310I-671625J-1054239D01*
G01*
X228969777Y-94937940D01*
G75*
G02*
X227243913Y-95320554I-1054239J671625D01*
G01*
X227243913Y-95320554D01*
G75*
G02*
X226861299Y-93594690I671625J1054239D01*
G01*
G37*
%TD.AperFunction*%
%TD*%
%TO.P,K6,2*%
%TO.N,Net-(D6-Pad2)*%
%TA.AperFunction,ComponentPad*%
G36*
G01*
X213978170Y-92251809D02*
X214017619Y-91673153D01*
G75*
G02*
X215349743Y-90511067I1247105J-85019D01*
G01*
X215349743Y-90511067D01*
G75*
G02*
X216511829Y-91843191I-85019J-1247105D01*
G01*
X216472381Y-92421847D01*
G75*
G02*
X215140257Y-93583933I-1247105J85019D01*
G01*
X215140257Y-93583933D01*
G75*
G02*
X213978171Y-92251809I85019J1247105D01*
G01*
G37*
%TD.AperFunction*%
%TO.P,K6,1*%
%TO.N,/col9*%
%TA.AperFunction,ComponentPad*%
G36*
G01*
X207811299Y-93594691D02*
X209020223Y-91697060D01*
G75*
G02*
X210746087Y-91314446I1054239J-671625D01*
G01*
X210746087Y-91314446D01*
G75*
G02*
X211128701Y-93040310I-671625J-1054239D01*
G01*
X209919777Y-94937940D01*
G75*
G02*
X208193913Y-95320554I-1054239J671625D01*
G01*
X208193913Y-95320554D01*
G75*
G02*
X207811299Y-93594690I671625J1054239D01*
G01*
G37*
%TD.AperFunction*%
%TD*%
%TO.P,K5,2*%
%TO.N,Net-(D5-Pad2)*%
%TA.AperFunction,ComponentPad*%
G36*
G01*
X194928170Y-92251809D02*
X194967619Y-91673153D01*
G75*
G02*
X196299743Y-90511067I1247105J-85019D01*
G01*
X196299743Y-90511067D01*
G75*
G02*
X197461829Y-91843191I-85019J-1247105D01*
G01*
X197422381Y-92421847D01*
G75*
G02*
X196090257Y-93583933I-1247105J85019D01*
G01*
X196090257Y-93583933D01*
G75*
G02*
X194928171Y-92251809I85019J1247105D01*
G01*
G37*
%TD.AperFunction*%
%TO.P,K5,1*%
%TO.N,/col8*%
%TA.AperFunction,ComponentPad*%
G36*
G01*
X188761299Y-93594691D02*
X189970223Y-91697060D01*
G75*
G02*
X191696087Y-91314446I1054239J-671625D01*
G01*
X191696087Y-91314446D01*
G75*
G02*
X192078701Y-93040310I-671625J-1054239D01*
G01*
X190869777Y-94937940D01*
G75*
G02*
X189143913Y-95320554I-1054239J671625D01*
G01*
X189143913Y-95320554D01*
G75*
G02*
X188761299Y-93594690I671625J1054239D01*
G01*
G37*
%TD.AperFunction*%
%TD*%
%TO.P,K4,2*%
%TO.N,Net-(D4-Pad2)*%
%TA.AperFunction,ComponentPad*%
G36*
G01*
X175878170Y-92251809D02*
X175917619Y-91673153D01*
G75*
G02*
X177249743Y-90511067I1247105J-85019D01*
G01*
X177249743Y-90511067D01*
G75*
G02*
X178411829Y-91843191I-85019J-1247105D01*
G01*
X178372381Y-92421847D01*
G75*
G02*
X177040257Y-93583933I-1247105J85019D01*
G01*
X177040257Y-93583933D01*
G75*
G02*
X175878171Y-92251809I85019J1247105D01*
G01*
G37*
%TD.AperFunction*%
%TO.P,K4,1*%
%TO.N,/col7*%
%TA.AperFunction,ComponentPad*%
G36*
G01*
X169711299Y-93594691D02*
X170920223Y-91697060D01*
G75*
G02*
X172646087Y-91314446I1054239J-671625D01*
G01*
X172646087Y-91314446D01*
G75*
G02*
X173028701Y-93040310I-671625J-1054239D01*
G01*
X171819777Y-94937940D01*
G75*
G02*
X170093913Y-95320554I-1054239J671625D01*
G01*
X170093913Y-95320554D01*
G75*
G02*
X169711299Y-93594690I671625J1054239D01*
G01*
G37*
%TD.AperFunction*%
%TD*%
%TO.P,K3,2*%
%TO.N,Net-(D3-Pad2)*%
%TA.AperFunction,ComponentPad*%
G36*
G01*
X156828170Y-92251809D02*
X156867619Y-91673153D01*
G75*
G02*
X158199743Y-90511067I1247105J-85019D01*
G01*
X158199743Y-90511067D01*
G75*
G02*
X159361829Y-91843191I-85019J-1247105D01*
G01*
X159322381Y-92421847D01*
G75*
G02*
X157990257Y-93583933I-1247105J85019D01*
G01*
X157990257Y-93583933D01*
G75*
G02*
X156828171Y-92251809I85019J1247105D01*
G01*
G37*
%TD.AperFunction*%
%TO.P,K3,1*%
%TO.N,/col6*%
%TA.AperFunction,ComponentPad*%
G36*
G01*
X150661299Y-93594691D02*
X151870223Y-91697060D01*
G75*
G02*
X153596087Y-91314446I1054239J-671625D01*
G01*
X153596087Y-91314446D01*
G75*
G02*
X153978701Y-93040310I-671625J-1054239D01*
G01*
X152769777Y-94937940D01*
G75*
G02*
X151043913Y-95320554I-1054239J671625D01*
G01*
X151043913Y-95320554D01*
G75*
G02*
X150661299Y-93594690I671625J1054239D01*
G01*
G37*
%TD.AperFunction*%
%TD*%
%TO.P,K2,2*%
%TO.N,Net-(D2-Pad2)*%
%TA.AperFunction,ComponentPad*%
G36*
G01*
X137778170Y-92251809D02*
X137817619Y-91673153D01*
G75*
G02*
X139149743Y-90511067I1247105J-85019D01*
G01*
X139149743Y-90511067D01*
G75*
G02*
X140311829Y-91843191I-85019J-1247105D01*
G01*
X140272381Y-92421847D01*
G75*
G02*
X138940257Y-93583933I-1247105J85019D01*
G01*
X138940257Y-93583933D01*
G75*
G02*
X137778171Y-92251809I85019J1247105D01*
G01*
G37*
%TD.AperFunction*%
%TO.P,K2,1*%
%TO.N,/col5*%
%TA.AperFunction,ComponentPad*%
G36*
G01*
X131611299Y-93594691D02*
X132820223Y-91697060D01*
G75*
G02*
X134546087Y-91314446I1054239J-671625D01*
G01*
X134546087Y-91314446D01*
G75*
G02*
X134928701Y-93040310I-671625J-1054239D01*
G01*
X133719777Y-94937940D01*
G75*
G02*
X131993913Y-95320554I-1054239J671625D01*
G01*
X131993913Y-95320554D01*
G75*
G02*
X131611299Y-93594690I671625J1054239D01*
G01*
G37*
%TD.AperFunction*%
%TD*%
%TO.P,K1,2*%
%TO.N,Net-(D1-Pad2)*%
%TA.AperFunction,ComponentPad*%
G36*
G01*
X118728170Y-92251809D02*
X118767619Y-91673153D01*
G75*
G02*
X120099743Y-90511067I1247105J-85019D01*
G01*
X120099743Y-90511067D01*
G75*
G02*
X121261829Y-91843191I-85019J-1247105D01*
G01*
X121222381Y-92421847D01*
G75*
G02*
X119890257Y-93583933I-1247105J85019D01*
G01*
X119890257Y-93583933D01*
G75*
G02*
X118728171Y-92251809I85019J1247105D01*
G01*
G37*
%TD.AperFunction*%
%TO.P,K1,1*%
%TO.N,/col4*%
%TA.AperFunction,ComponentPad*%
G36*
G01*
X112561299Y-93594691D02*
X113770223Y-91697060D01*
G75*
G02*
X115496087Y-91314446I1054239J-671625D01*
G01*
X115496087Y-91314446D01*
G75*
G02*
X115878701Y-93040310I-671625J-1054239D01*
G01*
X114669777Y-94937940D01*
G75*
G02*
X112943913Y-95320554I-1054239J671625D01*
G01*
X112943913Y-95320554D01*
G75*
G02*
X112561299Y-93594690I671625J1054239D01*
G01*
G37*
%TD.AperFunction*%
%TD*%
%TO.P,K\u002C1,2*%
%TO.N,Net-(D\u002C1-Pad2)*%
%TA.AperFunction,ComponentPad*%
G36*
G01*
X275891170Y-149402309D02*
X275930619Y-148823653D01*
G75*
G02*
X277262743Y-147661567I1247105J-85019D01*
G01*
X277262743Y-147661567D01*
G75*
G02*
X278424829Y-148993691I-85019J-1247105D01*
G01*
X278385381Y-149572347D01*
G75*
G02*
X277053257Y-150734433I-1247105J85019D01*
G01*
X277053257Y-150734433D01*
G75*
G02*
X275891171Y-149402309I85019J1247105D01*
G01*
G37*
%TD.AperFunction*%
%TO.P,K\u002C1,1*%
%TO.N,/col12*%
%TA.AperFunction,ComponentPad*%
G36*
G01*
X269724299Y-150745191D02*
X270933223Y-148847560D01*
G75*
G02*
X272659087Y-148464946I1054239J-671625D01*
G01*
X272659087Y-148464946D01*
G75*
G02*
X273041701Y-150190810I-671625J-1054239D01*
G01*
X271832777Y-152088440D01*
G75*
G02*
X270106913Y-152471054I-1054239J671625D01*
G01*
X270106913Y-152471054D01*
G75*
G02*
X269724299Y-150745190I671625J1054239D01*
G01*
G37*
%TD.AperFunction*%
%TD*%
%TO.P,K.1,2*%
%TO.N,Net-(D.1-Pad2)*%
%TA.AperFunction,ComponentPad*%
G36*
G01*
X294941170Y-149402309D02*
X294980619Y-148823653D01*
G75*
G02*
X296312743Y-147661567I1247105J-85019D01*
G01*
X296312743Y-147661567D01*
G75*
G02*
X297474829Y-148993691I-85019J-1247105D01*
G01*
X297435381Y-149572347D01*
G75*
G02*
X296103257Y-150734433I-1247105J85019D01*
G01*
X296103257Y-150734433D01*
G75*
G02*
X294941171Y-149402309I85019J1247105D01*
G01*
G37*
%TD.AperFunction*%
%TO.P,K.1,1*%
%TO.N,/col13*%
%TA.AperFunction,ComponentPad*%
G36*
G01*
X288774299Y-150745191D02*
X289983223Y-148847560D01*
G75*
G02*
X291709087Y-148464946I1054239J-671625D01*
G01*
X291709087Y-148464946D01*
G75*
G02*
X292091701Y-150190810I-671625J-1054239D01*
G01*
X290882777Y-152088440D01*
G75*
G02*
X289156913Y-152471054I-1054239J671625D01*
G01*
X289156913Y-152471054D01*
G75*
G02*
X288774299Y-150745190I671625J1054239D01*
G01*
G37*
%TD.AperFunction*%
%TD*%
%TO.P,K0,2*%
%TO.N,Net-(D0-Pad2)*%
%TA.AperFunction,ComponentPad*%
G36*
G01*
X290178170Y-92251809D02*
X290217619Y-91673153D01*
G75*
G02*
X291549743Y-90511067I1247105J-85019D01*
G01*
X291549743Y-90511067D01*
G75*
G02*
X292711829Y-91843191I-85019J-1247105D01*
G01*
X292672381Y-92421847D01*
G75*
G02*
X291340257Y-93583933I-1247105J85019D01*
G01*
X291340257Y-93583933D01*
G75*
G02*
X290178171Y-92251809I85019J1247105D01*
G01*
G37*
%TD.AperFunction*%
%TO.P,K0,1*%
%TO.N,/col13*%
%TA.AperFunction,ComponentPad*%
G36*
G01*
X284011299Y-93594691D02*
X285220223Y-91697060D01*
G75*
G02*
X286946087Y-91314446I1054239J-671625D01*
G01*
X286946087Y-91314446D01*
G75*
G02*
X287328701Y-93040310I-671625J-1054239D01*
G01*
X286119777Y-94937940D01*
G75*
G02*
X284393913Y-95320554I-1054239J671625D01*
G01*
X284393913Y-95320554D01*
G75*
G02*
X284011299Y-93594690I671625J1054239D01*
G01*
G37*
%TD.AperFunction*%
%TD*%
D10*
%TO.P,DZ1,2*%
%TO.N,Net-(DZ1-Pad2)*%
X145188000Y-163512000D03*
D11*
%TO.P,DZ1,1*%
%TO.N,/row3*%
X137388000Y-163512000D03*
%TD*%
D10*
%TO.P,DY1,2*%
%TO.N,Net-(DY1-Pad2)*%
X226150000Y-125412000D03*
D11*
%TO.P,DY1,1*%
%TO.N,/row1*%
X218350000Y-125412000D03*
%TD*%
D10*
%TO.P,DX1,2*%
%TO.N,Net-(DX1-Pad2)*%
X164238000Y-163512000D03*
D11*
%TO.P,DX1,1*%
%TO.N,/row3*%
X156438000Y-163512000D03*
%TD*%
D10*
%TO.P,DW1,2*%
%TO.N,Net-(DW1-Pad2)*%
X149950000Y-125412000D03*
D11*
%TO.P,DW1,1*%
%TO.N,/row1*%
X142150000Y-125412000D03*
%TD*%
D10*
%TO.P,DV1,2*%
%TO.N,Net-(DV1-Pad2)*%
X202338000Y-163512000D03*
D11*
%TO.P,DV1,1*%
%TO.N,/row3*%
X194538000Y-163512000D03*
%TD*%
D10*
%TO.P,DUp1,2*%
%TO.N,Net-(DUp1-Pad2)*%
X321400000Y-182562000D03*
D11*
%TO.P,DUp1,1*%
%TO.N,/row4*%
X313600000Y-182562000D03*
%TD*%
D10*
%TO.P,DU1,2*%
%TO.N,Net-(DU1-Pad2)*%
X245200000Y-125412000D03*
D11*
%TO.P,DU1,1*%
%TO.N,/row1*%
X237400000Y-125412000D03*
%TD*%
D10*
%TO.P,Dtil1,2*%
%TO.N,Net-(Dtil1-Pad2)*%
X369025000Y-106362000D03*
D11*
%TO.P,Dtil1,1*%
%TO.N,/row0*%
X361225000Y-106362000D03*
%TD*%
D10*
%TO.P,DTab1,2*%
%TO.N,Net-(DTab1-Pad2)*%
X107088000Y-125412000D03*
D11*
%TO.P,DTab1,1*%
%TO.N,/row1*%
X99288000Y-125412000D03*
%TD*%
D10*
%TO.P,DT1,2*%
%TO.N,Net-(DT1-Pad2)*%
X207100000Y-125412000D03*
D11*
%TO.P,DT1,1*%
%TO.N,/row1*%
X199300000Y-125412000D03*
%TD*%
D10*
%TO.P,DSu1,2*%
%TO.N,Net-(DSu1-Pad2)*%
X149950000Y-182562000D03*
D11*
%TO.P,DSu1,1*%
%TO.N,/row4*%
X142150000Y-182562000D03*
%TD*%
D10*
%TO.P,DS1,2*%
%TO.N,Net-(DS1-Pad2)*%
X154712000Y-144462000D03*
D11*
%TO.P,DS1,1*%
%TO.N,/row2*%
X146912000Y-144462000D03*
%TD*%
D10*
%TO.P,DRSu1,2*%
%TO.N,Net-(DRSu1-Pad2)*%
X364262000Y-182562000D03*
D11*
%TO.P,DRSu1,1*%
%TO.N,/row4*%
X356462000Y-182562000D03*
%TD*%
D10*
%TO.P,DRSpace1,2*%
%TO.N,Net-(DRSpace1-Pad2)*%
X252344000Y-182562000D03*
D11*
%TO.P,DRSpace1,1*%
%TO.N,/row4*%
X244544000Y-182562000D03*
%TD*%
D10*
%TO.P,DRShift1,2*%
%TO.N,Net-(DRShift1-Pad2)*%
X342831000Y-163512000D03*
D11*
%TO.P,DRShift1,1*%
%TO.N,/row3*%
X335031000Y-163512000D03*
%TD*%
D10*
%TO.P,DRight1,2*%
%TO.N,Net-(DRight1-Pad2)*%
X340450000Y-182562000D03*
D11*
%TO.P,DRight1,1*%
%TO.N,/row4*%
X332650000Y-182562000D03*
%TD*%
D10*
%TO.P,DREnter1,2*%
%TO.N,Net-(DREnter1-Pad2)*%
X357119000Y-144462000D03*
D11*
%TO.P,DREnter1,1*%
%TO.N,/row2*%
X349319000Y-144462000D03*
%TD*%
D10*
%TO.P,DR1,2*%
%TO.N,Net-(DR1-Pad2)*%
X188050000Y-125412000D03*
D11*
%TO.P,DR1,1*%
%TO.N,/row1*%
X180250000Y-125412000D03*
%TD*%
D10*
%TO.P,DQ1,2*%
%TO.N,Net-(DQ1-Pad2)*%
X130900000Y-125412000D03*
D11*
%TO.P,DQ1,1*%
%TO.N,/row1*%
X123100000Y-125412000D03*
%TD*%
D10*
%TO.P,DP1,2*%
%TO.N,Net-(DP1-Pad2)*%
X302350000Y-125412000D03*
D11*
%TO.P,DP1,1*%
%TO.N,/row1*%
X294550000Y-125412000D03*
%TD*%
D10*
%TO.P,DO1,2*%
%TO.N,Net-(DO1-Pad2)*%
X283300000Y-125412000D03*
D11*
%TO.P,DO1,1*%
%TO.N,/row1*%
X275500000Y-125412000D03*
%TD*%
D10*
%TO.P,DNumEnter1,2*%
%TO.N,Net-(DNumEnter1-Pad2)*%
X83275000Y-182562000D03*
D11*
%TO.P,DNumEnter1,1*%
%TO.N,/row4*%
X75475000Y-182562000D03*
%TD*%
D10*
%TO.P,DNum/1,2*%
%TO.N,Net-(DNum/1-Pad2)*%
X50800000Y-92143800D03*
D11*
%TO.P,DNum/1,1*%
%TO.N,/row0*%
X50800000Y-99943800D03*
%TD*%
D10*
%TO.P,DNum-1,2*%
%TO.N,Net-(DNum-1-Pad2)*%
X83275000Y-106362000D03*
D11*
%TO.P,DNum-1,1*%
%TO.N,/row0*%
X75475000Y-106362000D03*
%TD*%
D10*
%TO.P,DNum\u002A1,2*%
%TO.N,Net-(DNum\u002A1-Pad2)*%
X69056200Y-92143800D03*
D11*
%TO.P,DNum\u002A1,1*%
%TO.N,/row0*%
X69056200Y-99943800D03*
%TD*%
D10*
%TO.P,DNum9,2*%
%TO.N,Net-(DNum9-Pad2)*%
X83275000Y-125412000D03*
D11*
%TO.P,DNum9,1*%
%TO.N,/row1*%
X75475000Y-125412000D03*
%TD*%
D10*
%TO.P,DNum8,2*%
%TO.N,Net-(DNum8-Pad2)*%
X64225000Y-125412000D03*
D11*
%TO.P,DNum8,1*%
%TO.N,/row1*%
X56425000Y-125412000D03*
%TD*%
D10*
%TO.P,DNum7,2*%
%TO.N,Net-(DNum7-Pad2)*%
X45175000Y-125412000D03*
D11*
%TO.P,DNum7,1*%
%TO.N,/row1*%
X37375000Y-125412000D03*
%TD*%
D10*
%TO.P,DNum6,2*%
%TO.N,Net-(DNum6-Pad2)*%
X83275000Y-144462000D03*
D11*
%TO.P,DNum6,1*%
%TO.N,/row2*%
X75475000Y-144462000D03*
%TD*%
D10*
%TO.P,DNum5,2*%
%TO.N,Net-(DNum5-Pad2)*%
X64225000Y-144462000D03*
D11*
%TO.P,DNum5,1*%
%TO.N,/row2*%
X56425000Y-144462000D03*
%TD*%
D10*
%TO.P,DNum4,2*%
%TO.N,Net-(DNum4-Pad2)*%
X45175000Y-144462000D03*
D11*
%TO.P,DNum4,1*%
%TO.N,/row2*%
X37375000Y-144462000D03*
%TD*%
D10*
%TO.P,DNum3,2*%
%TO.N,Net-(DNum3-Pad2)*%
X83275000Y-163512000D03*
D11*
%TO.P,DNum3,1*%
%TO.N,/row3*%
X75475000Y-163512000D03*
%TD*%
D10*
%TO.P,DNum2,2*%
%TO.N,Net-(DNum2-Pad2)*%
X64225000Y-163512000D03*
D11*
%TO.P,DNum2,1*%
%TO.N,/row3*%
X56425000Y-163512000D03*
%TD*%
D10*
%TO.P,DNum1,2*%
%TO.N,Net-(DNum1-Pad2)*%
X45175000Y-163512000D03*
D11*
%TO.P,DNum1,1*%
%TO.N,/row3*%
X37375000Y-163512000D03*
%TD*%
D10*
%TO.P,DNum0,2*%
%TO.N,Net-(DNum0-Pad2)*%
X45175000Y-182562000D03*
D11*
%TO.P,DNum0,1*%
%TO.N,/row4*%
X37375000Y-182562000D03*
%TD*%
D10*
%TO.P,DNum.1,2*%
%TO.N,Net-(DNum.1-Pad2)*%
X64225000Y-182562000D03*
D11*
%TO.P,DNum.1,1*%
%TO.N,/row4*%
X56425000Y-182562000D03*
%TD*%
D10*
%TO.P,DN1,2*%
%TO.N,Net-(DN1-Pad2)*%
X240438000Y-163512000D03*
D11*
%TO.P,DN1,1*%
%TO.N,/row3*%
X232638000Y-163512000D03*
%TD*%
D10*
%TO.P,DM1,2*%
%TO.N,Net-(DM1-Pad2)*%
X259488000Y-163512000D03*
D11*
%TO.P,DM1,1*%
%TO.N,/row3*%
X251688000Y-163512000D03*
%TD*%
D10*
%TO.P,DLSpace1,2*%
%TO.N,Net-(DLSpace1-Pad2)*%
X204719000Y-182562000D03*
D11*
%TO.P,DLSpace1,1*%
%TO.N,/row4*%
X196919000Y-182562000D03*
%TD*%
D10*
%TO.P,DLShift1,2*%
%TO.N,Net-(DLShift1-Pad2)*%
X114231000Y-163512000D03*
D11*
%TO.P,DLShift1,1*%
%TO.N,/row3*%
X106431000Y-163512000D03*
%TD*%
D10*
%TO.P,DLOpt1,2*%
%TO.N,Net-(DLOpt1-Pad2)*%
X104706000Y-182562000D03*
D11*
%TO.P,DLOpt1,1*%
%TO.N,/row4*%
X96906000Y-182562000D03*
%TD*%
D10*
%TO.P,DLeft1,2*%
%TO.N,Net-(DLeft1-Pad2)*%
X283300000Y-182562000D03*
D11*
%TO.P,DLeft1,1*%
%TO.N,/row4*%
X275500000Y-182562000D03*
%TD*%
D10*
%TO.P,DLAlt1,2*%
%TO.N,Net-(DLAlt1-Pad2)*%
X128519000Y-182562000D03*
D11*
%TO.P,DLAlt1,1*%
%TO.N,/row4*%
X120719000Y-182562000D03*
%TD*%
D10*
%TO.P,DL1,2*%
%TO.N,Net-(DL1-Pad2)*%
X288062000Y-144462000D03*
D11*
%TO.P,DL1,1*%
%TO.N,/row2*%
X280262000Y-144462000D03*
%TD*%
D10*
%TO.P,DK1,2*%
%TO.N,Net-(DK1-Pad2)*%
X269012000Y-144462000D03*
D11*
%TO.P,DK1,1*%
%TO.N,/row2*%
X261212000Y-144462000D03*
%TD*%
D10*
%TO.P,DJ1,2*%
%TO.N,Net-(DJ1-Pad2)*%
X249962000Y-144462000D03*
D11*
%TO.P,DJ1,1*%
%TO.N,/row2*%
X242162000Y-144462000D03*
%TD*%
D10*
%TO.P,DI1,2*%
%TO.N,Net-(DI1-Pad2)*%
X264250000Y-125412000D03*
D11*
%TO.P,DI1,1*%
%TO.N,/row1*%
X256450000Y-125412000D03*
%TD*%
D10*
%TO.P,DH1,2*%
%TO.N,Net-(DH1-Pad2)*%
X230912000Y-144462000D03*
D11*
%TO.P,DH1,1*%
%TO.N,/row2*%
X223112000Y-144462000D03*
%TD*%
D10*
%TO.P,DG1,2*%
%TO.N,Net-(DG1-Pad2)*%
X211862000Y-144462000D03*
D11*
%TO.P,DG1,1*%
%TO.N,/row2*%
X204062000Y-144462000D03*
%TD*%
D10*
%TO.P,DF1,2*%
%TO.N,Net-(DF1-Pad2)*%
X192812000Y-144462000D03*
D11*
%TO.P,DF1,1*%
%TO.N,/row2*%
X185012000Y-144462000D03*
%TD*%
D10*
%TO.P,DEsc1,2*%
%TO.N,Net-(DEsc1-Pad2)*%
X102325000Y-106362000D03*
D11*
%TO.P,DEsc1,1*%
%TO.N,/row0*%
X94525000Y-106362000D03*
%TD*%
D10*
%TO.P,DE1,2*%
%TO.N,Net-(DE1-Pad2)*%
X169000000Y-125412000D03*
D11*
%TO.P,DE1,1*%
%TO.N,/row1*%
X161200000Y-125412000D03*
%TD*%
D10*
%TO.P,DDown1,2*%
%TO.N,Net-(DDown1-Pad2)*%
X302350000Y-182562000D03*
D11*
%TO.P,DDown1,1*%
%TO.N,/row4*%
X294550000Y-182562000D03*
%TD*%
D10*
%TO.P,DD1,2*%
%TO.N,Net-(DD1-Pad2)*%
X173762000Y-144462000D03*
D11*
%TO.P,DD1,1*%
%TO.N,/row2*%
X165962000Y-144462000D03*
%TD*%
D10*
%TO.P,DControl1,2*%
%TO.N,Net-(DControl1-Pad2)*%
X109469000Y-144462000D03*
D11*
%TO.P,DControl1,1*%
%TO.N,/row2*%
X101669000Y-144462000D03*
%TD*%
D10*
%TO.P,DC1,2*%
%TO.N,Net-(DC1-Pad2)*%
X183300000Y-163512000D03*
D11*
%TO.P,DC1,1*%
%TO.N,/row3*%
X175500000Y-163512000D03*
%TD*%
D10*
%TO.P,DBkspce1,2*%
%TO.N,Net-(DBkspce1-Pad2)*%
X364262000Y-125412000D03*
D11*
%TO.P,DBkspce1,1*%
%TO.N,/row1*%
X356462000Y-125412000D03*
%TD*%
D10*
%TO.P,DB1,2*%
%TO.N,Net-(DB1-Pad2)*%
X221388000Y-163512000D03*
D11*
%TO.P,DB1,1*%
%TO.N,/row3*%
X213588000Y-163512000D03*
%TD*%
D10*
%TO.P,DA1,2*%
%TO.N,Net-(DA1-Pad2)*%
X135662000Y-144462000D03*
D11*
%TO.P,DA1,1*%
%TO.N,/row2*%
X127862000Y-144462000D03*
%TD*%
D10*
%TO.P,D]1,2*%
%TO.N,Net-(D]1-Pad2)*%
X340450000Y-125412000D03*
D11*
%TO.P,D]1,1*%
%TO.N,/row1*%
X332650000Y-125412000D03*
%TD*%
D10*
%TO.P,D\u005C1,2*%
%TO.N,Net-(D\u005C1-Pad2)*%
X349975000Y-106362000D03*
D11*
%TO.P,D\u005C1,1*%
%TO.N,/row0*%
X342175000Y-106362000D03*
%TD*%
D10*
%TO.P,D[1,2*%
%TO.N,Net-(D[1-Pad2)*%
X321400000Y-125412000D03*
D11*
%TO.P,D[1,1*%
%TO.N,/row1*%
X313600000Y-125412000D03*
%TD*%
D10*
%TO.P,D=1,2*%
%TO.N,Net-(D=1-Pad2)*%
X330938000Y-106362000D03*
D11*
%TO.P,D=1,1*%
%TO.N,/row0*%
X323138000Y-106362000D03*
%TD*%
D10*
%TO.P,D;1,2*%
%TO.N,Net-(D;1-Pad2)*%
X307112000Y-144462000D03*
D11*
%TO.P,D;1,1*%
%TO.N,/row2*%
X299312000Y-144462000D03*
%TD*%
D10*
%TO.P,D/1,2*%
%TO.N,Net-(D/1-Pad2)*%
X316638000Y-163512000D03*
D11*
%TO.P,D/1,1*%
%TO.N,/row3*%
X308838000Y-163512000D03*
%TD*%
D10*
%TO.P,D-1,2*%
%TO.N,Net-(D-1-Pad2)*%
X311875000Y-106362000D03*
D11*
%TO.P,D-1,1*%
%TO.N,/row0*%
X304075000Y-106362000D03*
%TD*%
D10*
%TO.P,D'1,2*%
%TO.N,Net-(D'1-Pad2)*%
X326162000Y-144462000D03*
D11*
%TO.P,D'1,1*%
%TO.N,/row2*%
X318362000Y-144462000D03*
%TD*%
D10*
%TO.P,D9,2*%
%TO.N,Net-(D9-Pad2)*%
X273775000Y-106362000D03*
D11*
%TO.P,D9,1*%
%TO.N,/row0*%
X265975000Y-106362000D03*
%TD*%
D10*
%TO.P,D8,2*%
%TO.N,Net-(D8-Pad2)*%
X254725000Y-106362000D03*
D11*
%TO.P,D8,1*%
%TO.N,/row0*%
X246925000Y-106362000D03*
%TD*%
D10*
%TO.P,D7,2*%
%TO.N,Net-(D7-Pad2)*%
X235675000Y-106362000D03*
D11*
%TO.P,D7,1*%
%TO.N,/row0*%
X227875000Y-106362000D03*
%TD*%
D10*
%TO.P,D6,2*%
%TO.N,Net-(D6-Pad2)*%
X216625000Y-106362000D03*
D11*
%TO.P,D6,1*%
%TO.N,/row0*%
X208825000Y-106362000D03*
%TD*%
D10*
%TO.P,D5,2*%
%TO.N,Net-(D5-Pad2)*%
X197575000Y-106362000D03*
D11*
%TO.P,D5,1*%
%TO.N,/row0*%
X189775000Y-106362000D03*
%TD*%
D10*
%TO.P,D4,2*%
%TO.N,Net-(D4-Pad2)*%
X178525000Y-106362000D03*
D11*
%TO.P,D4,1*%
%TO.N,/row0*%
X170725000Y-106362000D03*
%TD*%
D10*
%TO.P,D3,2*%
%TO.N,Net-(D3-Pad2)*%
X159475000Y-106362000D03*
D11*
%TO.P,D3,1*%
%TO.N,/row0*%
X151675000Y-106362000D03*
%TD*%
D10*
%TO.P,D2,2*%
%TO.N,Net-(D2-Pad2)*%
X140425000Y-106362000D03*
D11*
%TO.P,D2,1*%
%TO.N,/row0*%
X132625000Y-106362000D03*
%TD*%
D10*
%TO.P,D1,2*%
%TO.N,Net-(D1-Pad2)*%
X121375000Y-106362000D03*
D11*
%TO.P,D1,1*%
%TO.N,/row0*%
X113575000Y-106362000D03*
%TD*%
D10*
%TO.P,D\u002C1,2*%
%TO.N,Net-(D\u002C1-Pad2)*%
X278538000Y-163512000D03*
D11*
%TO.P,D\u002C1,1*%
%TO.N,/row3*%
X270738000Y-163512000D03*
%TD*%
D10*
%TO.P,D0,2*%
%TO.N,Net-(D0-Pad2)*%
X292825000Y-106362000D03*
D11*
%TO.P,D0,1*%
%TO.N,/row0*%
X285025000Y-106362000D03*
%TD*%
D10*
%TO.P,D.1,2*%
%TO.N,Net-(D.1-Pad2)*%
X297588000Y-163512000D03*
D11*
%TO.P,D.1,1*%
%TO.N,/row3*%
X289788000Y-163512000D03*
%TD*%
D12*
%TO.N,/col13*%
X277673500Y-100904600D03*
%TO.N,/col5*%
X128507000Y-127299300D03*
%TO.N,/col9*%
X205196200Y-140240600D03*
%TO.N,/col11*%
X241028800Y-99858700D03*
%TO.N,/col15*%
X308487200Y-108020200D03*
%TO.N,/col14*%
X287180100Y-104316700D03*
%TO.N,/col16*%
X90520000Y-109929000D03*
X88932600Y-108341600D03*
%TD*%
D13*
%TO.N,Net-(D.1-Pad2)*%
X296208000Y-149198000D02*
X296078100Y-151103500D01*
X297588000Y-163512000D02*
X296208000Y-162132000D01*
X296208000Y-162132000D02*
X296208000Y-151233300D01*
X296208000Y-151233300D02*
X296078200Y-151103500D01*
X296078200Y-151103500D02*
X296078100Y-151103500D01*
%TO.N,/row3*%
X71755000Y-134302000D02*
X71755000Y-134938800D01*
X71755000Y-134938800D02*
X72890300Y-136074100D01*
X72890300Y-136074100D02*
X72890300Y-159802000D01*
X72890300Y-159802000D02*
X75475000Y-162386700D01*
X75475000Y-163512000D02*
X75475000Y-162386700D01*
X157000700Y-163512000D02*
X156438000Y-163512000D01*
X157000700Y-163512000D02*
X157563300Y-163512000D01*
X175500000Y-163512000D02*
X174374700Y-163512000D01*
X174374700Y-163512000D02*
X173249400Y-164637300D01*
X173249400Y-164637300D02*
X158688600Y-164637300D01*
X158688600Y-164637300D02*
X157563300Y-163512000D01*
%TO.N,Net-(D0-Pad2)*%
X291445000Y-92047500D02*
X291315100Y-93953000D01*
X292825000Y-106362000D02*
X291445000Y-104982000D01*
X291445000Y-104982000D02*
X291445000Y-94082800D01*
X291445000Y-94082800D02*
X291315200Y-93953000D01*
X291315200Y-93953000D02*
X291315100Y-93953000D01*
%TO.N,/row0*%
X323138000Y-106362000D02*
X324263300Y-106362000D01*
X341049700Y-106362000D02*
X339924400Y-107487300D01*
X339924400Y-107487300D02*
X325388600Y-107487300D01*
X325388600Y-107487300D02*
X324263300Y-106362000D01*
X131499700Y-106362000D02*
X130374400Y-107487300D01*
X130374400Y-107487300D02*
X115825600Y-107487300D01*
X115825600Y-107487300D02*
X114700300Y-106362000D01*
X75475000Y-106362000D02*
X75475000Y-107487300D01*
X75475000Y-107487300D02*
X73064100Y-109898200D01*
X73064100Y-109898200D02*
X73064100Y-125372900D01*
X73064100Y-125372900D02*
X71755000Y-126682000D01*
X75475000Y-105799300D02*
X75475000Y-106362000D01*
X75475000Y-105799300D02*
X75475000Y-105236700D01*
X69056200Y-99943800D02*
X69056200Y-101069100D01*
X69056200Y-101069100D02*
X70539100Y-102552000D01*
X70539100Y-102552000D02*
X72790300Y-102552000D01*
X72790300Y-102552000D02*
X75475000Y-105236700D01*
X342175000Y-106362000D02*
X341049700Y-106362000D01*
X132625000Y-106362000D02*
X131499700Y-106362000D01*
X113575000Y-106362000D02*
X114700300Y-106362000D01*
%TO.N,Net-(D\u002C1-Pad2)*%
X277158000Y-149198000D02*
X277028100Y-151103500D01*
X278538000Y-163512000D02*
X277158000Y-162132000D01*
X277158000Y-162132000D02*
X277158000Y-151233300D01*
X277158000Y-151233300D02*
X277028200Y-151103500D01*
X277028200Y-151103500D02*
X277028100Y-151103500D01*
%TO.N,Net-(D1-Pad2)*%
X119995000Y-92047500D02*
X119865100Y-93953000D01*
X121375000Y-106362000D02*
X119995000Y-104982000D01*
X119995000Y-104982000D02*
X119995000Y-94082800D01*
X119995000Y-94082800D02*
X119865200Y-93953000D01*
X119865200Y-93953000D02*
X119865100Y-93953000D01*
%TO.N,Net-(D2-Pad2)*%
X139045000Y-92047500D02*
X138915100Y-93953000D01*
X140425000Y-106362000D02*
X139045000Y-104982000D01*
X139045000Y-104982000D02*
X139045000Y-94082800D01*
X139045000Y-94082800D02*
X138915200Y-93953000D01*
X138915200Y-93953000D02*
X138915100Y-93953000D01*
%TO.N,Net-(D3-Pad2)*%
X158095000Y-92047500D02*
X157965100Y-93953000D01*
X159475000Y-106362000D02*
X158095000Y-104982000D01*
X158095000Y-104982000D02*
X158095000Y-94082800D01*
X158095000Y-94082800D02*
X157965200Y-93953000D01*
X157965200Y-93953000D02*
X157965100Y-93953000D01*
%TO.N,Net-(D4-Pad2)*%
X177145000Y-92047500D02*
X177015100Y-93953000D01*
X178525000Y-106362000D02*
X177145000Y-104982000D01*
X177145000Y-104982000D02*
X177145000Y-94082800D01*
X177145000Y-94082800D02*
X177015200Y-93953000D01*
X177015200Y-93953000D02*
X177015100Y-93953000D01*
%TO.N,Net-(D5-Pad2)*%
X196195000Y-92047500D02*
X196065100Y-93953000D01*
X197575000Y-106362000D02*
X196195000Y-104982000D01*
X196195000Y-104982000D02*
X196195000Y-94082800D01*
X196195000Y-94082800D02*
X196065200Y-93953000D01*
X196065200Y-93953000D02*
X196065100Y-93953000D01*
%TO.N,Net-(D6-Pad2)*%
X215245000Y-92047500D02*
X215115100Y-93953000D01*
X216625000Y-106362000D02*
X215245000Y-104982000D01*
X215245000Y-104982000D02*
X215245000Y-94082800D01*
X215245000Y-94082800D02*
X215115200Y-93953000D01*
X215115200Y-93953000D02*
X215115100Y-93953000D01*
%TO.N,Net-(D7-Pad2)*%
X234295000Y-92047500D02*
X234165100Y-93953000D01*
X235675000Y-106362000D02*
X234295000Y-104982000D01*
X234295000Y-104982000D02*
X234295000Y-94082800D01*
X234295000Y-94082800D02*
X234165200Y-93953000D01*
X234165200Y-93953000D02*
X234165100Y-93953000D01*
%TO.N,Net-(D8-Pad2)*%
X253345000Y-92047500D02*
X253215100Y-93953000D01*
X254725000Y-106362000D02*
X253345000Y-104982000D01*
X253345000Y-104982000D02*
X253345000Y-94082800D01*
X253345000Y-94082800D02*
X253215200Y-93953000D01*
X253215200Y-93953000D02*
X253215100Y-93953000D01*
%TO.N,Net-(D9-Pad2)*%
X272395000Y-92047500D02*
X272265100Y-93953000D01*
X273775000Y-106362000D02*
X272395000Y-104982000D01*
X272395000Y-104982000D02*
X272395000Y-94082800D01*
X272395000Y-94082800D02*
X272265200Y-93953000D01*
X272265200Y-93953000D02*
X272265100Y-93953000D01*
%TO.N,Net-(D'1-Pad2)*%
X324782000Y-130148000D02*
X324652100Y-132053500D01*
X326162000Y-144462000D02*
X324782000Y-143082000D01*
X324782000Y-143082000D02*
X324782000Y-132183300D01*
X324782000Y-132183300D02*
X324652200Y-132053500D01*
X324652200Y-132053500D02*
X324652100Y-132053500D01*
%TO.N,/row2*%
X75475000Y-144462000D02*
X75475000Y-143336700D01*
X71755000Y-131762000D02*
X73115400Y-133122400D01*
X73115400Y-133122400D02*
X73115400Y-135421900D01*
X73115400Y-135421900D02*
X74349700Y-136656200D01*
X74349700Y-136656200D02*
X74349700Y-142211400D01*
X74349700Y-142211400D02*
X75475000Y-143336700D01*
X185012000Y-144462000D02*
X186137300Y-144462000D01*
X223112000Y-144462000D02*
X224237300Y-144462000D01*
X146912000Y-144462000D02*
X148037300Y-144462000D01*
X165962000Y-144462000D02*
X164836700Y-144462000D01*
X164836700Y-144462000D02*
X163711400Y-145587300D01*
X163711400Y-145587300D02*
X149162600Y-145587300D01*
X149162600Y-145587300D02*
X148037300Y-144462000D01*
X242162000Y-144462000D02*
X241036700Y-144462000D01*
X224237300Y-144462000D02*
X225362600Y-145587300D01*
X225362600Y-145587300D02*
X239911400Y-145587300D01*
X239911400Y-145587300D02*
X241036700Y-144462000D01*
X204062000Y-144462000D02*
X202936700Y-144462000D01*
X186137300Y-144462000D02*
X187262600Y-145587300D01*
X187262600Y-145587300D02*
X201811400Y-145587300D01*
X201811400Y-145587300D02*
X202936700Y-144462000D01*
X280262000Y-144462000D02*
X281387300Y-144462000D01*
X299312000Y-144462000D02*
X298186700Y-144462000D01*
X298186700Y-144462000D02*
X297061400Y-145587300D01*
X297061400Y-145587300D02*
X282512600Y-145587300D01*
X282512600Y-145587300D02*
X281387300Y-144462000D01*
%TO.N,Net-(D-1-Pad2)*%
X310495000Y-92047500D02*
X310365100Y-93953000D01*
X311875000Y-106362000D02*
X310495000Y-104982000D01*
X310495000Y-104982000D02*
X310495000Y-94082800D01*
X310495000Y-94082800D02*
X310365200Y-93953000D01*
X310365200Y-93953000D02*
X310365100Y-93953000D01*
%TO.N,Net-(D/1-Pad2)*%
X315258000Y-149198000D02*
X315128100Y-151103500D01*
X316638000Y-163512000D02*
X315258000Y-162132000D01*
X315258000Y-162132000D02*
X315258000Y-151233300D01*
X315258000Y-151233300D02*
X315128200Y-151103500D01*
X315128200Y-151103500D02*
X315128100Y-151103500D01*
%TO.N,Net-(D;1-Pad2)*%
X305732000Y-130148000D02*
X305602100Y-132053500D01*
X307112000Y-144462000D02*
X305732000Y-143082000D01*
X305732000Y-143082000D02*
X305732000Y-132183300D01*
X305732000Y-132183300D02*
X305602200Y-132053500D01*
X305602200Y-132053500D02*
X305602100Y-132053500D01*
%TO.N,Net-(D=1-Pad2)*%
X329545000Y-92047500D02*
X329415100Y-93953000D01*
X330938000Y-106362000D02*
X329545000Y-104969000D01*
X329545000Y-104969000D02*
X329545000Y-94082800D01*
X329545000Y-94082800D02*
X329415200Y-93953000D01*
X329415200Y-93953000D02*
X329415100Y-93953000D01*
%TO.N,Net-(D[1-Pad2)*%
X320020000Y-111098000D02*
X319890100Y-113003500D01*
X321400000Y-125412000D02*
X320020000Y-124032000D01*
X320020000Y-124032000D02*
X320020000Y-113133300D01*
X320020000Y-113133300D02*
X319890200Y-113003500D01*
X319890200Y-113003500D02*
X319890100Y-113003500D01*
%TO.N,/row1*%
X57550300Y-125412000D02*
X60090300Y-127952000D01*
X60090300Y-127952000D02*
X70485000Y-127952000D01*
X70485000Y-127952000D02*
X71755000Y-129222000D01*
X99288000Y-125412000D02*
X98162700Y-125412000D01*
X98162700Y-125412000D02*
X95729600Y-127845100D01*
X95729600Y-127845100D02*
X83349900Y-127845100D01*
X83349900Y-127845100D02*
X80916800Y-125412000D01*
X80916800Y-125412000D02*
X75475000Y-125412000D01*
X56425000Y-125412000D02*
X57550300Y-125412000D01*
X294550000Y-125412000D02*
X295675300Y-125412000D01*
X313600000Y-125412000D02*
X312474700Y-125412000D01*
X312474700Y-125412000D02*
X311349400Y-126537300D01*
X311349400Y-126537300D02*
X296800600Y-126537300D01*
X296800600Y-126537300D02*
X295675300Y-125412000D01*
%TO.N,Net-(D\u005C1-Pad2)*%
X348595000Y-92047500D02*
X348465100Y-93953000D01*
X349975000Y-106362000D02*
X348595000Y-104982000D01*
X348595000Y-104982000D02*
X348595000Y-94082800D01*
X348595000Y-94082800D02*
X348465200Y-93953000D01*
X348465200Y-93953000D02*
X348465100Y-93953000D01*
%TO.N,Net-(D]1-Pad2)*%
X339070000Y-111098000D02*
X338940100Y-113003500D01*
X340450000Y-125412000D02*
X339070000Y-124032000D01*
X339070000Y-124032000D02*
X339070000Y-113133300D01*
X339070000Y-113133300D02*
X338940200Y-113003500D01*
X338940200Y-113003500D02*
X338940100Y-113003500D01*
%TO.N,Net-(DA1-Pad2)*%
X134282000Y-130148000D02*
X134152100Y-132053500D01*
X135662000Y-144462000D02*
X134282000Y-143082000D01*
X134282000Y-143082000D02*
X134282000Y-132183300D01*
X134282000Y-132183300D02*
X134152200Y-132053500D01*
X134152200Y-132053500D02*
X134152100Y-132053500D01*
%TO.N,Net-(DB1-Pad2)*%
X220008000Y-149198000D02*
X219878100Y-151103500D01*
X221388000Y-163512000D02*
X220008000Y-162132000D01*
X220008000Y-162132000D02*
X220008000Y-151233300D01*
X220008000Y-151233300D02*
X219878200Y-151103500D01*
X219878200Y-151103500D02*
X219878100Y-151103500D01*
%TO.N,Net-(DBkspce1-Pad2)*%
X362882000Y-111098000D02*
X364517800Y-111209500D01*
X364517800Y-111209500D02*
X364517800Y-112017300D01*
X364517800Y-112017300D02*
X364262000Y-112273100D01*
X364262000Y-112273100D02*
X364262000Y-125412000D01*
%TO.N,Net-(DC1-Pad2)*%
X181908000Y-149198000D02*
X181778100Y-151103500D01*
X183300000Y-163512000D02*
X181908000Y-162120000D01*
X181908000Y-162120000D02*
X181908000Y-151233300D01*
X181908000Y-151233300D02*
X181778200Y-151103500D01*
X181778200Y-151103500D02*
X181778100Y-151103500D01*
%TO.N,Net-(DControl1-Pad2)*%
X108089000Y-130148000D02*
X109724800Y-130259500D01*
X109724800Y-130259500D02*
X109724800Y-131067300D01*
X109724800Y-131067300D02*
X109469000Y-131323100D01*
X109469000Y-131323100D02*
X109469000Y-144462000D01*
%TO.N,Net-(DD1-Pad2)*%
X172382000Y-130148000D02*
X172252100Y-132053500D01*
X173762000Y-144462000D02*
X172382000Y-143082000D01*
X172382000Y-143082000D02*
X172382000Y-132183300D01*
X172382000Y-132183300D02*
X172252200Y-132053500D01*
X172252200Y-132053500D02*
X172252100Y-132053500D01*
%TO.N,Net-(DDown1-Pad2)*%
X300970000Y-168248000D02*
X300840100Y-170153500D01*
X302350000Y-182562000D02*
X300970000Y-181182000D01*
X300970000Y-181182000D02*
X300970000Y-170283300D01*
X300970000Y-170283300D02*
X300840200Y-170153500D01*
X300840200Y-170153500D02*
X300840100Y-170153500D01*
%TO.N,/row4*%
X75475000Y-182562000D02*
X75475000Y-181436700D01*
X71755000Y-136842000D02*
X71755000Y-177716700D01*
X71755000Y-177716700D02*
X75475000Y-181436700D01*
%TO.N,Net-(DE1-Pad2)*%
X167620000Y-111098000D02*
X167490100Y-113003500D01*
X169000000Y-125412000D02*
X167620000Y-124032000D01*
X167620000Y-124032000D02*
X167620000Y-113133300D01*
X167620000Y-113133300D02*
X167490200Y-113003500D01*
X167490200Y-113003500D02*
X167490100Y-113003500D01*
%TO.N,Net-(DEsc1-Pad2)*%
X100945000Y-92047500D02*
X100815100Y-93953000D01*
X102325000Y-106362000D02*
X100945000Y-104982000D01*
X100945000Y-104982000D02*
X100945000Y-94082800D01*
X100945000Y-94082800D02*
X100815200Y-93953000D01*
X100815200Y-93953000D02*
X100815100Y-93953000D01*
%TO.N,Net-(DF1-Pad2)*%
X191432000Y-130148000D02*
X191302100Y-132053500D01*
X192812000Y-144462000D02*
X191432000Y-143082000D01*
X191432000Y-143082000D02*
X191432000Y-132183300D01*
X191432000Y-132183300D02*
X191302200Y-132053500D01*
X191302200Y-132053500D02*
X191302100Y-132053500D01*
%TO.N,Net-(DG1-Pad2)*%
X210482000Y-130148000D02*
X210352100Y-132053500D01*
X211862000Y-144462000D02*
X210482000Y-143082000D01*
X210482000Y-143082000D02*
X210482000Y-132183300D01*
X210482000Y-132183300D02*
X210352200Y-132053500D01*
X210352200Y-132053500D02*
X210352100Y-132053500D01*
%TO.N,Net-(DH1-Pad2)*%
X229532000Y-130148000D02*
X229402100Y-132053500D01*
X230912000Y-144462000D02*
X229532000Y-143082000D01*
X229532000Y-143082000D02*
X229532000Y-132183300D01*
X229532000Y-132183300D02*
X229402200Y-132053500D01*
X229402200Y-132053500D02*
X229402100Y-132053500D01*
%TO.N,Net-(DI1-Pad2)*%
X262870000Y-111098000D02*
X262740100Y-113003500D01*
X264250000Y-125412000D02*
X262870000Y-124032000D01*
X262870000Y-124032000D02*
X262870000Y-113133300D01*
X262870000Y-113133300D02*
X262740200Y-113003500D01*
X262740200Y-113003500D02*
X262740100Y-113003500D01*
%TO.N,Net-(DJ1-Pad2)*%
X248582000Y-130148000D02*
X248452100Y-132053500D01*
X249962000Y-144462000D02*
X248582000Y-143082000D01*
X248582000Y-143082000D02*
X248582000Y-132183300D01*
X248582000Y-132183300D02*
X248452200Y-132053500D01*
X248452200Y-132053500D02*
X248452100Y-132053500D01*
%TO.N,Net-(DK1-Pad2)*%
X267632000Y-130148000D02*
X267502100Y-132053500D01*
X269012000Y-144462000D02*
X267632000Y-143082000D01*
X267632000Y-143082000D02*
X267632000Y-132183300D01*
X267632000Y-132183300D02*
X267502200Y-132053500D01*
X267502200Y-132053500D02*
X267502100Y-132053500D01*
%TO.N,Net-(DL1-Pad2)*%
X286682000Y-130148000D02*
X286552100Y-132053500D01*
X288062000Y-144462000D02*
X286682000Y-143082000D01*
X286682000Y-143082000D02*
X286682000Y-132183300D01*
X286682000Y-132183300D02*
X286552200Y-132053500D01*
X286552200Y-132053500D02*
X286552100Y-132053500D01*
%TO.N,Net-(DLAlt1-Pad2)*%
X127139000Y-168248000D02*
X128774800Y-168359500D01*
X128774800Y-168359500D02*
X128774800Y-169167300D01*
X128774800Y-169167300D02*
X128519000Y-169423100D01*
X128519000Y-169423100D02*
X128519000Y-182562000D01*
%TO.N,Net-(DLeft1-Pad2)*%
X281920000Y-168248000D02*
X281790100Y-170153500D01*
X283300000Y-182562000D02*
X281920000Y-181182000D01*
X281920000Y-181182000D02*
X281920000Y-170283300D01*
X281920000Y-170283300D02*
X281790200Y-170153500D01*
X281790200Y-170153500D02*
X281790100Y-170153500D01*
%TO.N,Net-(DLOpt1-Pad2)*%
X103326000Y-168248000D02*
X104961800Y-168359500D01*
X104961800Y-168359500D02*
X104961800Y-169167300D01*
X104961800Y-169167300D02*
X104706000Y-169423100D01*
X104706000Y-169423100D02*
X104706000Y-182562000D01*
%TO.N,Net-(DLShift1-Pad2)*%
X112851000Y-149198000D02*
X114486800Y-149309500D01*
X114486800Y-149309500D02*
X114486800Y-150117300D01*
X114486800Y-150117300D02*
X114231000Y-150373100D01*
X114231000Y-150373100D02*
X114231000Y-163512000D01*
%TO.N,Net-(DLSpace1-Pad2)*%
X203339000Y-168248000D02*
X204974800Y-168359500D01*
X204974800Y-168359500D02*
X204974800Y-169167300D01*
X204974800Y-169167300D02*
X204719000Y-169423100D01*
X204719000Y-169423100D02*
X204719000Y-182562000D01*
%TO.N,Net-(DM1-Pad2)*%
X258108000Y-149198000D02*
X259743800Y-149309500D01*
X259488000Y-163512000D02*
X259488000Y-150373100D01*
X259488000Y-150373100D02*
X259743800Y-150117300D01*
X259743800Y-150117300D02*
X259743800Y-149309500D01*
%TO.N,Net-(DN1-Pad2)*%
X239058000Y-149198000D02*
X238928100Y-151103500D01*
X240438000Y-163512000D02*
X239058000Y-162132000D01*
X239058000Y-162132000D02*
X239058000Y-151233300D01*
X239058000Y-151233300D02*
X238928200Y-151103500D01*
X238928200Y-151103500D02*
X238928100Y-151103500D01*
%TO.N,Net-(DNum.1-Pad2)*%
X62845000Y-168248000D02*
X62715100Y-170153500D01*
X64225000Y-182562000D02*
X62845000Y-181182000D01*
X62845000Y-181182000D02*
X62845000Y-170283300D01*
X62845000Y-170283300D02*
X62715200Y-170153500D01*
X62715200Y-170153500D02*
X62715100Y-170153500D01*
%TO.N,Net-(DNum0-Pad2)*%
X43795000Y-168248000D02*
X43665100Y-170153500D01*
X45175000Y-182562000D02*
X43795000Y-181182000D01*
X43795000Y-181182000D02*
X43795000Y-170283300D01*
X43795000Y-170283300D02*
X43665200Y-170153500D01*
X43665200Y-170153500D02*
X43665100Y-170153500D01*
%TO.N,Net-(DNum1-Pad2)*%
X43795000Y-149198000D02*
X43665100Y-151103500D01*
X45175000Y-163512000D02*
X43795000Y-162132000D01*
X43795000Y-162132000D02*
X43795000Y-151233300D01*
X43795000Y-151233300D02*
X43665200Y-151103500D01*
X43665200Y-151103500D02*
X43665100Y-151103500D01*
%TO.N,Net-(DNum2-Pad2)*%
X62845000Y-149198000D02*
X62715100Y-151103500D01*
X64225000Y-163512000D02*
X62845000Y-162132000D01*
X62845000Y-162132000D02*
X62845000Y-151233300D01*
X62845000Y-151233300D02*
X62715200Y-151103500D01*
X62715200Y-151103500D02*
X62715100Y-151103500D01*
%TO.N,Net-(DNum3-Pad2)*%
X81895000Y-149198000D02*
X81765100Y-151103500D01*
X83275000Y-163512000D02*
X81895000Y-162132000D01*
X81895000Y-162132000D02*
X81895000Y-151233300D01*
X81895000Y-151233300D02*
X81765200Y-151103500D01*
X81765200Y-151103500D02*
X81765100Y-151103500D01*
%TO.N,Net-(DNum4-Pad2)*%
X43795000Y-130148000D02*
X43665100Y-132053500D01*
X45175000Y-144462000D02*
X43795000Y-143082000D01*
X43795000Y-143082000D02*
X43795000Y-132183300D01*
X43795000Y-132183300D02*
X43665200Y-132053500D01*
X43665200Y-132053500D02*
X43665100Y-132053500D01*
%TO.N,Net-(DNum5-Pad2)*%
X62845000Y-130148000D02*
X64480800Y-130259500D01*
X64225000Y-144462000D02*
X64225000Y-131323100D01*
X64225000Y-131323100D02*
X64480800Y-131067300D01*
X64480800Y-131067300D02*
X64480800Y-130259500D01*
%TO.N,Net-(DNum7-Pad2)*%
X43795000Y-111098000D02*
X43665100Y-113003500D01*
X45175000Y-125412000D02*
X43795000Y-124032000D01*
X43795000Y-124032000D02*
X43795000Y-113133300D01*
X43795000Y-113133300D02*
X43665200Y-113003500D01*
X43665200Y-113003500D02*
X43665100Y-113003500D01*
%TO.N,Net-(DNum8-Pad2)*%
X62845000Y-111098000D02*
X62715100Y-113003500D01*
X64225000Y-125412000D02*
X62845000Y-124032000D01*
X62845000Y-124032000D02*
X62845000Y-113133300D01*
X62845000Y-113133300D02*
X62715200Y-113003500D01*
X62715200Y-113003500D02*
X62715100Y-113003500D01*
%TO.N,Net-(DNum9-Pad2)*%
X81895000Y-111098000D02*
X81765100Y-113003500D01*
X83275000Y-125412000D02*
X81895000Y-124032000D01*
X81895000Y-124032000D02*
X81895000Y-113133300D01*
X81895000Y-113133300D02*
X81765200Y-113003500D01*
X81765200Y-113003500D02*
X81765100Y-113003500D01*
%TO.N,Net-(DNum-1-Pad2)*%
X81895000Y-92047500D02*
X81765100Y-93953000D01*
X83275000Y-106362000D02*
X81895000Y-104982000D01*
X81895000Y-104982000D02*
X81895000Y-94082800D01*
X81895000Y-94082800D02*
X81765200Y-93953000D01*
X81765200Y-93953000D02*
X81765100Y-93953000D01*
%TO.N,Net-(DNumEnter1-Pad2)*%
X81895000Y-168248000D02*
X81765100Y-170153500D01*
X83275000Y-182562000D02*
X81895000Y-181182000D01*
X81895000Y-181182000D02*
X81895000Y-170283300D01*
X81895000Y-170283300D02*
X81765200Y-170153500D01*
X81765200Y-170153500D02*
X81765100Y-170153500D01*
%TO.N,Net-(DO1-Pad2)*%
X281920000Y-111098000D02*
X281790100Y-113003500D01*
X283300000Y-125412000D02*
X281920000Y-124032000D01*
X281920000Y-124032000D02*
X281920000Y-113133300D01*
X281920000Y-113133300D02*
X281790200Y-113003500D01*
X281790200Y-113003500D02*
X281790100Y-113003500D01*
%TO.N,Net-(DP1-Pad2)*%
X300970000Y-111098000D02*
X300840100Y-113003500D01*
X302350000Y-125412000D02*
X300970000Y-124032000D01*
X300970000Y-124032000D02*
X300970000Y-113133300D01*
X300970000Y-113133300D02*
X300840200Y-113003500D01*
X300840200Y-113003500D02*
X300840100Y-113003500D01*
%TO.N,Net-(DQ1-Pad2)*%
X129520000Y-111098000D02*
X129390100Y-113003500D01*
X130900000Y-125412000D02*
X129520000Y-124032000D01*
X129520000Y-124032000D02*
X129520000Y-113133300D01*
X129520000Y-113133300D02*
X129390200Y-113003500D01*
X129390200Y-113003500D02*
X129390100Y-113003500D01*
%TO.N,Net-(DR1-Pad2)*%
X186670000Y-111098000D02*
X186540100Y-113003500D01*
X188050000Y-125412000D02*
X186670000Y-124032000D01*
X186670000Y-124032000D02*
X186670000Y-113133300D01*
X186670000Y-113133300D02*
X186540200Y-113003500D01*
X186540200Y-113003500D02*
X186540100Y-113003500D01*
%TO.N,Net-(DREnter1-Pad2)*%
X355739000Y-130148000D02*
X357374800Y-130259500D01*
X357374800Y-130259500D02*
X357374800Y-131067300D01*
X357374800Y-131067300D02*
X357119000Y-131323100D01*
X357119000Y-131323100D02*
X357119000Y-144462000D01*
%TO.N,Net-(DRFn1-Pad2)*%
X367645000Y-149198000D02*
X367515100Y-151103500D01*
X369025000Y-163512000D02*
X367645000Y-162132000D01*
X367645000Y-162132000D02*
X367645000Y-151233300D01*
X367645000Y-151233300D02*
X367515200Y-151103500D01*
X367515200Y-151103500D02*
X367515100Y-151103500D01*
%TO.N,Net-(DRight1-Pad2)*%
X339070000Y-168248000D02*
X338940100Y-170153500D01*
X340450000Y-182562000D02*
X339070000Y-181182000D01*
X339070000Y-181182000D02*
X339070000Y-170283300D01*
X339070000Y-170283300D02*
X338940200Y-170153500D01*
X338940200Y-170153500D02*
X338940100Y-170153500D01*
%TO.N,Net-(DRShift1-Pad2)*%
X341451000Y-149198000D02*
X343086800Y-149309500D01*
X343086800Y-149309500D02*
X343086800Y-150117300D01*
X343086800Y-150117300D02*
X342831000Y-150373100D01*
X342831000Y-150373100D02*
X342831000Y-163512000D01*
%TO.N,Net-(DRSpace1-Pad2)*%
X250964000Y-168248000D02*
X252599800Y-168359500D01*
X252599800Y-168359500D02*
X252599800Y-169167300D01*
X252599800Y-169167300D02*
X252344000Y-169423100D01*
X252344000Y-169423100D02*
X252344000Y-182562000D01*
%TO.N,Net-(DRSu1-Pad2)*%
X362882000Y-168248000D02*
X364517800Y-168359500D01*
X364517800Y-168359500D02*
X364517800Y-169167300D01*
X364517800Y-169167300D02*
X364262000Y-169423100D01*
X364262000Y-169423100D02*
X364262000Y-182562000D01*
%TO.N,Net-(DS1-Pad2)*%
X153332000Y-130148000D02*
X153202100Y-132053500D01*
X154712000Y-144462000D02*
X153332000Y-143082000D01*
X153332000Y-143082000D02*
X153332000Y-132183300D01*
X153332000Y-132183300D02*
X153202200Y-132053500D01*
X153202200Y-132053500D02*
X153202100Y-132053500D01*
%TO.N,Net-(DSu1-Pad2)*%
X148570000Y-168248000D02*
X148440100Y-170153500D01*
X149950000Y-182562000D02*
X148570000Y-181182000D01*
X148570000Y-181182000D02*
X148570000Y-170283300D01*
X148570000Y-170283300D02*
X148440200Y-170153500D01*
X148440200Y-170153500D02*
X148440100Y-170153500D01*
%TO.N,Net-(DT1-Pad2)*%
X205720000Y-111098000D02*
X205590100Y-113003500D01*
X207100000Y-125412000D02*
X205720000Y-124032000D01*
X205720000Y-124032000D02*
X205720000Y-113133300D01*
X205720000Y-113133300D02*
X205590200Y-113003500D01*
X205590200Y-113003500D02*
X205590100Y-113003500D01*
%TO.N,Net-(DTab1-Pad2)*%
X105708000Y-111098000D02*
X107343800Y-111209500D01*
X107343800Y-111209500D02*
X107343800Y-112017300D01*
X107343800Y-112017300D02*
X107088000Y-112273100D01*
X107088000Y-112273100D02*
X107088000Y-125412000D01*
%TO.N,Net-(Dtil1-Pad2)*%
X367645000Y-92047500D02*
X367515100Y-93953000D01*
X369025000Y-106362000D02*
X367645000Y-104982000D01*
X367645000Y-104982000D02*
X367645000Y-94082800D01*
X367645000Y-94082800D02*
X367515200Y-93953000D01*
X367515200Y-93953000D02*
X367515100Y-93953000D01*
%TO.N,Net-(DU1-Pad2)*%
X243820000Y-111098000D02*
X243690100Y-113003500D01*
X245200000Y-125412000D02*
X243820000Y-124032000D01*
X243820000Y-124032000D02*
X243820000Y-113133300D01*
X243820000Y-113133300D02*
X243690200Y-113003500D01*
X243690200Y-113003500D02*
X243690100Y-113003500D01*
%TO.N,Net-(DUp1-Pad2)*%
X320020000Y-168248000D02*
X319890100Y-170153500D01*
X321400000Y-182562000D02*
X320020000Y-181182000D01*
X320020000Y-181182000D02*
X320020000Y-170283300D01*
X320020000Y-170283300D02*
X319890200Y-170153500D01*
X319890200Y-170153500D02*
X319890100Y-170153500D01*
%TO.N,Net-(DV1-Pad2)*%
X200958000Y-149198000D02*
X200828100Y-151103500D01*
X202338000Y-163512000D02*
X200958000Y-162132000D01*
X200958000Y-162132000D02*
X200958000Y-151233300D01*
X200958000Y-151233300D02*
X200828200Y-151103500D01*
X200828200Y-151103500D02*
X200828100Y-151103500D01*
%TO.N,Net-(DW1-Pad2)*%
X148570000Y-111098000D02*
X148440100Y-113003500D01*
X149950000Y-125412000D02*
X148570000Y-124032000D01*
X148570000Y-124032000D02*
X148570000Y-113133300D01*
X148570000Y-113133300D02*
X148440200Y-113003500D01*
X148440200Y-113003500D02*
X148440100Y-113003500D01*
%TO.N,/col6*%
X157083000Y-150468000D02*
X155422000Y-149409900D01*
X155422000Y-149409900D02*
X149756500Y-149409900D01*
X149756500Y-149409900D02*
X145786600Y-145440000D01*
X145786600Y-145440000D02*
X145786600Y-136683400D01*
X145786600Y-136683400D02*
X147557000Y-134913000D01*
X147557000Y-134913000D02*
X147557000Y-131418000D01*
X144323600Y-167118600D02*
X157083000Y-154359200D01*
X157083000Y-154359200D02*
X157083000Y-150468000D01*
X142795000Y-169518000D02*
X144323600Y-167118600D01*
X147557000Y-131418000D02*
X149085600Y-129018600D01*
X149085600Y-129018600D02*
X147557000Y-127490000D01*
X147557000Y-127490000D02*
X147557000Y-120811400D01*
X147557000Y-120811400D02*
X142795000Y-116049400D01*
X142795000Y-116049400D02*
X142795000Y-112368000D01*
X142795000Y-112368000D02*
X144323600Y-109968600D01*
X152320000Y-93317500D02*
X144323500Y-101314000D01*
X144323500Y-101314000D02*
X144323500Y-109968500D01*
X144323500Y-109968500D02*
X144323600Y-109968600D01*
%TO.N,Net-(DX1-Pad2)*%
X162858000Y-149198000D02*
X162728100Y-151103500D01*
X164238000Y-163512000D02*
X162858000Y-162132000D01*
X162858000Y-162132000D02*
X162858000Y-151233300D01*
X162858000Y-151233300D02*
X162728200Y-151103500D01*
X162728200Y-151103500D02*
X162728100Y-151103500D01*
%TO.N,Net-(DY1-Pad2)*%
X224770000Y-111098000D02*
X224640100Y-113003500D01*
X226150000Y-125412000D02*
X224770000Y-124032000D01*
X224770000Y-124032000D02*
X224770000Y-113133300D01*
X224770000Y-113133300D02*
X224640200Y-113003500D01*
X224640200Y-113003500D02*
X224640100Y-113003500D01*
%TO.N,Net-(DZ1-Pad2)*%
X143808000Y-149198000D02*
X143678100Y-151103500D01*
X145188000Y-163512000D02*
X143808000Y-162132000D01*
X143808000Y-162132000D02*
X143808000Y-151233300D01*
X143808000Y-151233300D02*
X143678200Y-151103500D01*
X143678200Y-151103500D02*
X143678100Y-151103500D01*
%TO.N,/col13*%
X277673500Y-100904600D02*
X277673500Y-109968500D01*
X277673500Y-109968500D02*
X277673600Y-109968600D01*
X285670000Y-93317500D02*
X278082900Y-100904600D01*
X278082900Y-100904600D02*
X277673500Y-100904600D01*
X290433000Y-150468000D02*
X288772000Y-149409900D01*
X288772000Y-149409900D02*
X283106500Y-149409900D01*
X283106500Y-149409900D02*
X279136600Y-145440000D01*
X279136600Y-145440000D02*
X279136600Y-136683400D01*
X279136600Y-136683400D02*
X280907000Y-134913000D01*
X280907000Y-134913000D02*
X280907000Y-131418000D01*
X290433000Y-150468000D02*
X290433000Y-154359200D01*
X290433000Y-154359200D02*
X277673600Y-167118600D01*
X280907000Y-131418000D02*
X282435600Y-129018600D01*
X282435600Y-129018600D02*
X280907000Y-127490000D01*
X280907000Y-127490000D02*
X280907000Y-120811400D01*
X280907000Y-120811400D02*
X276145000Y-116049400D01*
X276145000Y-116049400D02*
X276145000Y-112368000D01*
X276145000Y-169518000D02*
X277673600Y-167118600D01*
X276145000Y-112368000D02*
X277673600Y-109968600D01*
%TO.N,/col12*%
X261857000Y-131418000D02*
X260196000Y-130359900D01*
X260196000Y-130359900D02*
X260196100Y-130359800D01*
X260196100Y-130359800D02*
X260196100Y-129757100D01*
X260196100Y-129757100D02*
X257675500Y-127236500D01*
X257675500Y-127236500D02*
X257675500Y-111456800D01*
X269722000Y-149409900D02*
X269722100Y-149409800D01*
X269722100Y-149409800D02*
X269722100Y-148807100D01*
X269722100Y-148807100D02*
X261857000Y-140942000D01*
X261857000Y-140942000D02*
X261857000Y-131418000D01*
X257675500Y-111456800D02*
X258623600Y-109968600D01*
X257095000Y-112368000D02*
X257675500Y-111456800D01*
X266620000Y-93317500D02*
X258623500Y-101314000D01*
X258623500Y-101314000D02*
X258623500Y-109968500D01*
X258623500Y-109968500D02*
X258623600Y-109968600D01*
X271383000Y-150468000D02*
X269722000Y-149409900D01*
%TO.N,/col4*%
X103668600Y-109722500D02*
X103668600Y-111666700D01*
X103668600Y-111666700D02*
X105532500Y-113530600D01*
X105532500Y-113530600D02*
X105532500Y-131555500D01*
X105532500Y-131555500D02*
X103244800Y-133843200D01*
X103244800Y-133843200D02*
X103244800Y-146636800D01*
X103244800Y-146636800D02*
X105415100Y-148807100D01*
X105415100Y-148807100D02*
X105415100Y-149409800D01*
X105415100Y-149409800D02*
X105415000Y-149409900D01*
X114220000Y-93317500D02*
X103668600Y-103868900D01*
X103668600Y-103868900D02*
X103668600Y-109722500D01*
X103668600Y-109722500D02*
X99843200Y-109722500D01*
X99843200Y-109722500D02*
X88409600Y-121156100D01*
X88409600Y-121156100D02*
X88409600Y-122727400D01*
X88409600Y-122727400D02*
X86995000Y-124142000D01*
X107076000Y-150468000D02*
X105415000Y-149409900D01*
X121364000Y-169518000D02*
X119703000Y-168459900D01*
X107076000Y-150468000D02*
X107076000Y-157949000D01*
X107076000Y-157949000D02*
X117586900Y-168459900D01*
X117586900Y-168459900D02*
X119703000Y-168459900D01*
%TO.N,/col5*%
X123745000Y-112368000D02*
X123745000Y-122537300D01*
X123745000Y-122537300D02*
X128507000Y-127299300D01*
X130035600Y-129018600D02*
X128507000Y-127490000D01*
X128507000Y-127490000D02*
X128507000Y-127299300D01*
X138033000Y-150468000D02*
X136372000Y-149409900D01*
X136372000Y-149409900D02*
X136372100Y-149409800D01*
X136372100Y-149409800D02*
X136372100Y-148807100D01*
X136372100Y-148807100D02*
X128507000Y-140942000D01*
X128507000Y-140942000D02*
X128507000Y-131418000D01*
X128507000Y-131418000D02*
X130035600Y-129018600D01*
X123745000Y-112368000D02*
X125273600Y-109968600D01*
X133270000Y-93317500D02*
X134931000Y-94375600D01*
X134931000Y-94375600D02*
X133750400Y-95556200D01*
X133750400Y-95556200D02*
X133750400Y-107296800D01*
X133750400Y-107296800D02*
X132053300Y-108993900D01*
X132053300Y-108993900D02*
X127119100Y-108993900D01*
X127119100Y-108993900D02*
X126144400Y-109968600D01*
X126144400Y-109968600D02*
X125273600Y-109968600D01*
%TO.N,/col7*%
X176133000Y-150468000D02*
X177794000Y-151526100D01*
X161845000Y-169518000D02*
X163373600Y-167118600D01*
X163373600Y-167118600D02*
X164244400Y-167118600D01*
X164244400Y-167118600D02*
X165012100Y-166350900D01*
X165012100Y-166350900D02*
X174770900Y-166350900D01*
X174770900Y-166350900D02*
X176625400Y-164496400D01*
X176625400Y-164496400D02*
X176625400Y-152694700D01*
X176625400Y-152694700D02*
X177794000Y-151526100D01*
X176133000Y-150468000D02*
X174472000Y-149409900D01*
X166607000Y-131418000D02*
X168135600Y-129018600D01*
X168135600Y-129018600D02*
X166607000Y-127490000D01*
X166607000Y-127490000D02*
X166607000Y-120811400D01*
X166607000Y-120811400D02*
X161845000Y-116049400D01*
X161845000Y-116049400D02*
X161845000Y-112368000D01*
X174472000Y-149409900D02*
X174472100Y-149409800D01*
X174472100Y-149409800D02*
X174472100Y-148807100D01*
X174472100Y-148807100D02*
X166607000Y-140942000D01*
X166607000Y-140942000D02*
X166607000Y-131418000D01*
X161845000Y-112368000D02*
X163373600Y-109968600D01*
X171370000Y-93317500D02*
X163373500Y-101314000D01*
X163373500Y-101314000D02*
X163373500Y-109968500D01*
X163373500Y-109968500D02*
X163373600Y-109968600D01*
%TO.N,/col8*%
X195183000Y-150468000D02*
X193522000Y-149409900D01*
X193522000Y-149409900D02*
X187882200Y-149409900D01*
X187882200Y-149409900D02*
X183886600Y-145414300D01*
X183886600Y-145414300D02*
X183886600Y-136683400D01*
X183886600Y-136683400D02*
X185657000Y-134913000D01*
X185657000Y-134913000D02*
X185657000Y-131418000D01*
X199092600Y-167118600D02*
X197564000Y-165590000D01*
X197564000Y-165590000D02*
X197564000Y-156530400D01*
X197564000Y-156530400D02*
X195183000Y-154149400D01*
X195183000Y-154149400D02*
X195183000Y-150468000D01*
X185657000Y-131418000D02*
X187185600Y-129018600D01*
X187185600Y-129018600D02*
X185657000Y-127490000D01*
X185657000Y-127490000D02*
X185657000Y-120811400D01*
X185657000Y-120811400D02*
X180895000Y-116049400D01*
X180895000Y-116049400D02*
X180895000Y-112368000D01*
X180895000Y-112368000D02*
X182423600Y-109968600D01*
X190420000Y-93317500D02*
X182423500Y-101314000D01*
X182423500Y-101314000D02*
X182423500Y-109968500D01*
X182423500Y-109968500D02*
X182423600Y-109968600D01*
X197564000Y-169518000D02*
X199092600Y-167118600D01*
%TO.N,/col9*%
X212572000Y-149409900D02*
X212572100Y-149409800D01*
X212572100Y-149409800D02*
X212572100Y-148807100D01*
X212572100Y-148807100D02*
X205196200Y-141431200D01*
X205196200Y-141431200D02*
X205196200Y-140240600D01*
X205196200Y-140240600D02*
X204707000Y-139751400D01*
X204707000Y-139751400D02*
X204707000Y-131418000D01*
X204707000Y-131418000D02*
X206235600Y-129018600D01*
X206235600Y-129018600D02*
X204707000Y-127490000D01*
X204707000Y-127490000D02*
X204707000Y-120811400D01*
X204707000Y-120811400D02*
X199945000Y-116049400D01*
X199945000Y-116049400D02*
X199945000Y-112368000D01*
X214233000Y-150468000D02*
X212572000Y-149409900D01*
X199945000Y-112368000D02*
X201473600Y-109968600D01*
X209470000Y-93317500D02*
X201473500Y-101314000D01*
X201473500Y-101314000D02*
X201473500Y-109968500D01*
X201473500Y-109968500D02*
X201473600Y-109968600D01*
%TO.N,/col10*%
X233283000Y-150468000D02*
X231622000Y-149409900D01*
X231622000Y-149409900D02*
X225999800Y-149409900D01*
X225999800Y-149409900D02*
X221986600Y-145396700D01*
X221986600Y-145396700D02*
X221986600Y-136683400D01*
X221986600Y-136683400D02*
X223757000Y-134913000D01*
X223757000Y-134913000D02*
X223757000Y-131418000D01*
X223757000Y-131418000D02*
X225285600Y-129018600D01*
X225285600Y-129018600D02*
X223757000Y-127490000D01*
X223757000Y-127490000D02*
X223757000Y-120811400D01*
X223757000Y-120811400D02*
X218995000Y-116049400D01*
X218995000Y-116049400D02*
X218995000Y-112368000D01*
X218995000Y-112368000D02*
X220523600Y-109968600D01*
X228520000Y-93317500D02*
X220523500Y-101314000D01*
X220523500Y-101314000D02*
X220523500Y-109968500D01*
X220523500Y-109968500D02*
X220523600Y-109968600D01*
%TO.N,/col11*%
X239573600Y-109968600D02*
X239573500Y-109968500D01*
X239573500Y-109968500D02*
X239573500Y-101377000D01*
X239573500Y-101377000D02*
X241028800Y-99921700D01*
X241028800Y-99921700D02*
X241028800Y-99858700D01*
X247570000Y-93317500D02*
X241028800Y-99858700D01*
X251071500Y-150665400D02*
X242807000Y-142400900D01*
X242807000Y-142400900D02*
X242807000Y-131418000D01*
X246717600Y-167118600D02*
X246717500Y-167118500D01*
X246717500Y-167118500D02*
X246717500Y-156083500D01*
X246717500Y-156083500D02*
X251071500Y-151729500D01*
X251071500Y-151729500D02*
X251071500Y-150665400D01*
X251071500Y-150665400D02*
X252135600Y-150665400D01*
X252135600Y-150665400D02*
X252333000Y-150468000D01*
X242807000Y-131418000D02*
X244335600Y-129018600D01*
X244335600Y-129018600D02*
X242807000Y-127490000D01*
X242807000Y-127490000D02*
X242807000Y-120811400D01*
X242807000Y-120811400D02*
X238045000Y-116049400D01*
X238045000Y-116049400D02*
X238045000Y-112368000D01*
X238045000Y-112368000D02*
X239573600Y-109968600D01*
X245189000Y-169518000D02*
X246717600Y-167118600D01*
%TO.N,/col15*%
X312584000Y-111309900D02*
X311776900Y-111309900D01*
X311776900Y-111309900D02*
X308487200Y-108020200D01*
X314245000Y-112368000D02*
X312584000Y-111309900D01*
X320535600Y-129018600D02*
X319007000Y-127490000D01*
X319007000Y-127490000D02*
X319007000Y-120811400D01*
X319007000Y-120811400D02*
X314245000Y-116049400D01*
X314245000Y-116049400D02*
X314245000Y-112368000D01*
X314245000Y-169518000D02*
X315773600Y-167118600D01*
X315773600Y-167118600D02*
X319587500Y-163304700D01*
X319587500Y-163304700D02*
X319587500Y-130506800D01*
X319587500Y-130506800D02*
X320535600Y-129018600D01*
X319007000Y-131418000D02*
X319587500Y-130506800D01*
X314245000Y-112368000D02*
X315773600Y-109968600D01*
X323770000Y-93317500D02*
X323770000Y-101972200D01*
X323770000Y-101972200D02*
X315773600Y-109968600D01*
%TO.N,/col14*%
X295195000Y-112368000D02*
X293534000Y-111309900D01*
X293534000Y-111309900D02*
X293534100Y-111309800D01*
X293534100Y-111309800D02*
X293534100Y-110707100D01*
X293534100Y-110707100D02*
X287180100Y-104353100D01*
X287180100Y-104353100D02*
X287180100Y-104316700D01*
X298296000Y-130359900D02*
X297426500Y-130359900D01*
X297426500Y-130359900D02*
X293424600Y-126358000D01*
X293424600Y-126358000D02*
X293424600Y-117633400D01*
X293424600Y-117633400D02*
X295195000Y-115863000D01*
X295195000Y-115863000D02*
X295195000Y-112368000D01*
X309483000Y-150468000D02*
X307822000Y-149409900D01*
X307822000Y-149409900D02*
X307822100Y-149409800D01*
X307822100Y-149409800D02*
X307822100Y-148807100D01*
X307822100Y-148807100D02*
X299957000Y-140942000D01*
X299957000Y-140942000D02*
X299957000Y-131418000D01*
X309483000Y-150468000D02*
X309483000Y-154359200D01*
X309483000Y-154359200D02*
X296723600Y-167118600D01*
X299957000Y-131418000D02*
X298296000Y-130359900D01*
X295195000Y-169518000D02*
X296723600Y-167118600D01*
X295195000Y-112368000D02*
X296723600Y-109968600D01*
X304720000Y-93317500D02*
X304720000Y-101972200D01*
X304720000Y-101972200D02*
X296723600Y-109968600D01*
%TO.N,/col16*%
X88932600Y-108341600D02*
X90520000Y-109929000D01*
X333295000Y-112368000D02*
X334823600Y-109968600D01*
X341623600Y-108993900D02*
X336669100Y-108993900D01*
X336669100Y-108993900D02*
X335694400Y-109968600D01*
X335694400Y-109968600D02*
X334823600Y-109968600D01*
X344481000Y-94375600D02*
X343337600Y-95519000D01*
X343337600Y-95519000D02*
X343337600Y-107279900D01*
X343337600Y-107279900D02*
X341623600Y-108993900D01*
X341623600Y-108993900D02*
X349732100Y-117102400D01*
X349732100Y-117102400D02*
X349732100Y-131418000D01*
X349732100Y-131418000D02*
X337204500Y-143945600D01*
X337204500Y-143945600D02*
X337204500Y-148068500D01*
X337204500Y-148068500D02*
X337204600Y-148068600D01*
X349964000Y-131418000D02*
X349732100Y-131418000D01*
X342820000Y-93317500D02*
X344481000Y-94375600D01*
X335676000Y-150468000D02*
X337204600Y-148068600D01*
X333295000Y-169518000D02*
X334823600Y-167118600D01*
X335676000Y-150468000D02*
X335676000Y-157005000D01*
X335676000Y-157005000D02*
X333863700Y-158817300D01*
X333863700Y-158817300D02*
X333863700Y-166158700D01*
X333863700Y-166158700D02*
X334823600Y-167118600D01*
%TO.N,/col17*%
X361157000Y-150468000D02*
X361157000Y-120099400D01*
X361157000Y-120099400D02*
X357107000Y-116049400D01*
X357107000Y-116049400D02*
X357107000Y-112368000D01*
X358635600Y-167118600D02*
X358635500Y-167118500D01*
X358635500Y-167118500D02*
X358635500Y-153702500D01*
X358635500Y-153702500D02*
X361157000Y-151181000D01*
X361157000Y-151181000D02*
X361157000Y-150468000D01*
X361157000Y-150468000D02*
X361870000Y-150468000D01*
X357107000Y-112368000D02*
X358635600Y-109968600D01*
X357107000Y-169518000D02*
X358635600Y-167118600D01*
X358635600Y-109968600D02*
X358635500Y-109968500D01*
X358635500Y-109968500D02*
X358635500Y-96552000D01*
X358635500Y-96552000D02*
X361870000Y-93317500D01*
%TO.N,/col3*%
X100653100Y-124260700D02*
X100653100Y-130359800D01*
X100653100Y-130359800D02*
X100653000Y-130359900D01*
X101594000Y-113426100D02*
X100839800Y-114180300D01*
X100839800Y-114180300D02*
X100839800Y-122066200D01*
X100839800Y-122066200D02*
X100653100Y-122252900D01*
X100653100Y-122252900D02*
X100653100Y-124260700D01*
X86995000Y-121602000D02*
X85841500Y-122755500D01*
X85841500Y-122755500D02*
X85841500Y-124615500D01*
X85841500Y-124615500D02*
X86538400Y-125312400D01*
X86538400Y-125312400D02*
X97128600Y-125312400D01*
X97128600Y-125312400D02*
X98180300Y-124260700D01*
X98180300Y-124260700D02*
X100653100Y-124260700D01*
X95170000Y-93317500D02*
X88184500Y-100303000D01*
X88184500Y-100303000D02*
X88184500Y-120412500D01*
X88184500Y-120412500D02*
X86995000Y-121602000D01*
X102314000Y-131418000D02*
X100653000Y-130359900D01*
X99933000Y-112368000D02*
X101594000Y-113426100D01*
X102314000Y-131418000D02*
X103975000Y-132476100D01*
X97551000Y-169518000D02*
X99079600Y-167118600D01*
X99079600Y-167118600D02*
X102794400Y-163403800D01*
X102794400Y-163403800D02*
X102794400Y-133656700D01*
X102794400Y-133656700D02*
X103975000Y-132476100D01*
%TO.N,/col0*%
X38020000Y-131418000D02*
X39548600Y-129018600D01*
X38020000Y-150468000D02*
X39681000Y-151526100D01*
X38020000Y-93317500D02*
X39548600Y-90918100D01*
X71755000Y-98742000D02*
X68123000Y-95110000D01*
X68123000Y-95110000D02*
X63290400Y-95110000D01*
X63290400Y-95110000D02*
X58285500Y-90105100D01*
X58285500Y-90105100D02*
X41232400Y-90105100D01*
X41232400Y-90105100D02*
X40419400Y-90918100D01*
X40419400Y-90918100D02*
X39548600Y-90918100D01*
X38020000Y-112368000D02*
X39548600Y-109968600D01*
X38020000Y-93317500D02*
X38020000Y-108440000D01*
X38020000Y-108440000D02*
X39548600Y-109968600D01*
X38020000Y-112368000D02*
X39681000Y-113426100D01*
X39548600Y-129018600D02*
X38893400Y-128363400D01*
X38893400Y-128363400D02*
X38893400Y-114213700D01*
X38893400Y-114213700D02*
X39681000Y-113426100D01*
X38020000Y-169518000D02*
X39548600Y-167118600D01*
X39548600Y-167118600D02*
X38893400Y-166463400D01*
X38893400Y-166463400D02*
X38893400Y-152313700D01*
X38893400Y-152313700D02*
X39681000Y-151526100D01*
%TO.N,/col1*%
X57070000Y-112368000D02*
X58598600Y-109968600D01*
X57070000Y-131418000D02*
X58731000Y-132476100D01*
X58598500Y-99169300D02*
X66230400Y-99169300D01*
X66230400Y-99169300D02*
X66581300Y-98818400D01*
X66581300Y-98818400D02*
X70078700Y-98818400D01*
X70078700Y-98818400D02*
X71755000Y-100494700D01*
X71755000Y-100494700D02*
X71755000Y-101282000D01*
X57070000Y-93317500D02*
X57070000Y-97640800D01*
X57070000Y-97640800D02*
X58598500Y-99169300D01*
X58598600Y-109968600D02*
X58598500Y-109968500D01*
X58598500Y-109968500D02*
X58598500Y-99169300D01*
X57070000Y-150468000D02*
X58598600Y-148068600D01*
X58731000Y-132476100D02*
X57969600Y-133237500D01*
X57969600Y-133237500D02*
X57969600Y-147439600D01*
X57969600Y-147439600D02*
X58598600Y-148068600D01*
X57070000Y-150468000D02*
X58731000Y-151526100D01*
X57070000Y-169518000D02*
X58598600Y-167118600D01*
X58598600Y-167118600D02*
X57943400Y-166463400D01*
X57943400Y-166463400D02*
X57943400Y-152313700D01*
X57943400Y-152313700D02*
X58731000Y-151526100D01*
%TO.N,/col2*%
X76120000Y-131418000D02*
X74459000Y-130359900D01*
X74459000Y-130359900D02*
X74459100Y-130359800D01*
X74459100Y-130359800D02*
X74459100Y-129757100D01*
X74459100Y-129757100D02*
X74321100Y-129619100D01*
X74321100Y-129619100D02*
X74321100Y-117661900D01*
X74321100Y-117661900D02*
X76120000Y-115863000D01*
X76120000Y-115863000D02*
X76120000Y-112368000D01*
X77648600Y-148068600D02*
X76600400Y-147020400D01*
X76600400Y-147020400D02*
X76600400Y-139877500D01*
X76600400Y-139877500D02*
X75679600Y-138956700D01*
X75679600Y-138956700D02*
X75679600Y-131858400D01*
X75679600Y-131858400D02*
X76120000Y-131418000D01*
X76120000Y-112368000D02*
X77648600Y-109968600D01*
X76120000Y-150468000D02*
X77781000Y-151526100D01*
X76120000Y-169518000D02*
X77648600Y-167118600D01*
X77648600Y-167118600D02*
X76993400Y-166463400D01*
X76993400Y-166463400D02*
X76993400Y-152313700D01*
X76993400Y-152313700D02*
X77781000Y-151526100D01*
X78418900Y-109198200D02*
X82640100Y-109198200D01*
X82640100Y-109198200D02*
X85670700Y-112228800D01*
X85670700Y-112228800D02*
X85670700Y-117737700D01*
X85670700Y-117737700D02*
X86995000Y-119062000D01*
X77648600Y-109968600D02*
X77648600Y-109968500D01*
X77648600Y-109968500D02*
X78418900Y-109198200D01*
X78418900Y-109198200D02*
X76993400Y-107772700D01*
X76993400Y-107772700D02*
X76993400Y-95163200D01*
X76993400Y-95163200D02*
X77781000Y-94375600D01*
X76120000Y-93317500D02*
X77781000Y-94375600D01*
X76120000Y-150468000D02*
X77648600Y-148068600D01*
%TO.N,Net-(DLFn1-Pad2)*%
X167620000Y-168248000D02*
X167490100Y-170153500D01*
X169000000Y-182562000D02*
X167620000Y-181182000D01*
X167620000Y-181182000D02*
X167620000Y-170283300D01*
X167620000Y-170283300D02*
X167490200Y-170153500D01*
X167490200Y-170153500D02*
X167490100Y-170153500D01*
%TD*%
M02*
