M48
; DRILL file {KiCad (5.1.6)-1} date 06/24/20 11:27:32
; FORMAT={-:-/ absolute / inch / decimal}
; #@! TF.CreationDate,2020-06-24T11:27:32-04:00
; #@! TF.GenerationSoftware,Kicad,Pcbnew,(5.1.6)-1
; #@! TF.FileFunction,NonPlated,1,2,NPTH
FMAT,2
INCH
T1C0.0670
T2C0.1200
T3C0.1570
%
G90
G05
T1
X10.425Y-3.8125
X10.825Y-3.8125
X11.7375Y-5.3125
X12.1375Y-5.3125
X8.55Y-4.5625
X8.95Y-4.5625
X2.175Y-5.3125
X2.575Y-5.3125
X2.175Y-6.0625
X2.575Y-6.0625
X3.9563Y-5.3125
X4.3563Y-5.3125
X9.1125Y-6.0625
X9.5125Y-6.0625
X10.2375Y-5.3125
X10.6375Y-5.3125
X13.9875Y-4.5625
X14.3875Y-4.5625
X5.7375Y-5.3125
X6.1375Y-5.3125
X2.925Y-4.5625
X3.325Y-4.5625
X7.425Y-3.8125
X7.825Y-3.8125
X5.175Y-3.8125
X5.575Y-3.8125
X11.3625Y-6.0625
X11.7625Y-6.0625
X1.425Y-5.3125
X1.825Y-5.3125
X2.925Y-6.0625
X3.325Y-6.0625
X11.55Y-6.8125
X11.95Y-6.8125
X4.9875Y-5.3125
X5.3875Y-5.3125
X6.8625Y-6.0625
X7.2625Y-6.0625
X9.5813Y-6.8125
X9.9813Y-6.8125
X2.175Y-3.8125
X2.575Y-3.8125
X8.175Y-3.8125
X8.575Y-3.8125
X12.3Y-6.8125
X12.7Y-6.8125
X5.925Y-3.8125
X6.325Y-3.8125
X1.425Y-6.8125
X1.825Y-6.8125
X11.55Y-4.5625
X11.95Y-4.5625
X9.8625Y-6.0625
X10.2625Y-6.0625
X9.4875Y-5.3125
X9.8875Y-5.3125
X6.4875Y-5.3125
X6.8875Y-5.3125
X10.8Y-4.5625
X11.2Y-4.5625
X3.675Y-3.8125
X4.075Y-3.8125
X7.8Y-4.5625
X8.2Y-4.5625
X2.925Y-6.8125
X3.325Y-6.8125
X9.3Y-4.5625
X9.7Y-4.5625
X11.175Y-3.8125
X11.575Y-3.8125
X9.675Y-3.8125
X10.075Y-3.8125
X6.1125Y-6.0625
X6.5125Y-6.0625
X8.925Y-3.8125
X9.325Y-3.8125
X2.925Y-5.3125
X3.325Y-5.3125
X10.9875Y-5.3125
X11.3875Y-5.3125
X6.3Y-4.5625
X6.7Y-4.5625
X12.3Y-4.5625
X12.7Y-4.5625
X4.8Y-4.5625
X5.2Y-4.5625
X13.1437Y-6.0625
X13.5437Y-6.0625
X3.8625Y-4.5625
X4.2625Y-4.5625
X12.1125Y-6.0625
X12.5125Y-6.0625
X12.4875Y-5.3125
X12.8875Y-5.3125
X14.175Y-6.0625
X14.575Y-6.0625
X2.175Y-4.5625
X2.575Y-4.5625
X10.6125Y-6.0625
X11.0125Y-6.0625
X5.3625Y-6.0625
X5.7625Y-6.0625
X1.425Y-4.5625
X1.825Y-4.5625
X4.7063Y-6.8125
X5.1063Y-6.8125
X8.7375Y-5.3125
X9.1375Y-5.3125
X13.425Y-3.8125
X13.825Y-3.8125
X7.05Y-4.5625
X7.45Y-4.5625
X14.175Y-3.8125
X14.575Y-3.8125
X13.9875Y-6.8125
X14.3875Y-6.8125
X6.675Y-3.8125
X7.075Y-3.8125
X11.925Y-3.8125
X12.325Y-3.8125
X6.3Y-6.8125
X6.7Y-6.8125
X4.1437Y-6.0625
X4.5437Y-6.0625
X1.425Y-6.0625
X1.825Y-6.0625
X10.8Y-6.8125
X11.2Y-6.8125
X10.05Y-4.5625
X10.45Y-4.5625
X13.05Y-4.5625
X13.45Y-4.5625
X13.05Y-6.8125
X13.45Y-6.8125
X2.925Y-3.8125
X3.325Y-3.8125
X1.425Y-3.8125
X1.825Y-3.8125
X4.425Y-3.8125
X4.825Y-3.8125
X12.675Y-3.8125
X13.075Y-3.8125
X7.6125Y-6.0625
X8.0125Y-6.0625
X7.7063Y-6.8125
X8.1063Y-6.8125
X5.55Y-4.5625
X5.95Y-4.5625
X2.175Y-6.8125
X2.575Y-6.8125
X7.9875Y-5.3125
X8.3875Y-5.3125
X3.7687Y-6.8125
X4.1687Y-6.8125
X7.2375Y-5.3125
X7.6375Y-5.3125
X8.3625Y-6.0625
X8.7625Y-6.0625
X5.55Y-6.8125
X5.95Y-6.8125
X13.7063Y-5.3125
X14.1063Y-5.3125
T2
X3.8737Y-5.7875
X4.8137Y-5.7875
X7.4363Y-6.5375
X8.3763Y-6.5375
X13.4363Y-5.0375
X14.3763Y-5.0375
X9.3113Y-6.5375
X10.2513Y-6.5375
T3
X10.625Y-3.8125
X11.9375Y-5.3125
X8.75Y-4.5625
X2.375Y-5.3125
X2.375Y-6.0625
X4.1563Y-5.3125
X9.3125Y-6.0625
X10.4375Y-5.3125
X14.1875Y-4.5625
X5.9375Y-5.3125
X3.125Y-4.5625
X7.625Y-3.8125
X5.375Y-3.8125
X11.5625Y-6.0625
X1.625Y-5.3125
X3.125Y-6.0625
X11.75Y-6.8125
X5.1875Y-5.3125
X7.0625Y-6.0625
X9.3113Y-7.1375
X9.7813Y-6.8125
X10.2513Y-7.1375
X2.375Y-3.8125
X8.375Y-3.8125
X12.5Y-6.8125
X6.125Y-3.8125
X1.625Y-6.8125
X11.75Y-4.5625
X10.0625Y-6.0625
X9.6875Y-5.3125
X6.6875Y-5.3125
X11.0Y-4.5625
X3.875Y-3.8125
X8.0Y-4.5625
X3.125Y-6.8125
X9.5Y-4.5625
X11.375Y-3.8125
X9.875Y-3.8125
X6.3125Y-6.0625
X9.125Y-3.8125
X3.125Y-5.3125
X11.1875Y-5.3125
X6.5Y-4.5625
X12.5Y-4.5625
X5.0Y-4.5625
X13.3437Y-6.0625
X4.0625Y-4.5625
X12.3125Y-6.0625
X12.6875Y-5.3125
X14.375Y-6.0625
X2.375Y-4.5625
X10.8125Y-6.0625
X5.5625Y-6.0625
X1.625Y-4.5625
X4.9063Y-6.8125
X8.9375Y-5.3125
X13.625Y-3.8125
X7.25Y-4.5625
X14.375Y-3.8125
X14.1875Y-6.8125
X6.875Y-3.8125
X12.125Y-3.8125
X6.5Y-6.8125
X3.8737Y-6.3875
X4.3437Y-6.0625
X4.8137Y-6.3875
X1.625Y-6.0625
X11.0Y-6.8125
X10.25Y-4.5625
X13.25Y-4.5625
X13.25Y-6.8125
X3.125Y-3.8125
X1.625Y-3.8125
X4.625Y-3.8125
X12.875Y-3.8125
X7.8125Y-6.0625
X7.4363Y-7.1375
X7.9063Y-6.8125
X8.3763Y-7.1375
X5.75Y-4.5625
X2.375Y-6.8125
X8.1875Y-5.3125
X3.9687Y-6.8125
X7.4375Y-5.3125
X8.5625Y-6.0625
X5.75Y-6.8125
X13.4363Y-5.6375
X13.9063Y-5.3125
X14.3763Y-5.6375
T0
M30
